<svg xmlns="http://www.w3.org/2000/svg" viewBox="0 0 500 500"><g id="freepik--background-complete--inject-440"><path d="M105,65.07l5.34,2.18a1.58,1.58,0,0,1,0,2.94l-5.39,2a1.56,1.56,0,0,0-.9.88l-2.19,5.34a1.57,1.57,0,0,1-2.93,0l-2-5.4a1.56,1.56,0,0,0-.88-.9l-5.33-2.18a1.58,1.58,0,0,1,0-2.94l5.4-2a1.62,1.62,0,0,0,.9-.88l2.19-5.34a1.57,1.57,0,0,1,2.93,0l2,5.39A1.59,1.59,0,0,0,105,65.07Z" style="fill:#ebebeb"></path><path d="M241.07,192.2l4.61,1.89a1.37,1.37,0,0,1,0,2.54L241,198.39a1.36,1.36,0,0,0-.78.76l-1.89,4.61a1.37,1.37,0,0,1-2.54,0L234,199.07a1.36,1.36,0,0,0-.76-.78l-4.61-1.89a1.36,1.36,0,0,1,0-2.54l4.66-1.76a1.39,1.39,0,0,0,.78-.76l1.89-4.61a1.36,1.36,0,0,1,2.53,0l1.77,4.66A1.39,1.39,0,0,0,241.07,192.2Z" style="fill:#ebebeb"></path><path d="M410,46.59l5.71,2.34a1.69,1.69,0,0,1,0,3.14l-5.77,2.18a1.71,1.71,0,0,0-1,.94l-2.34,5.7a1.69,1.69,0,0,1-3.14,0l-2.18-5.76a1.72,1.72,0,0,0-.94-1l-5.7-2.33a1.69,1.69,0,0,1,0-3.14l5.76-2.18a1.72,1.72,0,0,0,1-.94l2.33-5.71a1.69,1.69,0,0,1,3.14,0l2.19,5.76A1.63,1.63,0,0,0,410,46.59Z" style="fill:#ebebeb"></path><path d="M363.33,39.66l3.08,1.26a.91.91,0,0,1,0,1.69l-3.1,1.18a.88.88,0,0,0-.52.5l-1.26,3.08a.91.91,0,0,1-1.69,0l-1.18-3.1a.91.91,0,0,0-.5-.52l-3.07-1.26a.91.91,0,0,1,0-1.69l3.1-1.18a.86.86,0,0,0,.52-.5L360,36a.91.91,0,0,1,1.69,0l1.18,3.1A.88.88,0,0,0,363.33,39.66Z" style="fill:#f5f5f5"></path><path d="M461.69,152.91l3.07,1.26a.91.91,0,0,1,0,1.69L461.63,157a1,1,0,0,0-.52.51l-1.26,3.07a.91.91,0,0,1-1.69,0L457,157.48a.88.88,0,0,0-.51-.51l-3.07-1.26a.91.91,0,0,1,0-1.69l3.11-1.18a.94.94,0,0,0,.52-.5l1.26-3.08a.9.9,0,0,1,1.68,0l1.18,3.1A.9.9,0,0,0,461.69,152.91Z" style="fill:#f5f5f5"></path><path d="M68.51,118.05l3.23,1.33a1,1,0,0,1,0,1.77l-3.26,1.24a1,1,0,0,0-.55.53l-1.32,3.23a1,1,0,0,1-1.78,0l-1.24-3.27a.94.94,0,0,0-.53-.54L59.81,121a1,1,0,0,1,0-1.77L63.1,118a.94.94,0,0,0,.54-.53L65,114.22a1,1,0,0,1,1.77,0L68,117.51A1,1,0,0,0,68.51,118.05Z" style="fill:#ebebeb"></path><path d="M67.9,49.09l3.23,1.33a1,1,0,0,1,0,1.77l-3.26,1.24a1,1,0,0,0-.55.53L66,57.19a1,1,0,0,1-1.78,0L63,53.9a.94.94,0,0,0-.53-.54L59.19,52a1,1,0,0,1,0-1.77L62.48,49a1,1,0,0,0,.55-.53l1.32-3.23a1,1,0,0,1,1.78,0l1.23,3.27A1,1,0,0,0,67.9,49.09Z" style="fill:#f5f5f5"></path><polygon points="474.14 422.67 474.14 339.8 477.85 333.61 477.85 301.76 463.76 289.78 444.76 289.67 444.76 268.98 427.07 268.98 424.97 268.98 407.28 268.98 407.28 289.67 388.28 289.78 374.19 301.76 374.19 333.61 377.91 339.8 377.91 422.67 369.25 428.54 369.25 463.48 380.84 475.08 424.97 475.08 427.07 475.08 471.2 475.08 482.8 463.48 482.8 428.54 474.14 422.67" style="fill:#f5f5f5"></polygon><path d="M474.14,422.67l2.22,1.46,6.47,4.36,0,0v0c0,7.61,0,19.5.07,34.94v.06l0,0c-3.52,3.54-7.42,7.44-11.58,11.61l0,.05h-.07l-90.36.06h-.09l-.07-.06-11.6-11.59-.06-.07v-.1c0-11.07,0-22.82,0-34.94v-.13l.11-.07,8.66-5.88-.11.21c0-25.86,0-53.86,0-82.88l0,.14L374,333.74l0-.06v-1.84q0-15.24,0-30.08v-.12l.09-.08q7.11-6,14.08-12l.08-.06h.09l19-.1-.25.25V268.73h.25l37.48,0H445V269c0,7.09,0,14,0,20.69l-.23-.23,19,.12h.08l.06.05,14.08,12,.08.06v.1c0,11.43,0,22,0,31.85v.05l0,0-3.72,6.19,0-.1c0,25.81-.07,46.51-.09,60.77,0,7.13,0,12.65-.05,16.4,0,1.86,0,3.29,0,4.25s0,1.46,0,1.46,0-.48,0-1.43,0-2.38,0-4.24c0-3.74,0-9.25,0-16.37,0-14.28-.05-35-.09-60.84v0l0-.05,3.7-6.18,0,.09c0-9.85,0-20.42,0-31.85l.07.16q-6.82-5.81-14.09-12l.14.05-19-.1h-.23v-.23c0-6.72,0-13.6,0-20.69l.24.24H407.28l.25-.25q0,10.18,0,20.69v.25h-.26l-19,.11.17-.06-14.09,12,.09-.2q0,14.83,0,30.08v1.77l0-.13,3.71,6.18,0,.06v.07c0,29,0,57,0,82.88v.13l-.11.07c-3,2-6,4.05-8.65,5.87l.1-.2c0,12.12,0,23.87,0,34.94l-.07-.16L381,474.92l-.16-.06,90.36.06-.11.05c4.17-4.16,8.07-8.06,11.61-11.58l0,.09c0-15.44,0-27.33.07-34.94l0,.06-6.46-4.43Z" style="fill:#e0e0e0"></path><path d="M476.82,333.37c0,.14-23.15.26-51.69.26s-51.68-.12-51.68-.26,23.13-.26,51.68-.26S476.82,333.23,476.82,333.37Z" style="fill:#e0e0e0"></path><path d="M472.88,339.45c0,.14-21.38.26-47.75.26s-47.75-.12-47.75-.26,21.38-.26,47.75-.26S472.88,339.31,472.88,339.45Z" style="fill:#e0e0e0"></path><path d="M476.46,301.89c0,.15-22.42.26-50.07.26s-50.08-.11-50.08-.26,22.42-.26,50.08-.26S476.46,301.75,476.46,301.89Z" style="fill:#e0e0e0"></path><path d="M446.77,290.09c0,.15-8.81.26-19.67.26s-19.67-.11-19.67-.26,8.8-.26,19.67-.26S446.77,290,446.77,290.09Z" style="fill:#e0e0e0"></path><path d="M477.89,423.15c0,.14-22.26.26-49.71.26s-49.72-.12-49.72-.26,22.25-.26,49.72-.26S477.89,423,477.89,423.15Z" style="fill:#e0e0e0"></path><path d="M481.47,429.58c0,.15-25,.27-55.8.27s-55.8-.12-55.8-.27,25-.26,55.8-.26S481.47,429.44,481.47,429.58Z" style="fill:#e0e0e0"></path><path d="M482.54,465c0,.15-25.22.26-56.33.26s-56.34-.11-56.34-.26,25.22-.26,56.34-.26S482.54,464.85,482.54,465Z" style="fill:#e0e0e0"></path><rect x="395.11" y="353.86" width="63.97" height="50.23" style="fill:#e0e0e0"></rect><path d="M409.68,242.49h33.41a7.23,7.23,0,0,1,7.23,7.23v32.35a0,0,0,0,1,0,0H402.45a0,0,0,0,1,0,0V249.72A7.23,7.23,0,0,1,409.68,242.49Z" style="fill:#e0e0e0"></path><path d="M408.25,282.14c-.15,0-.26-8.71-.26-19.46s.11-19.47.26-19.47.26,8.71.26,19.47S408.39,282.14,408.25,282.14Z" style="fill:#fafafa"></path><path d="M415.42,282.14c-.15,0-.26-8.71-.26-19.46s.11-19.47.26-19.47.26,8.71.26,19.47S415.56,282.14,415.42,282.14Z" style="fill:#fafafa"></path><path d="M422.58,282.14c-.14,0-.26-8.71-.26-19.46s.12-19.47.26-19.47.26,8.71.26,19.47S422.73,282.14,422.58,282.14Z" style="fill:#fafafa"></path><path d="M429.75,282.14c-.14,0-.26-8.71-.26-19.46s.12-19.47.26-19.47.26,8.71.26,19.47S429.89,282.14,429.75,282.14Z" style="fill:#fafafa"></path><path d="M436.92,282.14c-.15,0-.26-8.71-.26-19.46s.11-19.47.26-19.47.26,8.71.26,19.47S437.06,282.14,436.92,282.14Z" style="fill:#fafafa"></path><path d="M444.08,282.14c-.14,0-.26-8.71-.26-19.46s.12-19.47.26-19.47.26,8.71.26,19.47S444.23,282.14,444.08,282.14Z" style="fill:#fafafa"></path></g><g id="freepik--Floor--inject-440"><path d="M473.94,476c0,.14-100.27.26-223.93.26S26.06,476.11,26.06,476s100.25-.26,224-.26S473.94,475.83,473.94,476Z" style="fill:#263238"></path></g><g id="freepik--Toothpaste--inject-440"><path d="M43.7,222.9c.47-1.12-.11-9.25-.11-9.25l95.12-1.2.14,10.72L126.23,441.58l-63.44.81Z" style="fill:#455a64"></path><path d="M119.64,475.41l-49.3.63a2.92,2.92,0,0,1-3-2.88L67,442.34l55.14-.7.39,30.82A2.92,2.92,0,0,1,119.64,475.41Z" style="fill:#e0e0e0"></path><path d="M119.64,475.41s.22,0,.63-.1a3,3,0,0,0,1.52-1,3,3,0,0,0,.58-1.19,7.08,7.08,0,0,0,0-1.62c0-1.2,0-2.57-.08-4.1-.1-6.18-.24-15-.42-25.79l.21.21-52.21.71-2.92,0,.25-.27c.07,5.89.14,11.63.21,17.16q.06,4.15.1,8.15c0,1.33,0,2.64,0,3.94,0,.64,0,1.33.05,1.91A2.67,2.67,0,0,0,70,475.78c.55.05,1.22,0,1.83,0l3.65,0,7-.08,12.51-.12L113,475.4l4.9,0h1.28l.43,0-.43,0-1.27,0-4.91.11L95,475.91l-12.52.19-7,.1-3.66.05c-.63,0-1.2.05-1.89,0a3.06,3.06,0,0,1-1.81-.87,3.21,3.21,0,0,1-.92-1.82c-.06-.69,0-1.3,0-2,0-1.3,0-2.62-.05-3.95q-.06-4-.11-8.14c-.08-5.54-.15-11.28-.23-17.16v-.26H67l2.92,0,52.22-.61h.21v.2c.1,10.77.18,19.61.24,25.79,0,1.54,0,2.91,0,4.1a7.43,7.43,0,0,1-.08,1.66,3,3,0,0,1-.64,1.24,2.94,2.94,0,0,1-1.6.95A1.94,1.94,0,0,1,119.64,475.41Z" style="fill:#263238"></path><path d="M43.63,222.65c0-.15,21.31-.53,47.59-.87s47.61-.48,47.61-.34-21.31.53-47.6.87S43.64,222.79,43.63,222.65Z" style="fill:#263238"></path><path d="M62.79,442.39l63.44-.81,12.64-217h0c-1.44,20-7.13,35.33-17.71,50.66S97.1,303.75,86.37,319c-24.59,34.92-28.81,78.3-23.58,123.41" style="fill:#f5f5f5"></path><path d="M74.52,476c-.15,0-.36-7.53-.48-16.81s-.09-16.82,0-16.82.36,7.52.47,16.81S74.66,476,74.52,476Z" style="fill:#263238"></path><path d="M82.52,475.87c-.14,0-.35-7.53-.47-16.81s-.1-16.82,0-16.83.35,7.53.47,16.82S82.67,475.87,82.52,475.87Z" style="fill:#263238"></path><path d="M90.53,475.77c-.14,0-.35-7.53-.47-16.82s-.1-16.82,0-16.82.35,7.53.47,16.82S90.68,475.76,90.53,475.77Z" style="fill:#263238"></path><path d="M98.54,475.66c-.14,0-.36-7.52-.47-16.81S98,442,98.11,442s.36,7.53.48,16.82S98.68,475.66,98.54,475.66Z" style="fill:#263238"></path><path d="M106.55,475.56c-.15,0-.36-7.52-.48-16.81s-.09-16.82.05-16.82.36,7.52.47,16.81S106.69,475.56,106.55,475.56Z" style="fill:#263238"></path><path d="M114.56,475.46c-.15,0-.36-7.52-.48-16.81s-.09-16.82,0-16.82.36,7.52.47,16.81S114.7,475.46,114.56,475.46Z" style="fill:#263238"></path><path d="M92.7,288.42c6.3-1.31,5.43-3,11.62-3.62a10,10,0,0,1,9.24,4.14c9.13,10.22.32,25.78.32,25.78s.22,14.48-1.72,20.85c-1.8,5.91-4.3,9.16-7,8.57s-2.27-2.43-2.37-4.67.39-17.39-9.61-16.84H93c-10-.29-9.14,14.84-9.18,17.08s.47,4.06-2.26,4.73-5.3-2.52-7.25-8.39c-2.1-6.32-2.25-20.8-2.25-20.8s-9.19-15.33-.32-25.78a10,10,0,0,1,9.13-4.37c6.2.48,5.37,2.18,11.7,3.33" style="fill:#fff"></path><path d="M92.53,288.42s-.53-.06-1.52-.28a19.3,19.3,0,0,1-4.24-1.48,14.05,14.05,0,0,0-3.06-1.07,19.87,19.87,0,0,0-3.86-.41,9.88,9.88,0,0,0-8,4.36v0h0a16.82,16.82,0,0,0-3.76,11.56,31.36,31.36,0,0,0,4.15,14l0,.05v.06c.09,4.34.31,8.92.87,13.63A40.76,40.76,0,0,0,74.5,336a20.71,20.71,0,0,0,3.34,6.61,4.08,4.08,0,0,0,3.08,1.68,3.6,3.6,0,0,0,1.71-.55,1.93,1.93,0,0,0,.85-1.46c.11-2.54-.07-5.29.21-8a19.53,19.53,0,0,1,2.21-7.93,8.14,8.14,0,0,1,3-3,8,8,0,0,1,4.18-.93h.07a8,8,0,0,1,4.19.87A7.82,7.82,0,0,1,99,324.53a9.63,9.63,0,0,1,1.3,1.69,19.74,19.74,0,0,1,2.38,7.87c.35,2.68.22,5.43.41,8a2,2,0,0,0,.92,1.42,3.78,3.78,0,0,0,1.73.48,4.17,4.17,0,0,0,3-1.79,21.15,21.15,0,0,0,3.15-6.69,40.9,40.9,0,0,0,1.2-7.12c.44-4.72.55-9.29.53-13.62v-.06l0-.06a31.25,31.25,0,0,0,3.8-14.1,16.92,16.92,0,0,0-4-11.46h0a9.83,9.83,0,0,0-8.16-4.16,15.77,15.77,0,0,0-6.87,1.66,18.68,18.68,0,0,1-4.18,1.58c-1,.24-1.51.31-1.51.31l.38-.1c.25-.07.62-.15,1.11-.29a20,20,0,0,0,4.13-1.65,15.73,15.73,0,0,1,6.94-1.75,10.09,10.09,0,0,1,8.43,4.23l0,0a17.13,17.13,0,0,1,4.2,11.67,31.67,31.67,0,0,1-3.8,14.32l0-.11c0,4.35-.06,8.93-.49,13.68a41.89,41.89,0,0,1-1.2,7.21,21.74,21.74,0,0,1-3.23,6.86,7.56,7.56,0,0,1-1.46,1.36,3.61,3.61,0,0,1-2,.62,4.22,4.22,0,0,1-2-.55,2.57,2.57,0,0,1-.79-.75,3.25,3.25,0,0,1-.37-1c-.21-2.7-.07-5.31-.42-8a19.48,19.48,0,0,0-2.31-7.66,9.51,9.51,0,0,0-1.23-1.59,7.15,7.15,0,0,0-1.59-1.2,7.44,7.44,0,0,0-3.92-.81H93a7.53,7.53,0,0,0-3.91.86,7.63,7.63,0,0,0-2.77,2.84,19.15,19.15,0,0,0-2.15,7.72c-.28,2.68-.09,5.29-.22,8a3,3,0,0,1-.32,1,2.47,2.47,0,0,1-.75.79,4.21,4.21,0,0,1-2,.64,3.53,3.53,0,0,1-2-.55,7.24,7.24,0,0,1-1.5-1.31A21.45,21.45,0,0,1,74,336.12a41.1,41.1,0,0,1-1.4-7.19c-.55-4.74-.76-9.32-.84-13.68l0,.1a31.55,31.55,0,0,1-4.16-14.21,17.24,17.24,0,0,1,3.89-11.78v0a10.07,10.07,0,0,1,8.29-4.44,19.25,19.25,0,0,1,3.9.45,13.75,13.75,0,0,1,3.09,1.12A19.75,19.75,0,0,0,91,288.05c.49.14.87.21,1.12.27Z" style="fill:#263238"></path><rect x="70.43" y="364.06" width="48.15" height="11.67" transform="translate(-4.68 1.23) rotate(-0.73)" style="fill:#e0e0e0"></rect><rect x="71.5" y="380.63" width="48.15" height="11.67" transform="translate(-4.89 1.24) rotate(-0.73)" style="fill:#e0e0e0"></rect><rect x="69.82" y="247.65" width="48.15" height="11.67" transform="translate(-3.2 1.21) rotate(-0.73)" style="fill:#fff"></rect></g><g id="freepik--Toothbrush--inject-440"><path d="M108.71,135.79c.27.12,15.19,3.8,15.19,3.8l-.4,2.11-15.42-1Z" style="fill:#2179C2"></path><path d="M108,142.41c.27.12,15.2,3.8,15.2,3.8l-.41,2.11-15.42-1Z" style="fill:#2179C2"></path><path d="M107.31,149c.27.12,15.2,3.8,15.2,3.8l-.41,2.11-15.42-1Z" style="fill:#2179C2"></path><path d="M107,156.51c.27.13,15.2,3.81,15.2,3.81l-.4,2.1-15.43-1Z" style="fill:#e0e0e0"></path><path d="M106.21,163.94c.27.13,15.19,3.81,15.19,3.81l-.4,2.11-15.42-1Z" style="fill:#e0e0e0"></path><path d="M105.43,171.38c.26.13,15.19,3.81,15.19,3.81l-.4,2.1-15.43-1Z" style="fill:#e0e0e0"></path><path d="M112.08,114.21c.26.13,15.19,3.81,15.19,3.81l-.4,2.11-15.43-1Z" style="fill:#e0e0e0"></path><path d="M111.29,121.65c.27.12,15.2,3.8,15.2,3.8l-.41,2.11-15.42-1Z" style="fill:#e0e0e0"></path><path d="M110.51,129.08c.26.13,15.19,3.81,15.19,3.81l-.4,2.1-15.43-1Z" style="fill:#e0e0e0"></path><path d="M104.64,178.81c.27.13,15.2,3.81,15.2,3.81l-.41,2.11-15.42-1Z" style="fill:#e0e0e0"></path><path d="M125.7,113.33s17.16-2.15,17.15,10.46c0,10.66-27.72,299.43-31.39,346a7.47,7.47,0,0,1-7.87,6.87h0a7.48,7.48,0,0,1-7-6.88c-.77-9.88,14.4-103.82,14-124.5-.61-29.29-3.5-63.15,2.73-93.38C119.9,219.55,126.88,188,126.88,188l-9.69-.74Z" style="fill:#2179C2"></path><path d="M125.7,113.33s0,.43-.13,1.27-.23,2.07-.41,3.71c-.36,3.27-.91,8.11-1.62,14.42-1.43,12.61-3.53,31.08-6.2,54.55l-.14-.17,9.69.73.18,0,0,.18-12.12,57c-1.12,5.28-2.32,10.67-3.08,16.25s-1.39,11.32-1.73,17.18c-.75,11.73-.65,23.95-.3,36.56q.31,9.47.63,19.22c.1,3.25.19,6.53.29,9.83s-.07,6.65-.33,10c-.48,6.68-1.22,13.43-2,20.25S106.75,388,105.85,395q-2.76,20.89-5.64,42.64c-.95,7.24-1.9,14.55-2.69,21.92-.21,1.85-.39,3.7-.52,5.55-.06.93-.18,1.86-.16,2.78a13.16,13.16,0,0,0,.09,2.74,7.21,7.21,0,0,0,12.18,3.71,7.1,7.1,0,0,0,2-4.17c.28-3.25.55-6.49.83-9.72q.86-9.69,1.69-19.26,1.74-19.11,3.43-37.64c2.29-24.67,4.5-48.47,6.61-71.14L135,211.92c3.17-34.29,5.75-62,7.33-81.23.22-2.4.31-4.67.46-6.79a10,10,0,0,0-1.5-5.65,9.79,9.79,0,0,0-3.84-3.25,17.21,17.21,0,0,0-4-1.31,27.37,27.37,0,0,0-5.73-.46c-1.3,0-2,.1-2,.1a16.4,16.4,0,0,1,2-.15,26.19,26.19,0,0,1,5.75.41,16.84,16.84,0,0,1,4.05,1.29,9.82,9.82,0,0,1,3.91,3.28,10.14,10.14,0,0,1,1.56,5.74c-.14,2.13-.23,4.41-.44,6.8-1.52,19.2-4,47-7.16,81.25s-6.94,75.13-11.13,120.47c-2.1,22.67-4.3,46.47-6.58,71.15q-1.68,18.51-3.42,37.64-.84,9.56-1.69,19.25l-.84,9.74a7.73,7.73,0,0,1-12.19,5.28,7.71,7.71,0,0,1-3.06-4.78,14.34,14.34,0,0,1-.1-2.85c0-1,.1-1.87.16-2.81.13-1.86.32-3.71.52-5.56.79-7.39,1.75-14.7,2.69-21.94q2.88-21.72,5.66-42.64,1.35-10.44,2.55-20.67c.79-6.82,1.53-13.56,2-20.23.26-3.33.39-6.64.33-9.94s-.18-6.57-.28-9.82q-.31-9.76-.62-19.23c-.34-12.61-.43-24.85.33-36.6.35-5.87.93-11.62,1.75-17.21s2-11,3.1-16.28c4.52-21.1,8.62-40.22,12.2-56.95l.15.2-9.69-.76H117l0-.16c2.74-23.49,4.9-42,6.37-54.61.74-6.29,1.31-11.12,1.69-14.38.2-1.62.34-2.85.44-3.68S125.7,113.33,125.7,113.33Z" style="fill:#263238"></path></g><g id="freepik--Tooth--inject-440"><path d="M240.3,225.28c28.34-5.52,24.53-13.08,52.36-15.61s41.25,19.13,41.25,19.13c40.4,46.41,0,115.76,0,115.76s.16,65-8.91,93.49c-8.42,26.47-19.82,40.91-32.1,38.08s-10.07-11-10.38-21.08,2.74-78.05-42.22-76.16l-.77-.05c-45-1.88-41.9,66.09-42.21,76.16s1.89,18.26-10.39,21.09-23.67-11.61-32.1-38.08c-9.06-28.47-8.9-93.49-8.9-93.49s-40.41-69.35,0-115.77c0,0,13.42-21.65,41.25-19.12s24,10.09,52.35,15.61" style="fill:#f5f5f5"></path><path d="M241.52,225.69c24.7,5.32,40.14-12.7,63.54-15.58a46.8,46.8,0,0,0-12.15-.44c-25,2.27-24.48,8.58-44.54,13.84" style="fill:#e0e0e0"></path><path d="M171.34,438c-9.07-28.47-8.91-93.49-8.91-93.49s-40.41-69.35,0-115.77a45.24,45.24,0,0,1,29.1-18.68c-1.29-.16-2.65-.31-4.1-.44-27.83-2.53-41.25,19.12-41.25,19.12-40.41,46.42,0,115.77,0,115.77s-.16,65,8.9,93.49c8.43,26.47,19.83,40.91,32.1,38.08a17.6,17.6,0,0,0,5.37-2.07C184.51,469,177.2,456.44,171.34,438Z" style="fill:#e0e0e0"></path><path d="M299,455.05C298.7,445,301.76,377,256.8,378.89l-.76-.05a39.45,39.45,0,0,0-7.9.44c37,5.68,34.33,66.3,34.63,75.77.31,10.07-1.89,18.25,10.38,21.08A14.08,14.08,0,0,0,304,474.07C297.85,470.25,299.28,463.28,299,455.05Z" style="fill:#e0e0e0"></path><path d="M285.29,242.43a.77.77,0,0,1-.25,0l-.73-.16-1.17-.26-1.58-.47a53.82,53.82,0,0,1-9.54-4.27c-3.9-2.09-8.33-4.94-13.6-7.39a40.77,40.77,0,0,0-8.59-2.93,44.52,44.52,0,0,0-9.7-1,61.15,61.15,0,0,0-18.54,3.21,108.63,108.63,0,0,0-14.27,5.93c-4,1.94-7.1,3.63-9.28,4.78l-2.52,1.32-.66.34-.23.1s.06-.06.21-.15l.63-.38,2.47-1.41c2.15-1.2,5.27-2.94,9.21-4.93a105.66,105.66,0,0,1,14.29-6.06,61,61,0,0,1,18.69-3.27,44.36,44.36,0,0,1,9.81,1,41.07,41.07,0,0,1,8.68,3c5.31,2.5,9.72,5.39,13.58,7.5a57.74,57.74,0,0,0,9.43,4.41l1.55.51,1.16.31.71.2A.91.91,0,0,1,285.29,242.43Z" style="fill:#263238"></path><path d="M290.87,372.26s-.08,0-.26.1l-.78.24-3,.88-2.2.62c-.8.22-1.69.42-2.63.65-1.9.44-4.05,1-6.46,1.44l-3.78.74c-1.31.26-2.69.44-4.11.67-2.85.49-5.91.81-9.13,1.19a191.84,191.84,0,0,1-21.07.88,189.88,189.88,0,0,1-21-1.65c-3.2-.49-6.25-.92-9.08-1.51-1.41-.29-2.78-.52-4.09-.82l-3.75-.88c-2.39-.52-4.52-1.17-6.39-1.68-.94-.26-1.82-.49-2.62-.73l-2.17-.71-3-1-.78-.27-.26-.11a.93.93,0,0,1,.28.06l.79.22,3,.89,2.18.66,2.62.69c1.89.49,4,1.11,6.41,1.6l3.74.85c1.31.29,2.68.51,4.09.78,2.82.58,5.87,1,9.07,1.47a181.21,181.21,0,0,0,42,.76c3.21-.36,6.27-.66,9.11-1.14,1.42-.22,2.8-.39,4.12-.63l3.77-.71c2.41-.41,4.56-.95,6.46-1.37l2.64-.6,2.2-.57,3.06-.79.8-.19Z" style="fill:#263238"></path><path d="M239.78,225.24l-1.72-.35c-1.14-.25-2.86-.54-5.07-1.13-1.11-.29-2.36-.57-3.71-1s-2.85-.84-4.43-1.41a101,101,0,0,1-10.71-4.59,62.37,62.37,0,0,0-13.72-5c-1.31-.29-2.66-.55-4-.82l-4.25-.63-4.46-.49c-1.51-.09-3.06-.12-4.64-.19a19,19,0,0,0-2.38.08l-2.42.16c-1.63.16-3.26.51-4.93.77a45.29,45.29,0,0,0-27,18.25h0a73.2,73.2,0,0,0-13.43,23,83.78,83.78,0,0,0-3.46,14,98,98,0,0,0-1,15.06,125.91,125.91,0,0,0,5,31.64,159,159,0,0,0,5.52,16,141,141,0,0,0,7.47,15.82l0,0v.06q0,14.66.76,30c.48,10.24,1.18,20.7,2.32,31.32.31,2.66.57,5.33,1,8s.72,5.36,1.22,8c.23,1.34.47,2.69.7,4l.87,4,.43,2c.16.67.36,1.32.54,2l1.11,4a138.22,138.22,0,0,0,6,15.65,65.86,65.86,0,0,0,8.79,14.51,27.77,27.77,0,0,0,6.34,5.7,14.37,14.37,0,0,0,8.09,2.36,15.77,15.77,0,0,0,4.22-.77,15.52,15.52,0,0,0,3.93-1.75,9.93,9.93,0,0,0,3-3.06,12.34,12.34,0,0,0,1.35-4.08,61.75,61.75,0,0,0,.31-8.84l.09-8.95c.08-6,.35-12,1-18.05a119.78,119.78,0,0,1,3.23-18,76.49,76.49,0,0,1,2.91-8.78c.53-1.45,1.23-2.84,1.86-4.25.34-.7.73-1.37,1.09-2.06a21.14,21.14,0,0,1,1.16-2l1.24-2,1.39-1.89c.24-.31.46-.63.71-.93l.77-.88c.53-.58,1-1.2,1.58-1.75a34.15,34.15,0,0,1,7.48-5.69,35.19,35.19,0,0,1,18.36-3.83l.41,0h0a34.76,34.76,0,0,1,18.29,4,34.12,34.12,0,0,1,7.43,5.75,43.86,43.86,0,0,1,5.62,7.47,54.93,54.93,0,0,1,4.05,8.35A77.6,77.6,0,0,1,278.8,413,121,121,0,0,1,282,431c.65,6,.9,12.05,1,18l.09,8.94a57.39,57.39,0,0,0,.35,8.82,12.12,12.12,0,0,0,1.44,4,10,10,0,0,0,3,3,17.09,17.09,0,0,0,4,1.68,13.74,13.74,0,0,0,12.27-1.76,28.44,28.44,0,0,0,6.3-5.74,66.53,66.53,0,0,0,8.73-14.52,138.59,138.59,0,0,0,5.94-15.64c.71-2.67,1.56-5.29,2.07-8,.29-1.34.58-2.67.86-4s.47-2.69.7-4c.49-2.67.84-5.35,1.21-8s.65-5.33,1-8c1.15-10.61,1.84-21.06,2.32-31.27s.72-20.23.76-30v-.06l0-.05a141.29,141.29,0,0,0,7.47-15.84,160.07,160.07,0,0,0,5.52-16,125.49,125.49,0,0,0,5-31.63,97.76,97.76,0,0,0-1-15.05,83.78,83.78,0,0,0-3.46-14,73.46,73.46,0,0,0-13.42-23h0a43.17,43.17,0,0,0-7.92-8.7,45.1,45.1,0,0,0-19.2-9.57l-2.48-.42a18.74,18.74,0,0,0-2.45-.34l-2.43-.16a19.14,19.14,0,0,0-2.39-.07c-1.57.08-3.12.1-4.64.21l-4.46.49-4.25.64c-1.37.28-2.73.52-4,.83a63,63,0,0,0-13.7,5.06,97.32,97.32,0,0,1-10.67,4.57c-1.58.57-3.06,1-4.41,1.41s-2.59.69-3.69,1c-2.2.59-3.91.87-5,1.13l-1.71.34,1.7-.39c1.13-.26,2.83-.56,5-1.16,1.1-.3,2.35-.57,3.69-1s2.82-.84,4.39-1.42A97.89,97.89,0,0,0,266,216.7a63.11,63.11,0,0,1,13.72-5.11c1.31-.32,2.67-.56,4-.85l4.26-.65,4.47-.49c1.52-.12,3.08-.14,4.66-.22a17.53,17.53,0,0,1,2.4.06l2.44.16a20.9,20.9,0,0,1,2.47.33l2.5.42a45.55,45.55,0,0,1,19.33,9.6,43.92,43.92,0,0,1,8,8.76v0a73.63,73.63,0,0,1,13.51,23.1,84.65,84.65,0,0,1,3.49,14,97.36,97.36,0,0,1,1,15.11,125.33,125.33,0,0,1-4.94,31.74,158.33,158.33,0,0,1-5.51,16.08,143.11,143.11,0,0,1-7.5,15.9l0-.11q0,14.64-.74,30c-.47,10.22-1.16,20.67-2.3,31.3-.31,2.65-.56,5.32-1,8s-.71,5.36-1.21,8l-.69,4-.87,4c-.51,2.7-1.37,5.34-2.08,8a138.37,138.37,0,0,1-5.95,15.7,67.32,67.32,0,0,1-8.8,14.63,28.78,28.78,0,0,1-6.41,5.84A14.24,14.24,0,0,1,291.68,476a17.45,17.45,0,0,1-4.09-1.73,10.61,10.61,0,0,1-3.18-3.15,12.53,12.53,0,0,1-1.51-4.23,57.63,57.63,0,0,1-.36-8.9l-.09-8.93c-.07-6-.33-12-1-18a119.5,119.5,0,0,0-3.17-17.92,76.54,76.54,0,0,0-2.85-8.72,56,56,0,0,0-4-8.28,44.12,44.12,0,0,0-5.54-7.37,31.6,31.6,0,0,0-25.33-9.61h0l-.41,0A34.71,34.71,0,0,0,222,382.88a34.08,34.08,0,0,0-7.35,5.61c-.56.54-1,1.15-1.56,1.72l-.76.86c-.24.3-.46.62-.7.93l-1.37,1.86-1.23,2c-.43.64-.78,1.32-1.15,2s-.74,1.34-1.07,2c-.63,1.4-1.32,2.77-1.85,4.22a76.59,76.59,0,0,0-2.89,8.71,120,120,0,0,0-3.22,17.93c-.65,6-.93,12-1,18l-.09,8.94a60.48,60.48,0,0,1-.32,8.92,12.75,12.75,0,0,1-1.42,4.26,10.28,10.28,0,0,1-3.11,3.22,16.93,16.93,0,0,1-2,1.05,20.12,20.12,0,0,1-2.09.76,16.53,16.53,0,0,1-4.36.8,14.87,14.87,0,0,1-8.36-2.45,27.94,27.94,0,0,1-6.46-5.8,66,66,0,0,1-8.86-14.62,138.73,138.73,0,0,1-6-15.71c-.38-1.34-.75-2.68-1.12-4-.18-.66-.38-1.33-.54-2l-.43-2-.87-4c-.24-1.35-.47-2.7-.7-4-.5-2.68-.85-5.37-1.22-8.05s-.66-5.35-1-8c-1.14-10.64-1.83-21.11-2.3-31.35S146,354.3,146,344.52l0,.11a141.82,141.82,0,0,1-7.48-15.88A159.88,159.88,0,0,1,133,312.68a126.12,126.12,0,0,1-5-31.74,98.87,98.87,0,0,1,1-15.13,84.77,84.77,0,0,1,3.49-14.06,73.54,73.54,0,0,1,13.52-23.1l0,0a45.35,45.35,0,0,1,17.3-14.83,44.82,44.82,0,0,1,9.91-3.51c1.68-.26,3.32-.61,4.95-.77l2.44-.15a19.15,19.15,0,0,1,2.39-.08c1.59.07,3.14.11,4.67.21l4.46.49,4.26.65c1.38.27,2.73.53,4.05.83a63,63,0,0,1,13.75,5.09,96.59,96.59,0,0,0,10.67,4.62c1.58.59,3.06,1,4.42,1.44s2.6.72,3.7,1c2.21.61,3.92.91,5.06,1.18Z" style="fill:#263238"></path><path d="M193.54,274.66l5.28,2.16a1.56,1.56,0,0,1,0,2.91l-5.34,2a1.62,1.62,0,0,0-.89.87l-2.16,5.28a1.56,1.56,0,0,1-2.91,0l-2-5.34a1.62,1.62,0,0,0-.87-.89l-5.28-2.16a1.56,1.56,0,0,1,0-2.91l5.34-2a1.57,1.57,0,0,0,.9-.87l2.16-5.28a1.56,1.56,0,0,1,2.91,0l2,5.34A1.58,1.58,0,0,0,193.54,274.66Z" style="fill:#fff"></path><path d="M187.31,332c-16.44-23.69-20.13-55.71-9.51-82.52,1.4-3.54,3-7.08,3.21-10.88v-.12c.19-6.14-7.81-8.7-11.4-3.71-10.16,14.13-16.34,31.74-16.39,48.91a83.85,83.85,0,0,0,21.19,55.63c2.59,2.89,5.59,5.72,9.66,6a6.23,6.23,0,0,0,6-3.11C191.85,338.78,189.42,335.07,187.31,332Z" style="fill:#fff"></path><path d="M305.1,209.81a4.35,4.35,0,0,1,1.66,0,12.77,12.77,0,0,1,3.87,1.08,11.58,11.58,0,0,1,3.33,2.26c.75.73,1,1.33,1,1.36s-.44-.46-1.22-1.09a14.67,14.67,0,0,0-3.3-2A25.62,25.62,0,0,0,305.1,209.81Z" style="fill:#ff9a6c"></path><path d="M329,288.25a4.17,4.17,0,0,0-8-.32,82.54,82.54,0,0,1-79.28,55.21,4.07,4.07,0,0,0-2.59,7.27l.12.09a18,18,0,0,0,6.73,3.08,70.1,70.1,0,0,0,81.1-44.75C329.45,302.34,330.57,294.79,329,288.25Z" style="fill:#fff"></path></g><g id="freepik--Shield--inject-440"><path d="M288.49,48.33,246.17,32.74,204.25,48.12c-5.35,2.59-10,4.14-10,9.25V82.83A98,98,0,0,0,208,133.5a86.7,86.7,0,0,0,38.56,34.93c17.13-5.71,29.92-20.92,37.74-33.94a98.11,98.11,0,0,0,13.81-50.66V60.93C298.13,53.64,294.36,50.08,288.49,48.33Z" style="fill:#2179C2"></path><g style="opacity:0.8"><path d="M288.49,48.33,246.17,32.74,204.25,48.12c-5.35,2.59-10,4.14-10,9.25V82.83A98,98,0,0,0,208,133.5a86.7,86.7,0,0,0,38.56,34.93c17.13-5.71,29.92-20.92,37.74-33.94a98.11,98.11,0,0,0,13.81-50.66V60.93C298.13,53.64,294.36,50.08,288.49,48.33Z" style="fill:#fff"></path></g><path d="M298,153.39l.53-.7c.08-.12.18-.24.29-.39s.19-.32.3-.51a7.84,7.84,0,0,0,.66-1.33c.11-.26.23-.53.34-.83l.26-1a6.74,6.74,0,0,0,.22-1.07,10.5,10.5,0,0,0,.16-1.18,22,22,0,0,0-.26-5.67,50.66,50.66,0,0,0-5.21-14.68,114.86,114.86,0,0,0-11.19-17.41A179.58,179.58,0,0,0,267.4,89.91a204.9,204.9,0,0,0-21.92-18.7c-4.09-3-8.4-5.92-12.95-8.67A126.33,126.33,0,0,0,218.14,55a67.2,67.2,0,0,0-16-5,28.09,28.09,0,0,0-8.54-.21A15.68,15.68,0,0,0,189.47,51a10.28,10.28,0,0,0-5.59,6.26,16,16,0,0,0-.72,4.23,28,28,0,0,0,1.18,8.46,67.39,67.39,0,0,0,6.8,15.34,125.75,125.75,0,0,0,9.14,13.44c3.24,4.21,6.63,8.16,10.09,11.89a203.14,203.14,0,0,0,21.08,19.64A177.37,177.37,0,0,0,252,144.67a114.61,114.61,0,0,0,18.57,9.14,51.12,51.12,0,0,0,15.18,3.51,22.56,22.56,0,0,0,5.66-.39,9.82,9.82,0,0,0,1.16-.3,6.54,6.54,0,0,0,1-.34l.92-.37c.29-.14.54-.29.79-.42a7.74,7.74,0,0,0,1.25-.82,4.79,4.79,0,0,0,.47-.35l.35-.34.64-.6s-.2.22-.61.63l-.35.34c-.14.12-.3.23-.47.36a7.61,7.61,0,0,1-1.24.83c-.25.14-.51.3-.79.44l-.93.38a6.35,6.35,0,0,1-1,.35,9.65,9.65,0,0,1-1.15.31,22.79,22.79,0,0,1-5.7.42A50.84,50.84,0,0,1,270.48,154a113.9,113.9,0,0,1-18.63-9.11,178.87,178.87,0,0,1-20.58-14.44,203.59,203.59,0,0,1-21.13-19.65c-3.46-3.73-6.86-7.69-10.12-11.9a126.31,126.31,0,0,1-9.16-13.47A67.74,67.74,0,0,1,184,70a28.65,28.65,0,0,1-1.19-8.56,16.45,16.45,0,0,1,.74-4.33,12.07,12.07,0,0,1,2.2-3.84,11.74,11.74,0,0,1,3.57-2.61,16.4,16.4,0,0,1,4.21-1.23,28.73,28.73,0,0,1,8.64.22,67.45,67.45,0,0,1,16.09,5,127,127,0,0,1,14.43,7.57c4.55,2.76,8.87,5.68,13,8.7a204.16,204.16,0,0,1,21.92,18.75,177.62,177.62,0,0,1,16.69,18.81A113.7,113.7,0,0,1,295.45,126a50.74,50.74,0,0,1,5.17,14.74,22.12,22.12,0,0,1,.23,5.7,10.65,10.65,0,0,1-.17,1.19,6.73,6.73,0,0,1-.23,1.07c-.09.34-.19.66-.27,1s-.24.58-.34.84a8.17,8.17,0,0,1-.69,1.33c-.11.18-.2.36-.3.51l-.31.38C298.18,153.17,298,153.39,298,153.39Z" style="fill:#2179C2"></path><path d="M318.71,103.4s0-.3-.08-.88c0-.14,0-.3,0-.48s-.08-.37-.12-.58a7.65,7.65,0,0,0-.39-1.44c-.09-.26-.18-.55-.3-.84l-.44-.89a7.74,7.74,0,0,0-.55-1c-.22-.31-.4-.67-.66-1a22.13,22.13,0,0,0-4-4.07,51.13,51.13,0,0,0-13.67-7.48,114.75,114.75,0,0,0-19.94-5.54,177.37,177.37,0,0,0-24.93-2.88,204.24,204.24,0,0,0-28.81.63c-5.05.48-10.21,1.17-15.43,2.15a125.25,125.25,0,0,0-15.76,4A67.18,67.18,0,0,0,178.33,90a28.22,28.22,0,0,0-6.51,5.53,15.77,15.77,0,0,0-2.29,3.63,10.33,10.33,0,0,0,0,8.39,15.59,15.59,0,0,0,2.28,3.64,28,28,0,0,0,6.51,5.53,67.22,67.22,0,0,0,15.29,6.92,125.68,125.68,0,0,0,15.76,4c5.23,1,10.39,1.67,15.44,2.15a204.24,204.24,0,0,0,28.81.63,177.52,177.52,0,0,0,24.94-2.88A115.26,115.26,0,0,0,298.5,122a51.21,51.21,0,0,0,13.66-7.48,22.13,22.13,0,0,0,4-4.07,11.22,11.22,0,0,0,.66-1,6.64,6.64,0,0,0,.55-1l.44-.89c.12-.29.21-.58.3-.84a7.65,7.65,0,0,0,.39-1.44c0-.21.09-.4.12-.58s0-.34,0-.48c0-.58.08-.87.08-.87s0,.29,0,.87c0,.15,0,.31,0,.49s-.07.37-.11.58a7.36,7.36,0,0,1-.37,1.45c-.1.27-.19.56-.3.85l-.44.9a7.21,7.21,0,0,1-.54,1c-.22.31-.4.67-.66,1a22.56,22.56,0,0,1-4,4.11,51.12,51.12,0,0,1-13.67,7.56,114.31,114.31,0,0,1-20,5.59,176,176,0,0,1-25,2.93,203.15,203.15,0,0,1-28.85-.6c-5.06-.47-10.23-1.17-15.47-2.14a125,125,0,0,1-15.8-4A67.38,67.38,0,0,1,178.14,117a28.85,28.85,0,0,1-6.59-5.6,16.27,16.27,0,0,1-2.33-3.72,11.91,11.91,0,0,1-.92-4.33,12.08,12.08,0,0,1,.92-4.33,16.67,16.67,0,0,1,2.34-3.72,28.81,28.81,0,0,1,6.59-5.59,67.51,67.51,0,0,1,15.36-6.94,124.68,124.68,0,0,1,15.81-4c5.23-1,10.4-1.67,15.46-2.15a204.64,204.64,0,0,1,28.85-.6,177.66,177.66,0,0,1,25,2.93,113.94,113.94,0,0,1,20,5.59,51.2,51.2,0,0,1,13.68,7.56,22.56,22.56,0,0,1,4,4.11c.26.32.44.68.66,1a7.64,7.64,0,0,1,.54,1c.15.32.3.62.44.9s.2.58.3.85a7.54,7.54,0,0,1,.37,1.45c0,.21.09.4.11.58s0,.34,0,.49C318.7,103.1,318.71,103.4,318.71,103.4Z" style="fill:#2179C2"></path><path d="M291.26,41.16l-.74-.47-.4-.27c-.16-.09-.34-.17-.53-.26a7.56,7.56,0,0,0-1.38-.57l-.85-.28-1-.2A7.37,7.37,0,0,0,285.3,39a10.88,10.88,0,0,0-1.18-.09,22.63,22.63,0,0,0-5.65.65,51,51,0,0,0-14.28,6.22,115,115,0,0,0-16.6,12.36,179.05,179.05,0,0,0-17.55,18,202.13,202.13,0,0,0-17.15,23.15c-2.72,4.28-5.33,8.79-7.76,13.52a125.41,125.41,0,0,0-6.53,14.87,67,67,0,0,0-3.91,16.32,28.76,28.76,0,0,0,.38,8.53,16.12,16.12,0,0,0,1.48,4,11.77,11.77,0,0,0,2.76,3.28,11.92,11.92,0,0,0,3.86,1.87,16.21,16.21,0,0,0,4.28.42,28.4,28.4,0,0,0,8.36-1.75,67.54,67.54,0,0,0,14.83-7.85,125.73,125.73,0,0,0,12.78-10c4-3.53,7.69-7.18,11.16-10.88a203.56,203.56,0,0,0,18.15-22.39,178.2,178.2,0,0,0,13-21.47,114,114,0,0,0,7.84-19.15A51,51,0,0,0,296,53.14a22.32,22.32,0,0,0-.77-5.63,10.68,10.68,0,0,0-.38-1.13,7.1,7.1,0,0,0-.41-1l-.44-.89c-.15-.28-.32-.52-.47-.76a8.36,8.36,0,0,0-.9-1.19c-.14-.16-.26-.32-.39-.45l-.36-.32-.64-.6.67.57.37.32.39.45a7.7,7.7,0,0,1,.91,1.18c.16.24.33.49.49.76s.29.58.44.9a6.67,6.67,0,0,1,.43,1,11.51,11.51,0,0,1,.38,1.13,21.93,21.93,0,0,1,.81,5.65,50.79,50.79,0,0,1-2.4,15.44,114.19,114.19,0,0,1-7.81,19.21,178.4,178.4,0,0,1-13,21.53,203.63,203.63,0,0,1-18.15,22.43c-3.48,3.71-7.2,7.37-11.18,10.91a123.76,123.76,0,0,1-12.8,10.07,67.59,67.59,0,0,1-14.91,7.89,28.57,28.57,0,0,1-8.46,1.78,16.56,16.56,0,0,1-4.37-.44,10.54,10.54,0,0,1-6.84-5.31,16.44,16.44,0,0,1-1.51-4.12,28.8,28.8,0,0,1-.38-8.63,67.39,67.39,0,0,1,3.93-16.4,123.82,123.82,0,0,1,6.56-14.91c2.43-4.74,5.05-9.25,7.78-13.54a203.5,203.5,0,0,1,17.2-23.17,178.07,178.07,0,0,1,17.61-17.94,115.16,115.16,0,0,1,16.65-12.35,51,51,0,0,1,14.36-6.17,22.22,22.22,0,0,1,5.67-.63c.42,0,.81.07,1.19.09a7.14,7.14,0,0,1,1.09.16l1,.21c.31.09.59.19.86.28a8.52,8.52,0,0,1,1.37.59l.53.27.4.28Z" style="fill:#2179C2"></path><circle cx="165.68" cy="136.37" r="2.79" style="fill:#2179C2"></circle><path d="M325.05,48a2.79,2.79,0,1,1-2.79-2.79A2.78,2.78,0,0,1,325.05,48Z" style="fill:#2179C2"></path><path d="M185.27,143.57a.71.71,0,1,1-.71-.71A.71.71,0,0,1,185.27,143.57Z" style="fill:#2179C2"></path><path d="M200.4,65.4a.71.71,0,1,1-.71-.71A.71.71,0,0,1,200.4,65.4Z" style="fill:#2179C2"></path><path d="M311,103.4a.71.71,0,1,1-.71-.71A.71.71,0,0,1,311,103.4Z" style="fill:#2179C2"></path><path d="M320.89,70.34a.71.71,0,1,1-.71-.71A.71.71,0,0,1,320.89,70.34Z" style="fill:#2179C2"></path><path d="M246.1,75c6.65-1.39,5.73-3.15,12.27-3.83a10.56,10.56,0,0,1,9.76,4.38c9.65,10.8.35,27.24.35,27.24s.23,15.3-1.82,22c-1.9,6.26-4.54,9.69-7.44,9.06s-2.4-2.56-2.5-4.93.41-18.37-10.17-17.8h-.18c-10.58-.31-9.66,15.67-9.7,18s.5,4.29-2.38,5-5.61-2.67-7.67-8.87c-2.22-6.67-2.38-22-2.38-22s-9.71-16.2-.34-27.24a10.57,10.57,0,0,1,9.65-4.63c6.55.51,5.68,2.3,12.37,3.52" style="fill:#fff"></path><path d="M245.92,75a15.54,15.54,0,0,1-1.61-.3,19.55,19.55,0,0,1-4.48-1.56A14.62,14.62,0,0,0,236.59,72a19.62,19.62,0,0,0-4.07-.43A10.41,10.41,0,0,0,224,76.18h0A17.14,17.14,0,0,0,221,81.62a19.86,19.86,0,0,0-.94,6.8,33.74,33.74,0,0,0,4.41,14.81l0,0v.06c.1,4.59.33,9.42.92,14.4a43.79,43.79,0,0,0,1.47,7.5,21.79,21.79,0,0,0,3.53,7,4.33,4.33,0,0,0,3.27,1.79,3.92,3.92,0,0,0,1.81-.59,2.08,2.08,0,0,0,.91-1.56c.11-2.69-.08-5.58.22-8.42a20.53,20.53,0,0,1,2.33-8.38,8.65,8.65,0,0,1,3.13-3.2,8.51,8.51,0,0,1,4.42-1h.07a8.46,8.46,0,0,1,4.42.92,7.85,7.85,0,0,1,1.81,1.37,10.27,10.27,0,0,1,1.38,1.77,21,21,0,0,1,2.51,8.32c.37,2.83.23,5.73.43,8.4a2.14,2.14,0,0,0,1,1.52,4.08,4.08,0,0,0,1.83.5,4.36,4.36,0,0,0,3.21-1.9,22.26,22.26,0,0,0,3.33-7.07,43.61,43.61,0,0,0,1.27-7.52c.46-5,.57-9.82.55-14.4v-.06l0,0a33.62,33.62,0,0,0,4-14.92A19.91,19.91,0,0,0,271.21,81,17.08,17.08,0,0,0,268,75.65h0a10.38,10.38,0,0,0-8.63-4.39,20,20,0,0,0-4.07.54A14.64,14.64,0,0,0,252.11,73a20.13,20.13,0,0,1-4.42,1.66c-1,.26-1.59.34-1.59.34s.13,0,.39-.12.66-.15,1.18-.3A20.65,20.65,0,0,0,252,72.84a15.22,15.22,0,0,1,3.22-1.26,21,21,0,0,1,4.12-.59,10.67,10.67,0,0,1,8.9,4.47l0,0a17.52,17.52,0,0,1,3.29,5.43,20.09,20.09,0,0,1,1.16,6.89,33.8,33.8,0,0,1-4,15.13l0-.11c0,4.6-.07,9.44-.52,14.46a43.69,43.69,0,0,1-1.28,7.61,22.56,22.56,0,0,1-3.41,7.25,7.44,7.44,0,0,1-1.53,1.43,3.71,3.71,0,0,1-2.06.66,4.49,4.49,0,0,1-2.09-.58,2.58,2.58,0,0,1-.82-.79,3.12,3.12,0,0,1-.4-1.06,14.08,14.08,0,0,1-.11-2.13c0-.7,0-1.4-.05-2.1,0-1.4-.12-2.81-.29-4.21a20.37,20.37,0,0,0-2.44-8.11,10,10,0,0,0-1.29-1.68,7.35,7.35,0,0,0-5.84-2.13h-.12a7.94,7.94,0,0,0-4.14.91,8.09,8.09,0,0,0-2.94,3,20.26,20.26,0,0,0-2.27,8.16c-.3,2.84-.1,5.6-.23,8.46a3.26,3.26,0,0,1-.34,1.07,2.51,2.51,0,0,1-.79.83,4.37,4.37,0,0,1-2.07.67,3.6,3.6,0,0,1-2.08-.58,7,7,0,0,1-1.58-1.38,22.1,22.1,0,0,1-3.62-7.16,42.88,42.88,0,0,1-1.47-7.59,144.43,144.43,0,0,1-.89-14.46l0,.11a33.8,33.8,0,0,1-4.42-15,20.41,20.41,0,0,1,1-6.93A17.48,17.48,0,0,1,223.78,76l0,0a10.68,10.68,0,0,1,8.75-4.69,20,20,0,0,1,4.13.48A14.92,14.92,0,0,1,239.9,73a20.77,20.77,0,0,0,4.43,1.64c.51.14.92.21,1.18.28Z" style="fill:#263238"></path></g><g id="freepik--speech-bubble--inject-440"><path d="M422.84,117.44l7.51-1.42a24.34,24.34,0,1,0-5.74-6.56h0Z" style="fill:#fff"></path><path d="M422.84,117.44l.09-.5.31-1.51,1.25-6a.11.11,0,0,1,.13-.09l.06,0h0l-.18.14A24.29,24.29,0,0,1,421,98a23.5,23.5,0,0,1,.93-7.77,24.24,24.24,0,0,1,11.15-14.4,24.41,24.41,0,0,1,30.6,4.77A24.13,24.13,0,0,1,469.23,91a24.93,24.93,0,0,1,.17,11.26,24.45,24.45,0,0,1-4.5,9.6,24.53,24.53,0,0,1-23.7,9.19,24.25,24.25,0,0,1-10.92-5l.09,0-5.63,1-1.43.25-.47.07.51-.12,1.45-.29,5.53-1.12a.1.1,0,0,1,.09,0,24.17,24.17,0,0,0,34.1-4.34,23.91,23.91,0,0,0,4.39-9.42,24.5,24.5,0,0,0-.18-11A23.74,23.74,0,0,0,463.3,81a24,24,0,0,0-41,9.38,23.68,23.68,0,0,0-1,7.65,24.25,24.25,0,0,0,3.36,11.41.13.13,0,0,1,0,.16.12.12,0,0,1-.14,0h0l.19,0c-.59,2.55-1,4.52-1.37,5.89q-.22,1-.36,1.53C422.9,117.25,422.84,117.44,422.84,117.44Z" style="fill:#263238"></path><polygon points="444.05 107.28 431.43 97.96 434.68 93.56 443.14 99.81 454.69 85.94 458.89 89.44 444.05 107.28" style="fill:#2179C2"></polygon></g><g id="freepik--Character--inject-440"><path d="M426.6,172.6,428.45,202l-10.94-17.2-22.76-.43,5,9.07a169.33,169.33,0,0,0,16.8,22.1,65.39,65.39,0,0,0,8.85,8.13c3.77,2.69,8.77,5,13.76.72,7-5.9,4.79-15.28,2.73-27-2.3-13.05-3.45-25.63-3.45-25.63Z" style="fill:#ffbf9d"></path><path d="M429.45,156.15s-2.06-4.07-3.73-3.72-3.93,1.82-4.22,3.17.07,2.59.7,2.54a10.21,10.21,0,0,0,2.48-1.24l2.1,3-1,3.78-2.23,1.12-1.26-2.66.55-3s-1.49-1.29-2.36,1.09-1.87,6.69.52,8.8a72.88,72.88,0,0,0,6.91,5l10.9-.83,2.73-12.8s4.39-4.38,4.69-6.17.58-7.32.58-7.32a1.3,1.3,0,0,0-2.06.53,33.28,33.28,0,0,0-1.54,6l-3.66,3.47,1.57-15.7s-2.17-1.44-3.1,2.08-2,12.25-2.43,12.24-1.77,0-1.56-1.84-.26-15.82-.26-15.82-3.15.65-3,3.61,0,12.22-.1,12.92S429.45,156.15,429.45,156.15Z" style="fill:#ffbf9d"></path><path d="M430,213.28a23.81,23.81,0,0,1-1.28-5.59,24.33,24.33,0,0,1-.43-5.71,46.65,46.65,0,0,1,.95,5.63A46.45,46.45,0,0,1,430,213.28Z" style="fill:#ff9a6c"></path><path d="M432.4,169.55c-.08,0-.24-.44-.62-1.09a7.31,7.31,0,0,0-1.93-2.16,7.12,7.12,0,0,0-2.64-1.22c-.73-.18-1.21-.19-1.21-.28a2.36,2.36,0,0,1,1.28-.09,6.22,6.22,0,0,1,4.83,3.58A2.28,2.28,0,0,1,432.4,169.55Z" style="fill:#ff9a6c"></path><path d="M413.25,439.55l5.92,24.19,10.19,17.8a2.54,2.54,0,0,1-1.1,3.56h0a2.55,2.55,0,0,1-2.33-.05c-4.62-2.54-21.56-11.94-21.89-13.74-.39-2.08-7.94-25.11-7.94-25.11Z" style="fill:#455a64"></path><path d="M428.26,485.1,403.6,469.69l.27,1a3.88,3.88,0,0,0,1.53,2.17c2,1.38,7.64,5.08,20.45,12.19a2.57,2.57,0,0,0,2.41,0Z" style="fill:#263238"></path><g style="opacity:0.6000000000000001"><path d="M406.45,460.6a1.53,1.53,0,0,1,.93,1.84,1.48,1.48,0,0,1-1.81.94,1.64,1.64,0,0,1-1-1.95,1.54,1.54,0,0,1,2-.77" style="fill:#fff"></path></g><path d="M419.94,476.07a7.69,7.69,0,0,1,1.61-2.44,7.87,7.87,0,0,1,2.62-1.28c0-.06-.35-.16-.93-.09a3.87,3.87,0,0,0-2.05,1,4,4,0,0,0-1.23,1.91C419.82,475.7,419.87,476.06,419.94,476.07Z" style="fill:#fff"></path><path d="M422.52,478.83c.14.07.7-.92,1.85-1.61a19.06,19.06,0,0,1,2.27-.93,2.85,2.85,0,0,0-2.56.47C422.78,477.55,422.38,478.8,422.52,478.83Z" style="fill:#fff"></path><path d="M415.64,472.8a24.38,24.38,0,0,1,2.69-2.68,24,24,0,0,1,3.35-1.79,5.65,5.65,0,0,0-3.67,1.35A5.71,5.71,0,0,0,415.64,472.8Z" style="fill:#fff"></path><path d="M413.23,465.59c.1.13,1.28-.79,3-1.31s3.2-.48,3.21-.65a5,5,0,0,0-3.37.12A5,5,0,0,0,413.23,465.59Z" style="fill:#fff"></path><path d="M411.31,458.53a12.51,12.51,0,0,1,3.08-1.45,12.73,12.73,0,0,1,3.41-.06c0-.06-.32-.29-1-.46a5.58,5.58,0,0,0-4.87,1.13C411.47,458.13,411.26,458.49,411.31,458.53Z" style="fill:#fff"></path><path d="M414,455.75a2.13,2.13,0,0,0-.21-.92,6.49,6.49,0,0,0-1.37-2.19,2.89,2.89,0,0,0-1.56-1,1,1,0,0,0-1.06.53,1.61,1.61,0,0,0-.08,1.18,3.61,3.61,0,0,0,3.92,2.41,4.2,4.2,0,0,0,3.4-3.18,1.44,1.44,0,0,0-.25-1.19,1,1,0,0,0-1.16-.24,3.62,3.62,0,0,0-1.36,1.25,7.45,7.45,0,0,0-1.14,2.31,2.07,2.07,0,0,0-.14.93,11.6,11.6,0,0,1,1.59-3,3.16,3.16,0,0,1,1.21-1.06.53.53,0,0,1,.63.12,1,1,0,0,1,.12.79,3.72,3.72,0,0,1-3,2.72,3.13,3.13,0,0,1-3.36-2,1.23,1.23,0,0,1,0-.83.54.54,0,0,1,.58-.29,2.6,2.6,0,0,1,1.34.83A9.48,9.48,0,0,1,414,455.75Z" style="fill:#fff"></path><path d="M378.52,440.18l-4.15,24.54-8.89,18.45a2.55,2.55,0,0,0,1.35,3.47h0a2.54,2.54,0,0,0,2.33-.22c4.42-2.85,20.62-13.44,20.82-15.25.24-2.1,6.1-25.59,6.1-25.59Z" style="fill:#455a64"></path><path d="M366.83,486.64l23.47-17.12-.2,1a3.77,3.77,0,0,1-1.37,2.27c-1.9,1.53-7.25,5.62-19.5,13.62a2.56,2.56,0,0,1-2.4.2Z" style="fill:#263238"></path><g style="opacity:0.6000000000000001"><path d="M386.81,460.67a1.54,1.54,0,0,0-.8,1.9,1.49,1.49,0,0,0,1.88.8,1.63,1.63,0,0,0,.83-2,1.54,1.54,0,0,0-2-.62" style="fill:#fff"></path></g><path d="M374.48,477.05a7.8,7.8,0,0,0-1.78-2.32,7.72,7.72,0,0,0-2.71-1.08c0-.06.34-.19.93-.16a3.87,3.87,0,0,1,2.11.81,4,4,0,0,1,1.36,1.81C374.57,476.67,374.54,477,374.48,477.05Z" style="fill:#fff"></path><path d="M372.11,480c-.14.09-.77-.86-2-1.47a20.32,20.32,0,0,0-2.33-.76,2.83,2.83,0,0,1,2.58.28C371.76,478.73,372.25,479.94,372.11,480Z" style="fill:#fff"></path><path d="M378.53,473.48a24.58,24.58,0,0,0-2.88-2.47,26.51,26.51,0,0,0-3.46-1.55,5.75,5.75,0,0,1,3.76,1.09A5.63,5.63,0,0,1,378.53,473.48Z" style="fill:#fff"></path><path d="M380.41,466.13c-.09.13-1.33-.69-3.07-1.1s-3.22-.25-3.24-.41a4.94,4.94,0,0,1,3.36-.12A4.89,4.89,0,0,1,380.41,466.13Z" style="fill:#fff"></path><path d="M381.82,459a8.07,8.07,0,0,0-6.57-1c0-.06.29-.31.92-.53a5.52,5.52,0,0,1,2.56-.2,5.43,5.43,0,0,1,2.37,1C381.63,458.57,381.86,458.91,381.82,459Z" style="fill:#fff"></path><path d="M379,456.38a2.25,2.25,0,0,1,.14-.93,6.52,6.52,0,0,1,1.21-2.28,2.92,2.92,0,0,1,1.48-1.13,1,1,0,0,1,1.09.45,1.64,1.64,0,0,1,.17,1.18,3.6,3.6,0,0,1-3.73,2.67,4.19,4.19,0,0,1-3.62-2.92,1.47,1.47,0,0,1,.17-1.2,1,1,0,0,1,1.13-.33,3.67,3.67,0,0,1,1.45,1.15,7.39,7.39,0,0,1,1.3,2.22,2.34,2.34,0,0,1,.21.92,11.91,11.91,0,0,0-1.8-2.88,3.31,3.31,0,0,0-1.29-1,.54.54,0,0,0-.62.17,1,1,0,0,0-.06.8,3.75,3.75,0,0,0,3.17,2.5,3.14,3.14,0,0,0,3.2-2.23,1.2,1.2,0,0,0-.09-.83.55.55,0,0,0-.6-.25,2.59,2.59,0,0,0-1.27.93A9.55,9.55,0,0,0,379,456.38Z" style="fill:#fff"></path><path d="M405.61,241.57s25.14,21.63,24.85,52.91-13.15,47.65-20.17,85.95-14.87,80.12-14.87,80.12L373,455.77s5.73-61,6.31-82.06,5.26-77.83,5.26-77.83l-9.65-37.65Z" style="fill:#263238"></path><path d="M351,259.81s-6.88,37.68,5.09,70.13c10.59,28.74,41.07,130.57,41.07,130.57l21.42-6.4-15-70.8S387.49,295.88,386,295.88s-11.12-37.65-11.12-37.65Z" style="fill:#263238"></path><path d="M384.12,289.72a8.93,8.93,0,0,1-2.23-.44c-1.35-.36-3.21-.93-5.22-1.67s-3.78-1.52-5.05-2.13a9,9,0,0,1-2-1.11,10.71,10.71,0,0,1,2.13.77c1.3.53,3.09,1.24,5.08,2s3.82,1.36,5.15,1.8A11.52,11.52,0,0,1,384.12,289.72Z" style="fill:#455a64"></path><path d="M396.43,278.94s-.18.25-.55.73l-1.66,2.11-6.48,8.12,0,0L374.85,437.71q-.81,9.18-1.6,18.08l-.2-.27,22.42,4.78-.3.2c7.44-39,13.76-72.09,17.81-93.33h0c2.4-8,4.28-14.32,5.57-18.64q1-3.21,1.48-4.91c.17-.54.3-1,.4-1.25s.14-.42.14-.42,0,.14-.11.43l-.35,1.27c-.33,1.13-.8,2.78-1.42,4.93-1.26,4.32-3.1,10.64-5.43,18.67v0c-4,21.25-10.25,54.39-17.59,93.37l-.05.26-.25-.06L372.94,456l-.23,0,0-.22q.79-8.91,1.6-18.09c5.91-66.06,11-122.87,13.22-147.83v0l0,0,6.56-8.06,1.71-2.08C396.22,279.17,396.43,278.94,396.43,278.94Z" style="fill:#455a64"></path><polygon points="349.46 161.6 361.13 160.26 385.39 163.4 396.53 168.49 381.41 181.31 361.61 177.95 352.9 172.49 349.46 161.6" style="fill:#ffbf9d"></polygon><path d="M369.52,96c5.57-.94,10.47,1.2,15.17,4.34A28,28,0,0,1,395,113.52,27.61,27.61,0,0,1,396,131a22.09,22.09,0,0,1-10.88,13.54c-7.25,3.68-16.52,2.4-23-2.51s-10.2-13-10.51-21.13a26.92,26.92,0,0,1,4.25-16A20.48,20.48,0,0,1,369.52,96" style="fill:#263238"></path><path d="M385.36,115c-.81-2.14-.49-4.52-.82-6.78-.71-5-4.72-9-9.35-10.9-4.32-1.81-9.58-1.41-14.78.27a19.88,19.88,0,0,0-9.29,6.05,15.62,15.62,0,0,0-2.87,14l25.46-3.7a28.37,28.37,0,0,0,7.71,5.07,5.22,5.22,0,0,0,2.66.43,2.38,2.38,0,0,0,2-1.64C386.29,116.85,385.72,115.9,385.36,115Z" style="fill:#263238"></path><path d="M359.87,104.6l22.22,4.7a4.17,4.17,0,0,1,3.88,4.07l-.27,48.1a15,15,0,0,1-3.13,9.07l-2.12,2.73c-4.84,6.23-14.63,5.61-18.32-1.36a5.52,5.52,0,0,1-.51-1.26c-.07-.44-.19-.72-.21-1.09l-.42-4.69c-.22-4.28-.25-8.63-.25-8.59s-9.1-1.15-11.43-12.87c-1.15-5.83-1.23-15.46-1-23.33C348.44,113,352.79,104.12,359.87,104.6Z" style="fill:#ffbf9d"></path><path d="M353.16,129.1a1.51,1.51,0,0,0,1.52,1.47,1.44,1.44,0,0,0,1.5-1.42,1.51,1.51,0,0,0-1.51-1.47A1.45,1.45,0,0,0,353.16,129.1Z" style="fill:#263238"></path><path d="M350.55,125c.19.19,1.3-.71,2.93-.76s2.85.7,3,.5-.12-.44-.65-.8a4.18,4.18,0,0,0-2.43-.65,4,4,0,0,0-2.33.86C350.61,124.55,350.45,124.91,350.55,125Z" style="fill:#263238"></path><path d="M367.75,128.74a1.51,1.51,0,0,0,1.51,1.47,1.45,1.45,0,0,0,1.51-1.43,1.51,1.51,0,0,0-1.52-1.47A1.45,1.45,0,0,0,367.75,128.74Z" style="fill:#263238"></path><path d="M366,124.6c.19.19,1.31-.7,2.94-.76s2.85.71,3,.5-.12-.44-.66-.8a4.16,4.16,0,0,0-2.43-.64,4,4,0,0,0-2.33.85C366.06,124.15,365.9,124.52,366,124.6Z" style="fill:#263238"></path><path d="M361.12,137a10.51,10.51,0,0,0-2.66-.38c-.42,0-.82-.09-.9-.37a2.12,2.12,0,0,1,.23-1.24c.35-1,.72-2.1,1.11-3.22,1.53-4.57,2.62-8.32,2.43-8.38s-1.57,3.6-3.1,8.17l-1.06,3.23a2.37,2.37,0,0,0-.15,1.64,1.07,1.07,0,0,0,.71.58,3.15,3.15,0,0,0,.71.07A11.13,11.13,0,0,0,361.12,137Z" style="fill:#263238"></path><path d="M360.74,156.28a30.05,30.05,0,0,0,15.63-4.83s-3.65,8.32-15.5,7.67Z" style="fill:#ff9a6c"></path><path d="M362,140.87a2.93,2.93,0,0,1,2.58-1.19,2.68,2.68,0,0,1,1.89.92,1.7,1.7,0,0,1,.2,1.94,2,2,0,0,1-2.11.62,6.34,6.34,0,0,1-2.13-1.16,2,2,0,0,1-.48-.47.53.53,0,0,1,0-.6" style="fill:#ff9a6c"></path><path d="M366,137.92c-.27,0-.2,1.76-1.66,3.07s-3.35,1.19-3.36,1.44.43.33,1.23.32a4.43,4.43,0,0,0,2.8-1.1,3.87,3.87,0,0,0,1.29-2.58C366.28,138.33,366.07,137.9,366,137.92Z" style="fill:#263238"></path><path d="M366.09,119.77c.18.44,1.8.16,3.71.32s3.49.62,3.72.21c.11-.2-.18-.6-.81-1a6.52,6.52,0,0,0-5.67-.4C366.35,119.2,366,119.56,366.09,119.77Z" style="fill:#263238"></path><path d="M350.74,117.86c.3.36,1.41-.07,2.76-.14s2.5.15,2.74-.24c.11-.19-.08-.56-.6-.89a3.81,3.81,0,0,0-2.26-.52,3.86,3.86,0,0,0-2.17.83C350.75,117.3,350.61,117.69,350.74,117.86Z" style="fill:#263238"></path><path d="M389.44,111.54c-2.31-6.77-12.37-16-19.49-15.35l-11.25,7.06a11,11,0,0,0,7.63,8.26c2,.57,4.45.69,5.68,2.4s.6,4.33,1.77,6.13c1.63,2.5,5.93,2.29,7.17,5,.54,1.19.3,2.62.86,3.79.75,1.57,4.79,3.49,6.43,2.93s1.59-3.37,2.1-4.86a7.76,7.76,0,0,0,.14-5.23C389.69,118.35,390.54,114.77,389.44,111.54Z" style="fill:#263238"></path><path d="M383.39,133.25c0-.88.9-3,1.77-3.16,2.3-.45,6.48-.42,6.75,5.46.36,8-7.78,6.74-7.81,6.51S383.5,136.28,383.39,133.25Z" style="fill:#ffbf9d"></path><path d="M386.42,138.91s.14.09.38.19a1.42,1.42,0,0,0,1.05,0c.84-.35,1.49-1.73,1.46-3.18a4.56,4.56,0,0,0-.48-2,1.6,1.6,0,0,0-1.1-1,.72.72,0,0,0-.81.42c-.1.23,0,.38-.08.4s-.18-.13-.13-.46a.92.92,0,0,1,.29-.52,1.05,1.05,0,0,1,.77-.24,2,2,0,0,1,1.52,1.18,4.69,4.69,0,0,1,.58,2.22c0,1.62-.73,3.17-1.88,3.56a1.47,1.47,0,0,1-1.29-.15C386.44,139.1,386.39,138.92,386.42,138.91Z" style="fill:#ff9a6c"></path><path d="M361,100.82c-.74,3.27-5.72,7.47-7.9,10-4.16,4.86-5,6.47-4.95,17.34-2-3.75-3.47-7.43-3.32-11.67A17.51,17.51,0,0,1,349.53,105,13.63,13.63,0,0,1,361,100.82" style="fill:#263238"></path><path d="M381.17,91.66a13.27,13.27,0,0,1,7-2.91,16.22,16.22,0,0,1,10.6,2.11,11.51,11.51,0,0,1,5.53,8.51,9.6,9.6,0,0,1-4.49,8.86,16.08,16.08,0,0,0,6.14,4.6,4.73,4.73,0,0,1-3.38,1.46,14.38,14.38,0,0,1-3.8-.46,6.56,6.56,0,0,0,3.34,3.07,12.22,12.22,0,0,1-6.18-.9,24.34,24.34,0,0,1-5.32-3.16,40.68,40.68,0,0,1-12.19-13.62A9.85,9.85,0,0,1,381.17,91.66Z" style="fill:#263238"></path><path d="M382.92,143.23a3.5,3.5,0,1,0,3.49-3.5A3.5,3.5,0,0,0,382.92,143.23Z" style="fill:#455a64"></path><path d="M392.41,109.83c-3.73-7-9-11.17-14.05-12.84" style="fill:#263238"></path><path d="M378.36,97a6.82,6.82,0,0,0,.71.3c.45.19,1.11.47,1.89.87a24.56,24.56,0,0,1,5.55,4,30.53,30.53,0,0,1,4.39,5.26c.47.74.86,1.34,1.1,1.77a4.73,4.73,0,0,0,.41.65,3.73,3.73,0,0,0-.33-.69c-.22-.45-.58-1.06-1-1.82a27.93,27.93,0,0,0-4.36-5.35A23,23,0,0,0,381,98a17.71,17.71,0,0,0-1.93-.8A3.71,3.71,0,0,0,378.36,97Z" style="fill:#455a64"></path><path d="M397.11,116l-.1,0-.3.08c-.27.09-.66.18-1.17.3a18.47,18.47,0,0,1-4.38.39,23.55,23.55,0,0,1-6.43-1.14,42.57,42.57,0,0,1-7.33-3.23c-2.5-1.36-4.85-2.74-6.93-4.07a44.69,44.69,0,0,1-5.26-3.9,28.05,28.05,0,0,1-3.09-3.15c-.34-.4-.58-.72-.75-.94l-.2-.24c0-.06-.07-.09-.07-.08a.44.44,0,0,0,0,.09l.18.26c.16.23.39.56.72,1a25.83,25.83,0,0,0,3.05,3.22,43,43,0,0,0,5.26,4c2.08,1.35,4.42,2.73,6.93,4.1a41.25,41.25,0,0,0,7.38,3.23,23.37,23.37,0,0,0,6.48,1.1,17.41,17.41,0,0,0,4.41-.47,11.46,11.46,0,0,0,1.16-.34l.3-.11Z" style="fill:#455a64"></path><path d="M391.21,165.39c.83.2,16.26,3.29,20,6.38s11.32,18.51,11.32,18.51l-17.88,16.26L402.12,201l-1.44,29.43s10.75,13.73,10.15,15.08a24.51,24.51,0,0,1-2.68,4.47A32.67,32.67,0,0,1,396,259.79c-9.43,4.49-29.52,11.65-45.82,1l-3.92-26.72s-9.57-18.12-9.57-28.4c0-2.34-.08-6,.16-10.13.84-14.13,2.92-34.73,2.92-34.73h13.79s9.44,16,21.7,13S391.21,165.39,391.21,165.39Z" style="fill:#2179C2"></path><path d="M339.77,160.86c-7.24,1.2-12.26,7.21-21.26,21.31L339.77,195Z" style="fill:#2179C2"></path><path d="M395.24,235.14a4,4,0,0,1-.83.7c-.55.42-1.37,1-2.4,1.71a87.46,87.46,0,0,1-8.37,4.95,85.1,85.1,0,0,1-8.89,4c-1.16.44-2.12.77-2.78,1a3.88,3.88,0,0,1-1.05.27,5.13,5.13,0,0,1,1-.46l2.72-1.12c2.28-1,5.42-2.35,8.78-4.09s6.3-3.48,8.41-4.79l2.49-1.57A4.37,4.37,0,0,1,395.24,235.14Z" style="fill:#263238"></path><path d="M403.82,183a3.9,3.9,0,0,1,.09.93c0,.6,0,1.46,0,2.54,0,2.14-.17,5.1-.51,8.36s-.82,6.19-1.24,8.29c-.21,1.05-.4,1.9-.55,2.48a3.12,3.12,0,0,1-.28.89,28.27,28.27,0,0,1,.47-3.43c.32-2.12.74-5,1.08-8.28s.54-6.19.66-8.33A26.18,26.18,0,0,1,403.82,183Z" style="fill:#263238"></path><path d="M339.77,175.55a4.66,4.66,0,0,1-.15,1.15c-.16.84-.36,1.87-.59,3.09-.5,2.61-1.18,6.22-1.66,10.24a97.59,97.59,0,0,0-.65,10.34c0,1.25,0,2.3,0,3.15a5.32,5.32,0,0,1,0,1.16,4.83,4.83,0,0,1-.16-1.15c-.07-.74-.13-1.82-.17-3.15a72.56,72.56,0,0,1,.49-10.41,101.65,101.65,0,0,1,1.82-10.25c.3-1.3.56-2.35.75-3.07A5,5,0,0,1,339.77,175.55Z" style="fill:#263238"></path><path d="M326.49,209.74l9.48-17-15.27-9.24c-.87.87-9,16.44-10.91,20-4.36,8.15-2.85,14,.61,16.28,4.83,3.24,40.72,24.49,40.72,24.49l5.33-8.14S328.19,211.46,326.49,209.74Z" style="fill:#ffbf9d"></path><path d="M355.2,235.22s4.77,3.19,6.78,7a132.7,132.7,0,0,1,5.65,13.56c.12.63-.63,10.17-.63,10.17l-3.27,7.79s-2.26.25-1.13-2.89a49.48,49.48,0,0,0,1.64-5.44l-.38-6.36-1.26,6.36-5.77,8.33a2.28,2.28,0,0,1-1.26-3.14c.88-2.39,2.51-6.66,2.51-6.66l-4.27,5.28a1.57,1.57,0,0,1-1.25-2.14,31,31,0,0,1,1-3.14s-1.93.26-1.09-1.75a22.78,22.78,0,0,0,1.22-4l-.5-6s-2.77-5.15-3-8S355.2,235.22,355.2,235.22Z" style="fill:#ffbf9d"></path></g></svg>
