<svg xmlns="http://www.w3.org/2000/svg" viewBox="0 0 500 500"><g id="freepik--background-complete--inject-64"><rect y="382.4" width="500" height="0.25" style="fill:#ebebeb"></rect><rect x="416.78" y="398.49" width="33.12" height="0.25" style="fill:#ebebeb"></rect><rect x="322.53" y="401.21" width="8.69" height="0.25" style="fill:#ebebeb"></rect><rect x="396.59" y="389.21" width="19.19" height="0.25" style="fill:#ebebeb"></rect><rect x="52.46" y="390.89" width="43.19" height="0.25" style="fill:#ebebeb"></rect><rect x="104.56" y="390.89" width="6.33" height="0.25" style="fill:#ebebeb"></rect><rect x="131.47" y="395.11" width="93.68" height="0.25" style="fill:#ebebeb"></rect><path d="M237,337.8H43.91a5.71,5.71,0,0,1-5.7-5.71V60.66A5.71,5.71,0,0,1,43.91,55H237a5.71,5.71,0,0,1,5.71,5.71V332.09A5.71,5.71,0,0,1,237,337.8ZM43.91,55.2a5.46,5.46,0,0,0-5.45,5.46V332.09a5.46,5.46,0,0,0,5.45,5.46H237a5.47,5.47,0,0,0,5.46-5.46V60.66A5.47,5.47,0,0,0,237,55.2Z" style="fill:#ebebeb"></path><path d="M453.31,337.8H260.21a5.72,5.72,0,0,1-5.71-5.71V60.66A5.72,5.72,0,0,1,260.21,55h193.1A5.71,5.71,0,0,1,459,60.66V332.09A5.71,5.71,0,0,1,453.31,337.8ZM260.21,55.2a5.47,5.47,0,0,0-5.46,5.46V332.09a5.47,5.47,0,0,0,5.46,5.46h193.1a5.47,5.47,0,0,0,5.46-5.46V60.66a5.47,5.47,0,0,0-5.46-5.46Z" style="fill:#ebebeb"></path><rect x="330.56" y="132.93" width="92.64" height="249.71" transform="translate(753.77 515.58) rotate(180)" style="fill:#ebebeb"></rect><rect x="393.7" y="160.39" width="21.32" height="93.17" transform="translate(808.73 413.96) rotate(180)" style="fill:#fafafa"></rect><path d="M407.81,272.39a4.25,4.25,0,1,0,4.25-4.25A4.25,4.25,0,0,0,407.81,272.39Z" style="fill:#e0e0e0"></path><rect x="359.1" y="115.81" width="35.56" height="8.39" transform="translate(753.77 240.01) rotate(180)" style="fill:#f5f5f5"></rect><rect x="63.4" y="145.76" width="104.7" height="82.41" transform="translate(302.72 71.22) rotate(90)" style="fill:#e6e6e6"></rect><rect x="76.42" y="136.49" width="78.66" height="100.95" transform="translate(231.5 373.93) rotate(180)" style="fill:#f0f0f0"></rect><path d="M96.68,183.82c3,3.37,3.81-3.32,3.81-3.32l8.72-14.81,1.9,15.2L104.56,228s-6,1.78-6.39,2.8,10.28,1.27,11.43,0-1.15-2.8-1.15-2.8l8.25-38.94.13.62L125,228s-2.28,1.52-1.14,2.8,11.81,1,11.42,0-6.38-2.8-6.38-2.8l-6.55-47.11,1.89-15.2,8.72,14.81s.76,6.69,3.81,3.32-2.29-6.41-2.29-6.41L125,161l-5.23-1.81-1.15-1.46s6.71-12-1.74-12.27v0h-.25v0c-8.45.23-1.75,12.27-1.75,12.27l-1.15,1.46L108.45,161,99,177.41S93.64,180.46,96.68,183.82Z" style="fill:#fafafa"></path><path d="M116.83,145.43v44.25L125,228s-2.28,1.52-1.14,2.8,11.81,1,11.42,0-6.38-2.8-6.38-2.8l-6.55-47.11,1.89-15.2,8.72,14.81s.76,6.69,3.81,3.32-2.29-6.41-2.29-6.41L125,161l-5.23-1.81-1.15-1.46S125.28,145.66,116.83,145.43Z" style="fill:#e6e6e6"></path><rect x="88.55" y="148.25" width="10.89" height="4.24" transform="translate(187.99 300.74) rotate(180)" style="fill:#e6e6e6"></rect><rect x="84.86" y="167.33" width="10.89" height="4.24" transform="translate(180.6 338.9) rotate(180)" style="fill:#e6e6e6"></rect><rect x="136.56" y="187.36" width="10.89" height="4.24" transform="translate(284.02 378.97) rotate(180)" style="fill:#e6e6e6"></rect><rect x="132.21" y="148.09" width="10.89" height="4.24" transform="translate(275.32 300.42) rotate(180)" style="fill:#e6e6e6"></rect><rect x="88.55" y="194.4" width="10.89" height="4.24" transform="translate(187.99 393.05) rotate(180)" style="fill:#e6e6e6"></rect><rect x="133.58" y="210.64" width="10.89" height="4.24" transform="translate(278.05 425.52) rotate(180)" style="fill:#e6e6e6"></rect><rect x="83.1" y="214.88" width="10.89" height="4.24" transform="translate(177.1 434) rotate(180)" style="fill:#e6e6e6"></rect><rect x="152.18" y="147.17" width="105.7" height="79.59" transform="translate(18.06 392) rotate(-90)" style="fill:#e6e6e6"></rect><rect x="167.11" y="136" width="75.84" height="101.94" style="fill:#f5f5f5"></rect><rect x="167.11" y="136" width="75.84" height="25.34" style="fill:#fafafa"></rect><rect x="167.11" y="184.78" width="75.84" height="27.86" style="fill:#fafafa"></rect><circle cx="181.91" cy="147.54" r="7.67" transform="translate(-29.03 45.74) rotate(-13.28)" style="fill:#f5f5f5"></circle><circle cx="231.26" cy="172.89" r="7.67" transform="translate(-19.39 29.55) rotate(-7.02)" style="fill:#fafafa"></circle><circle cx="181" cy="199.96" r="7.67" transform="translate(-55.2 330.17) rotate(-76.72)" style="fill:#f5f5f5"></circle><circle cx="230.35" cy="225.31" r="7.67" transform="translate(-91.85 228.88) rotate(-45)" style="fill:#fafafa"></circle></g><g id="freepik--Shadow--inject-64"><ellipse id="freepik--path--inject-64" cx="250" cy="416.24" rx="193.89" ry="11.32" style="fill:#f5f5f5"></ellipse></g><g id="freepik--Plant--inject-64"><path d="M89.49,387.77s-5.69-12.41.81-24.65,8.39-15.13,4.25-17.64-6,9.8-6,9.8S85,346.81,87.89,338s4.7-23.28.76-24.83-.76,18-4.18,24.66a57.39,57.39,0,0,1-3.34-14.53c-.47-7.11.27-18.47-2.84-21.38s-5.11-.9-2.05,14.79a163.65,163.65,0,0,1,3,28.46S72.52,324.54,68,323.94s-4.53,6.07-.65,11.85,11.36,16.15,12.59,21.48c0,0-7.41-15.5-14.08-10.75s5.8,14.11,11.36,17.49,9.42,24.58,9.42,24.58Z" style="fill:#2A71AB"></path><path d="M89.49,387.77s-5.69-12.41.81-24.65,8.39-15.13,4.25-17.64-6,9.8-6,9.8S85,346.81,87.89,338s4.7-23.28.76-24.83-.76,18-4.18,24.66a57.39,57.39,0,0,1-3.34-14.53c-.47-7.11.27-18.47-2.84-21.38s-5.11-.9-2.05,14.79a163.65,163.65,0,0,1,3,28.46S72.52,324.54,68,323.94s-4.53,6.07-.65,11.85,11.36,16.15,12.59,21.48c0,0-7.41-15.5-14.08-10.75s5.8,14.11,11.36,17.49,9.42,24.58,9.42,24.58Z" style="isolation:isolate;opacity:0.2"></path><path d="M85,392.86s5.54-12.5-1.11-24.64-8.56-15-4.45-17.56,6.16,9.7,6.16,9.7S89,351.84,86,343s-5-23.2-1.06-24.81,1,18,4.47,24.59a57.64,57.64,0,0,0,3.17-14.58c.39-7.12-.49-18.46,2.59-21.42s5.09-1,2.22,14.77a163.92,163.92,0,0,0-2.69,28.49s6.5-20.68,11-21.35,4.6,6,.79,11.84S95.36,356.87,94.2,362.22c0,0,7.22-15.61,14-11s-5.64,14.2-11.15,17.66-9.13,24.72-9.13,24.72Z" style="fill:#2A71AB"></path><polygon points="110.56 383.95 64.78 383.95 68.49 416.71 106.85 416.71 110.56 383.95" style="fill:#263238"></polygon></g><g id="freepik--speech-bubble--inject-64"><path d="M148.25,209H125.66a7.77,7.77,0,0,0-7.77,7.77v22a7.77,7.77,0,0,0,7.77,7.77h10l4.39,12.2.83-12.2h7.37a7.76,7.76,0,0,0,7.76-7.77v-22A7.76,7.76,0,0,0,148.25,209Z" style="fill:#2A71AB"></path><path d="M148.25,209H125.66a7.77,7.77,0,0,0-7.77,7.77v22a7.77,7.77,0,0,0,7.77,7.77h10l4.39,12.2.83-12.2h7.37a7.76,7.76,0,0,0,7.76-7.77v-22A7.76,7.76,0,0,0,148.25,209Z" style="fill:#fff;opacity:0.7000000000000001"></path><path d="M129.11,223.34c2-3.28,5.8-2.08,7.81.42,2-2.55,5.76-3.85,7.8-.63,3.45,5.44-3.45,10.62-6.71,12.65l-.93.57c-.26-.14-.57-.32-.94-.55C132.83,233.85,125.8,228.86,129.11,223.34Z" style="fill:#2A71AB"></path></g><g id="freepik--Bolts--inject-64"><path d="M228.54,263.52l-.58-.64-4.49-5,2.68,5-.38.19-1,.52.64.7c1.5,1.66,2.94,3.35,4.49,5-.84-1.71-1.76-3.36-2.66-5,.12-.06.25-.11.36-.18Z" style="fill:#2A71AB"></path><path d="M223,267.69l-.85-.13-6.62-1,5.25,2.18c-.06.12-.11.25-.17.38l-.43,1,.95.14c2.2.33,4.39.73,6.62,1-1.74-.79-3.5-1.48-5.25-2.19a3.08,3.08,0,0,0,.16-.38Z" style="fill:#2A71AB"></path></g><g id="freepik--character-2--inject-64"><path d="M253.73,219.63c-2.64,4.28-5.35,8.55-8,12.79l-4,6.36c-1.32,2.1-2.64,4.25-3.79,6.25-.31.53-.51.94-.74,1.36,0,0-.1.23,0-.06a1.91,1.91,0,0,0,.09-.37c0-.14,0-.14,0-.12s0,.26,0,.47a32.65,32.65,0,0,0,.11,3.3c.19,2.38.44,4.87.73,7.35.57,5,1.17,10,1.67,15l-5.11,1.17c-1.74-4.85-3.23-9.74-4.53-14.74-.63-2.5-1.24-5-1.71-7.66a37.24,37.24,0,0,1-.57-4.27c0-.43,0-.87,0-1.43a9.1,9.1,0,0,1,.13-1.06,5.5,5.5,0,0,1,.22-.83,3.69,3.69,0,0,1,.19-.5c.3-.73.62-1.48.91-2.06,1.18-2.5,2.41-4.75,3.66-7s2.53-4.47,3.82-6.68c2.61-4.4,5.29-8.72,8.1-13Z" style="fill:#ffb573"></path><path d="M253.73,219.63c-2.64,4.28-5.35,8.55-8,12.79l-4,6.36c-1.32,2.1-2.64,4.25-3.79,6.25-.31.53-.51.94-.74,1.36,0,0-.1.23,0-.06a1.91,1.91,0,0,0,.09-.37c0-.14,0-.14,0-.12s0,.26,0,.47a32.65,32.65,0,0,0,.11,3.3c.19,2.38.44,4.87.73,7.35.57,5,1.17,10,1.67,15l-5.11,1.17c-1.74-4.85-3.23-9.74-4.53-14.74-.63-2.5-1.24-5-1.71-7.66a37.24,37.24,0,0,1-.57-4.27c0-.43,0-.87,0-1.43a9.1,9.1,0,0,1,.13-1.06,5.5,5.5,0,0,1,.22-.83,3.69,3.69,0,0,1,.19-.5c.3-.73.62-1.48.91-2.06,1.18-2.5,2.41-4.75,3.66-7s2.53-4.47,3.82-6.68c2.61-4.4,5.29-8.72,8.1-13Z" style="opacity:0.1"></path><path d="M233.66,270.63s-.79,3.64,0,4.81,5.29.68,5.29.68l3.52,1.59,4.81-1.38-4.33-5.7Z" style="fill:#ffb573"></path><path d="M233.66,270.63s-.79,3.64,0,4.81,5.29.68,5.29.68l3.52,1.59,4.81-1.38-4.33-5.7Z" style="opacity:0.1"></path><polygon points="255.42 390.13 258.66 409.7 264.51 410.25 264.54 389.38 255.42 390.13" style="fill:#ffb573"></polygon><path d="M253.13,409.39c.74.62,2.4.34,3.32.12a.19.19,0,0,0,.15-.16.2.2,0,0,0-.09-.21c-.43-.27-2.63-1.6-3.43-1.2a.6.6,0,0,0-.31.52.48.48,0,0,0,0,.17A1,1,0,0,0,253.13,409.39Zm.26-.31a.71.71,0,0,1-.22-.6c0-.11.05-.15.1-.17.37-.2,1.61.36,2.58.91A3.35,3.35,0,0,1,253.39,409.08Z" style="fill:#2A71AB"></path><path d="M256.31,409.49a.18.18,0,0,0,.2,0,.22.22,0,0,0,.1-.19c0-.09-.18-2.19-1-2.89a1,1,0,0,0-.76-.23.58.58,0,0,0-.57.47.49.49,0,0,0,0,.17A4.77,4.77,0,0,0,256.31,409.49Zm-1.66-2.76s0-.12.22-.15a.59.59,0,0,1,.45.14,3.94,3.94,0,0,1,.83,2.17C255.43,408.32,254.56,407.17,254.65,406.73Z" style="fill:#2A71AB"></path><path d="M256.94,408.48h8.14a.64.64,0,0,1,.62.5l1.42,6.44a1.07,1.07,0,0,1-1.07,1.28c-2.84,0-4.22-.22-7.79-.23-2.21,0-9.94.21-13,.21s-3.43-3-2.19-3.28c5.59-1.21,10.89-2.89,12.68-4.49A1.69,1.69,0,0,1,256.94,408.48Z" style="fill:#263238"></path><path d="M292.8,262.72s-5.39,12.09-11.36,26.92c-3.69,9.19-7.6,19.41-10.58,28.47-3.21,9.73-5.34,18.12-5,22.4,1.27,15.4-.36,59.41-.36,59.41h-9.66s-8.57-58-8.2-66.07c1-22.08,15.3-67.5,15.3-67.5Z" style="fill:#263238"></path><path d="M281.44,289.64c-3.69,9.19-7.6,19.41-10.58,28.47-1.95-16.51,7-35.79,7-35.79A34,34,0,0,1,281.44,289.64Z" style="opacity:0.2"></path><polygon points="301.2 392.12 306.25 411.31 312.13 411.31 310.21 390.53 301.2 392.12" style="fill:#ffb573"></polygon><path d="M273.48,265.63S277.2,313,283.7,334.09c6.76,22,18.57,67.44,18.57,67.44l9.86-1.51s-1.55-45-9-66.34c-4.9-13.93,1.83-57-3-75.19Z" style="fill:#263238"></path><path d="M301.16,409.39c.74.62,2.4.34,3.32.12a.19.19,0,0,0,.15-.16.2.2,0,0,0-.09-.21c-.43-.27-2.63-1.6-3.43-1.2a.6.6,0,0,0-.31.52.48.48,0,0,0,0,.17A1,1,0,0,0,301.16,409.39Zm.26-.31a.71.71,0,0,1-.22-.6c0-.11.05-.15.1-.17.37-.2,1.61.36,2.58.91A3.35,3.35,0,0,1,301.42,409.08Z" style="fill:#2A71AB"></path><path d="M304.34,409.49a.18.18,0,0,0,.2,0,.22.22,0,0,0,.1-.19c0-.09-.18-2.19-1-2.89a1,1,0,0,0-.76-.23.58.58,0,0,0-.57.47.49.49,0,0,0,0,.17A4.77,4.77,0,0,0,304.34,409.49Zm-1.66-2.76s0-.12.22-.15a.59.59,0,0,1,.45.14,3.94,3.94,0,0,1,.83,2.17C303.46,408.32,302.59,407.17,302.68,406.73Z" style="fill:#2A71AB"></path><path d="M305,408.48h8.14a.64.64,0,0,1,.62.5l1.42,6.44a1.07,1.07,0,0,1-1.07,1.28c-2.84,0-4.22-.22-7.79-.23-2.21,0-9.94.21-13,.21s-3.43-3-2.19-3.28c5.59-1.21,10.89-2.89,12.68-4.49A1.69,1.69,0,0,1,305,408.48Z" style="fill:#263238"></path><path d="M259.57,213.88c1.22,6.81-13.93,23.62-13.93,23.62l-10.74-8.34a71.84,71.84,0,0,1,8.49-16.42C249,205.14,258.22,206.3,259.57,213.88Z" style="fill:#2A71AB"></path><path d="M259.66,214.72c-2.59-1.78-5.91-1.19-9.93,3.58s-8,13.17-8.66,15.65l4.58,3.55S259.76,222,259.66,214.72Z" style="opacity:0.2"></path><path d="M301.31,260l-39.82,8.62c-.51-1-1-2-1.49-3-2.18-4.5-4-8.77-5.57-12.78-10.67-27.45-8-43.34-8-43.34a73.55,73.55,0,0,1,10.19-4.93,143.14,143.14,0,0,1,15.87-4.42l.18,0a11.66,11.66,0,0,1,14,9.65,154.62,154.62,0,0,0,3.22,15.6C294.3,242.44,300.41,256.1,301.31,260Z" style="fill:#2A71AB"></path><path d="M258.88,186c1.56,5.17,5.19,14.24,10.12,15.63a50.62,50.62,0,0,0-8.15,14.62c-2.88-2.16-5.39-4.39-6.4-6.91,4.56-4,2.37-7.82-.47-11Z" style="fill:#ffb573"></path><path d="M256.88,191.06,254,198.37a17.25,17.25,0,0,1,1.81,2.34c1.85-1.34,3.43-5,2.53-7.18A7.85,7.85,0,0,0,256.88,191.06Z" style="opacity:0.2"></path><path d="M236.37,177.51c-3.35,4.87,5.16,14.12,7.87,13.84C249.32,190.84,240.53,171.47,236.37,177.51Z" style="fill:#263238"></path><path d="M256.82,176.84c3.49,6.28,5.85,9.79,4.77,14.84-1.61,7.6-10.85,9.59-16.14,4.48-4.77-4.61-9.67-14.12-5.28-20.3A9.8,9.8,0,0,1,256.82,176.84Z" style="fill:#ffb573"></path><path d="M250.87,169.6l-.71,6.34s1.18-.95,2.83.4c2.63,2.15,4.66,10.63,7.47,9.51,5-2,1.59-15.17-1.87-18.31C253.49,162.92,250.87,169.6,250.87,169.6Z" style="fill:#263238"></path><path d="M263.81,181.76a6.84,6.84,0,0,1-2,4.84c-1.7,1.69-3.71.45-4.22-1.76-.46-2-.12-5.27,2.05-6.13A3.07,3.07,0,0,1,263.81,181.76Z" style="fill:#ffb573"></path><path d="M248.73,184.38c.31.49.3,1.06,0,1.26s-.84,0-1.15-.52-.31-1.05,0-1.26S248.41,183.89,248.73,184.38Z" style="fill:#263238"></path><path d="M243.16,187.93c.31.49.31,1.06,0,1.26s-.83,0-1.15-.52-.31-1,0-1.26S242.84,187.44,243.16,187.93Z" style="fill:#263238"></path><path d="M245.08,187.05a20.72,20.72,0,0,1,.34,5.71,3.35,3.35,0,0,0,2.63-1.06Z" style="fill:#ed893e"></path><path d="M250.34,192.16a.18.18,0,0,1-.22-.07.16.16,0,0,1,0-.23,4.64,4.64,0,0,0,2.21-3.56.18.18,0,0,1,.17-.17.17.17,0,0,1,.17.18,4.91,4.91,0,0,1-2.36,3.84Z" style="fill:#263238"></path><path d="M249.22,181.54a.41.41,0,0,1-.27,0,2.73,2.73,0,0,0-2.47.21.35.35,0,0,1-.48-.07.34.34,0,0,1,.08-.48,3.38,3.38,0,0,1,3.11-.31.35.35,0,0,1,.21.44A.39.39,0,0,1,249.22,181.54Z" style="fill:#263238"></path><path d="M239.46,187.59a.19.19,0,0,1-.1,0,.33.33,0,0,1-.38-.3,3.37,3.37,0,0,1,1-2.95.35.35,0,0,1,.48,0,.35.35,0,0,1-.05.49,2.69,2.69,0,0,0-.79,2.34A.36.36,0,0,1,239.46,187.59Z" style="fill:#263238"></path><path d="M250.16,175.94s-.16-1.45-2.48-.94-7.56,7.59-12.08,6.83-.7-6.83-.7-6.83.67,1.05,1.46-.79,4.49-8.83,11.32-9.23S250.16,175.94,250.16,175.94Z" style="fill:#263238"></path><path d="M245.08,266.12l-6.62,1.18-5.79,3.33,4.15,4.2,5.65-1.72a7.17,7.17,0,0,0,7.53-3.68Z" style="fill:#ffb573"></path><path d="M253.55,231.08l-.5-.06a17.56,17.56,0,0,0-.11-4.67l.49-.09A17.27,17.27,0,0,1,253.55,231.08Z" style="fill:#263238"></path><g style="opacity:0.2"><path d="M253.55,231.08l-.5-.06a17.56,17.56,0,0,0-.11-4.67l.49-.09A17.27,17.27,0,0,1,253.55,231.08Z" style="fill:#fff"></path></g><rect x="250.77" y="230.4" width="5.28" height="8.7" rx="0.59" style="fill:#2A71AB"></rect><rect x="250.77" y="230.4" width="5.28" height="8.7" rx="0.59" style="fill:#fff;opacity:0.7000000000000001"></rect><rect x="251.83" y="229.87" width="3.17" height="1.44" rx="0.32" style="fill:#263238"></rect><rect x="251.83" y="229.87" width="3.17" height="1.44" rx="0.32" style="fill:#fff;opacity:0.4"></rect><circle cx="253.19" cy="225.63" r="1.44" style="fill:#263238"></circle><circle cx="253.19" cy="225.63" r="1.44" style="fill:#fff;opacity:0.4"></circle><circle cx="253.07" cy="225.63" r="0.98" style="fill:#fff;opacity:0.2"></circle><path d="M289.92,225.33c-2.66,9-6.58,21.25-9.38,25-3.17,4.23-14,11.27-20.54,15.27-2.18-4.5-4-8.77-5.57-12.78,5.2-2.82,13.32-7.32,13.58-8.13.4-1.18,1.82-22.94,1.82-22.94l15.88-15.26a11.59,11.59,0,0,1,1,3.25A154.62,154.62,0,0,0,289.92,225.33Z" style="opacity:0.2"></path><path d="M283.18,217c-.18,5.61-.52,11.16-1.07,16.77-.26,2.8-.6,5.6-1,8.47-.22,1.46-.44,2.85-.85,4.55l-.18.68c-.08.29-.15.51-.27.85a7.2,7.2,0,0,1-.58,1.27,8,8,0,0,1-.67,1,17,17,0,0,1-2,2,78.2,78.2,0,0,1-7.07,5.29c-2.37,1.58-4.72,3.11-7.12,4.57-4.78,2.95-9.63,5.7-14.61,8.31l-2.85-4.4c4.32-3.45,8.67-6.89,13-10.29,2.15-1.72,4.31-3.41,6.4-5.15s4.19-3.48,5.86-5.16a8.5,8.5,0,0,0,.85-1s0,0-.09.11a1.43,1.43,0,0,0-.17.33.64.64,0,0,1,0-.16l.05-.33c.16-1,.28-2.38.39-3.67.23-2.64.35-5.37.52-8.1.27-5.46.56-11,.9-16.45Z" style="fill:#ffb573"></path><path d="M284.72,204.19c8.12,7.73-.39,26.23-.39,26.23l-13.9-1.53a65.34,65.34,0,0,1,0-17.52C271.8,201.63,279.32,199,284.72,204.19Z" style="fill:#2A71AB"></path></g><g id="freepik--character-1--inject-64"><path d="M191.79,269.31c8.5.54,46.76,6.61,59.34,5.41v32.66s-8.65,7.92-43.87-1.09S191.79,269.31,191.79,269.31Z" style="fill:#ff8b7b"></path><path d="M417.32,301.1c-7.48-4-7-3.61-11.3-5.73-3.67-1.8-4.26-2.7-7.19-4.19-2.44-1.24-3.76,1-4.64,4-.34,1.14-.66,2.5-1.15,4.13a2,2,0,0,0,1,2.39l-4,4.07,9.89.69c8.84.57,14-1.1,16.29-.24C420.54,307.85,420.3,302.7,417.32,301.1Z" style="fill:#e4897b"></path><polygon points="395.8 296.56 383.06 295.19 385.61 304.98 397.72 306.29 395.8 296.56" style="fill:#e4897b"></polygon><path d="M325.11,286.66c-41.47-9-57.59-16.35-79.11-12.09l4.2,34.2s48.35,3.09,73.58.08C350,305.72,392,307,392,307l.58-11.76S354.64,281,325.11,286.66Z" style="fill:#2A71AB"></path><path d="M157.75,279c6.09,1.2,13.25,2.31,17.95-.68A13,13,0,0,1,179.86,292c-1.79,6.35-6.44,3.69-8.72,1.76-2.07-3.65-5.81-3.51-8.39-3.64Z" style="fill:#ff8b7b"></path><path d="M160,281.64c-.38-.09-.77-.15-1.15-.22l3.9,8.72A15.19,15.19,0,0,1,168,291C166.94,286.92,163.68,282.44,160,281.64Z" style="opacity:0.2"></path><path d="M173.85,276.67c-8.85,5.73-4.35,23.57,6.55,29.1,17,8.62,34,3.84,34,3.84l-12.84-39.53S195.54,262.64,173.85,276.67Z" style="fill:#263238"></path><path d="M214.43,309.61a50.6,50.6,0,0,1-17.6,1,48.26,48.26,0,0,1-16.43-4.83,17.55,17.55,0,0,1-3.91-2.74c-7.94-7.23-10.34-21.37-2.64-26.35,21.69-14,27.74-6.6,27.74-6.6Z" style="fill:#fff;opacity:0.7000000000000001"></path><polygon points="250.1 274.8 254.02 308.05 251.05 308.15 247.28 275.01 250.1 274.8" style="fill:#263238"></polygon><polygon points="248.45 290.58 253.35 290.58 254.02 291.75 248.45 291.75 248.45 290.58" style="fill:#2A71AB"></polygon><path d="M219.62,308.91s-5.8,3.17-7.44,1.19-4.19-20.45-8.5-28.16-5.51-12.69-4.62-13.83,5,0,5.4,2.45,0,9,3.73,15.16S218.51,301.28,219.62,308.91Z" style="fill:#263238"></path><path d="M219.62,308.91s-5.8,3.17-7.44,1.19-4.19-20.45-8.5-28.16-5.51-12.69-4.62-13.83,5,0,5.4,2.45,0,9,3.73,15.16S218.51,301.28,219.62,308.91Z" style="fill:#fff;opacity:0.6000000000000001"></path><path d="M196.83,310.6a48.26,48.26,0,0,1-16.43-4.83,17.55,17.55,0,0,1-3.91-2.74c.34-2.64-.09-6.3-2.3-11.28,0,0,15.4-14.29,21.43-6C205.91,299.85,196.83,310.6,196.83,310.6Z" style="opacity:0.2"></path><path d="M177.74,304.49S180.39,301,175,296s-12.24-1.78-19.87-1.15-13.16-7.27-19-6.27-13.72,8.09-8.85,15.94S173.62,308.27,177.74,304.49Z" style="fill:#2A71AB"></path><path d="M135.48,283.36s-5.86-8.16,6.68-17.43,27,7.51,21.33,16.1S135.48,283.36,135.48,283.36Z" style="fill:#e0e0e0"></path><path d="M155.7,272.68c5.8,5.79,9.49,8.89,9.87,14.75.57,8.81-9,13.86-16.43,9.9-6.69-3.56-15-12.43-12.13-20.55A11.3,11.3,0,0,1,155.7,272.68Z" style="fill:#ff8b7b"></path><path d="M149.83,282a4.48,4.48,0,0,1,1.88-2.85A8.84,8.84,0,0,1,149.83,282Z" style="opacity:0.2"></path><path d="M150.54,282.41a3.7,3.7,0,0,1,2.3-2.08A7.41,7.41,0,0,1,150.54,282.41Z" style="opacity:0.2"></path><path d="M155.94,267.82c-1.48-.48-2.9-.79-6.51-.26,0,0-.76,6,4,8.13,2.92,1.31,2.82,6.25,2.82,6.25a6,6,0,0,0,4.31-2.64A9.27,9.27,0,0,0,155.94,267.82Z" style="fill:#e0e0e0"></path><path d="M147.87,300.71s5.69,1.45,6.39-3.63c3.92-2.1,4.3-6.66,2.76-9.88-.69,2.65-4.83,2.31-6.82,5.33a1.74,1.74,0,0,0-.23,1.19,2.65,2.65,0,0,0-1,.73C147.5,296.58,150,298,147.87,300.71Z" style="fill:#e0e0e0"></path><path d="M163.77,276.1a7.73,7.73,0,0,1-.28,5.93c-1.19,2.45-3.85,1.9-5.24-.28-1.25-2-2.14-5.6-.11-7.35A3.52,3.52,0,0,1,163.77,276.1Z" style="fill:#ff8b7b"></path><path d="M145.8,289a23.51,23.51,0,0,1,1.76,6.26,3.88,3.88,0,0,0,2.7-1.81Z" style="fill:#ff5652"></path><path d="M146.44,280.08a.29.29,0,0,0,.07-.18.38.38,0,0,0-.36-.42,3.9,3.9,0,0,0-3.34,1.3.38.38,0,0,0,.07.55.4.4,0,0,0,.55-.07h0a3.11,3.11,0,0,1,2.66-1A.38.38,0,0,0,146.44,280.08Z" style="fill:#263238"></path><path d="M139.43,290.27a.4.4,0,0,0,.13-.35,3.09,3.09,0,0,1,.83-2.69.38.38,0,0,0,0-.55.4.4,0,0,0-.56,0,3.87,3.87,0,0,0-1.09,3.38.38.38,0,0,0,.44.33A.4.4,0,0,0,139.43,290.27Z" style="fill:#263238"></path><path d="M147.51,285.52a1.86,1.86,0,0,0,1.9-1.51l.42.56S149,286.3,147.51,285.52Z" style="fill:#263238"></path><path d="M143.53,289.57a1.45,1.45,0,0,1-1.44,1.46l.63.43A1.41,1.41,0,0,0,143.53,289.57Z" style="fill:#263238"></path><path d="M143.94,269.91c-2.45,1.18-2,5-3.41,6.67s-3.66,4.1-5.56-.24,3.19-8.93,6.85-10.16S143.94,269.91,143.94,269.91Z" style="fill:#e0e0e0"></path><rect x="119.05" y="351.93" width="162.22" height="5.36" transform="translate(-102.47 82.16) rotate(-18.56)" style="fill:#263238"></rect><g style="opacity:0.2"><rect x="119.05" y="351.93" width="162.22" height="5.36" transform="translate(-102.47 82.16) rotate(-18.56)" style="fill:#fff"></rect></g><rect x="347.61" y="273.5" width="5.36" height="162.22" transform="translate(-97.37 573.79) rotate(-71.44)" style="fill:#263238"></rect><g style="opacity:0.2"><rect x="347.61" y="273.5" width="5.36" height="162.22" transform="translate(-97.37 573.79) rotate(-71.44)" style="fill:#fff"></rect></g><rect x="422.02" y="325.44" width="7.21" height="91.27" style="fill:#263238"></rect><rect x="422.02" y="325.44" width="7.21" height="91.27" style="fill:#fff;opacity:0.30000000000000004"></rect><rect x="121.22" y="325.44" width="7.21" height="91.27" style="fill:#263238"></rect><rect x="121.22" y="325.44" width="7.21" height="91.27" style="fill:#fff;opacity:0.30000000000000004"></rect><path d="M115.43,305H434.85a0,0,0,0,1,0,0v12.52a7.92,7.92,0,0,1-7.92,7.92H123.35a7.92,7.92,0,0,1-7.92-7.92V305A0,0,0,0,1,115.43,305Z" transform="translate(550.28 630.54) rotate(180)" style="fill:#2A71AB"></path><path d="M115.43,305H434.85a0,0,0,0,1,0,0v12.52a7.92,7.92,0,0,1-7.92,7.92H123.35a7.92,7.92,0,0,1-7.92-7.92V305A0,0,0,0,1,115.43,305Z" transform="translate(550.28 630.54) rotate(180)" style="fill:#fff;opacity:0.7000000000000001"></path><rect x="111.65" y="322.61" width="326.98" height="12.34" rx="1.98" transform="translate(550.28 657.57) rotate(180)" style="fill:#263238"></rect><rect x="111.65" y="322.61" width="326.98" height="12.34" rx="1.98" transform="translate(550.28 657.57) rotate(180)" style="fill:#fff;opacity:0.4"></rect><path d="M157.93,302.82l-9.09-1.92,2.12,9.81s7.69,1.55,8.82-3.14Z" style="fill:#ff8b7b"></path><path d="M143.65,304.55l.27,4.15a2.63,2.63,0,0,0,2.88,2.44l4.16-.43-2.12-9.81-3.3,1A2.62,2.62,0,0,0,143.65,304.55Z" style="fill:#ff8b7b"></path><path d="M187.49,286.13c.84,1,1.49,1.94,2.19,2.95s1.33,2,1.94,3A42.27,42.27,0,0,1,195,299a24,24,0,0,1,1.18,4.38,13.37,13.37,0,0,1,.13,3,9.49,9.49,0,0,1-1.19,4.06,8.39,8.39,0,0,1-1.74,2.14,8.83,8.83,0,0,1-1.84,1.22,11.63,11.63,0,0,1-2.9,1,20.49,20.49,0,0,1-4.36.35,47.72,47.72,0,0,1-7.31-.7c-2.32-.38-4.57-.86-6.79-1.4a114.09,114.09,0,0,1-13-4,3.13,3.13,0,0,1,1.41-6h.07c4.31.43,8.7.89,13,1.21,2.14.17,4.27.29,6.35.36a49.83,49.83,0,0,0,5.94-.13,10.21,10.21,0,0,0,2.21-.42c.24-.07.37-.17.22-.12a1.54,1.54,0,0,0-.46.29,3.47,3.47,0,0,0-.72.84,6.14,6.14,0,0,0-.41.88c0,.06-.08-.09-.15-.31a13.88,13.88,0,0,0-.81-1.93,87.69,87.69,0,0,0-6.19-9.84l-.11-.16a6.27,6.27,0,0,1,10-7.49Z" style="fill:#ff8b7b"></path><path d="M170.79,283.55c-3.51,8.85,8.12,17.35,8.12,17.35l20.15-5s0-6.92-7.27-15.54C190,278.24,175.74,271.09,170.79,283.55Z" style="fill:#263238"></path><g style="opacity:0.7000000000000001"><path d="M170.79,283.55c-3.51,8.85,8.12,17.35,8.12,17.35l20.15-5s0-6.92-7.27-15.54C190,278.24,175.74,271.09,170.79,283.55Z" style="fill:#fff"></path></g></g></svg>
