<svg xmlns="http://www.w3.org/2000/svg" viewBox="0 0 750 500"><g id="freepik--background-simple--inject-152"><path d="M568.73,58.46c-72-9.34-111.67,30.43-207.93,34.76-95.95-7.5-133.54-48.56-205.92-41.6C77,59.1,19.18,160.84,39.06,262.62s128,158.67,182.53,158.32c43.57-.28,81.6-18,131.17-22.25,49.31,5.87,86.37,24.84,129.88,26.56,54.45,2.16,165.49-51.12,190.71-152.15S646.15,68.5,568.73,58.46Z" style="fill:#ECEFF1"></path><path d="M568.73,58.46c-72-9.34-111.67,30.43-207.93,34.76-95.95-7.5-133.54-48.56-205.92-41.6C77,59.1,19.18,160.84,39.06,262.62s128,158.67,182.53,158.32c43.57-.28,81.6-18,131.17-22.25,49.31,5.87,86.37,24.84,129.88,26.56,54.45,2.16,165.49-51.12,190.71-152.15S646.15,68.5,568.73,58.46Z" style="fill:#fff;opacity:0.7000000000000001"></path></g><g id="freepik--Circles--inject-152"><circle cx="80.78" cy="265.8" r="6.11" style="fill:none;stroke:#263238;stroke-linecap:round;stroke-linejoin:round"></circle><path d="M94.36,213.17a3.74,3.74,0,1,1-3.74-3.74A3.73,3.73,0,0,1,94.36,213.17Z" style="fill:none;stroke:#263238;stroke-linecap:round;stroke-linejoin:round"></path><circle cx="116.77" cy="212.15" r="2.72" style="fill:none;stroke:#263238;stroke-linecap:round;stroke-linejoin:round"></circle><circle cx="88.25" cy="161.22" r="2.72" style="fill:none;stroke:#263238;stroke-linecap:round;stroke-linejoin:round"></circle><path d="M281.11,323.18a5.77,5.77,0,1,1-5.77-5.77A5.77,5.77,0,0,1,281.11,323.18Z" style="fill:none;stroke:#263238;stroke-linecap:round;stroke-linejoin:round"></path><circle cx="253.27" cy="218.94" r="3.4" style="fill:none;stroke:#263238;stroke-linecap:round;stroke-linejoin:round"></circle><path d="M260.74,112.66a1,1,0,1,1-1-1A1,1,0,0,1,260.74,112.66Z" style="fill:none;stroke:#263238;stroke-linecap:round;stroke-linejoin:round"></path><circle cx="230.86" cy="113" r="3.4" style="fill:none;stroke:#263238;stroke-linecap:round;stroke-linejoin:round"></circle><circle cx="114.73" cy="86.51" r="4.07" style="fill:none;stroke:#263238;stroke-linecap:round;stroke-linejoin:round"></circle><path d="M151.4,107.23a4.42,4.42,0,1,1-4.41-4.42A4.41,4.41,0,0,1,151.4,107.23Z" style="fill:none;stroke:#263238;stroke-linecap:round;stroke-linejoin:round"></path><path d="M137.14,335.4a4.42,4.42,0,1,1-4.41-4.41A4.42,4.42,0,0,1,137.14,335.4Z" style="fill:none;stroke:#263238;stroke-linecap:round;stroke-linejoin:round"></path><circle cx="73.98" cy="314.01" r="2.72" style="fill:none;stroke:#263238;stroke-linecap:round;stroke-linejoin:round"></circle><path d="M139.18,297.37a3.74,3.74,0,1,1-3.74-3.73A3.73,3.73,0,0,1,139.18,297.37Z" style="fill:none;stroke:#263238;stroke-linecap:round;stroke-linejoin:round"></path><circle cx="243.08" cy="422.67" r="4.07" style="fill:none;stroke:#263238;stroke-linecap:round;stroke-linejoin:round"></circle><circle cx="135.1" cy="412.48" r="3.4" style="fill:none;stroke:#263238;stroke-linecap:round;stroke-linejoin:round"></circle><circle cx="450.21" cy="416.56" r="4.07" style="fill:none;stroke:#263238;stroke-linecap:round;stroke-linejoin:round"></circle><circle cx="468.54" cy="360.87" r="4.07" style="fill:none;stroke:#263238;stroke-linecap:round;stroke-linejoin:round"></circle><path d="M491.63,415.54a3.74,3.74,0,1,1-3.73-3.74A3.73,3.73,0,0,1,491.63,415.54Z" style="fill:none;stroke:#263238;stroke-linecap:round;stroke-linejoin:round"></path><path d="M571.09,300.09a3.74,3.74,0,1,1-3.74-3.73A3.75,3.75,0,0,1,571.09,300.09Z" style="fill:none;stroke:#263238;stroke-linecap:round;stroke-linejoin:round"></path><circle cx="550.03" cy="310.62" r="2.72" style="fill:none;stroke:#263238;stroke-linecap:round;stroke-linejoin:round"></circle><path d="M621.34,351a7.13,7.13,0,1,1-7.13-7.13A7.13,7.13,0,0,1,621.34,351Z" style="fill:none;stroke:#263238;stroke-linecap:round;stroke-linejoin:round"></path><circle cx="617.26" cy="413.16" r="3.4" style="fill:none;stroke:#263238;stroke-linecap:round;stroke-linejoin:round"></circle><circle cx="614.55" cy="255.61" r="4.75" style="fill:none;stroke:#263238;stroke-linecap:round;stroke-linejoin:round"></circle><path d="M613.87,283.11a2.38,2.38,0,1,1-2.38-2.37A2.37,2.37,0,0,1,613.87,283.11Z" style="fill:none;stroke:#263238;stroke-linecap:round;stroke-linejoin:round"></path><circle cx="567.01" cy="210.79" r="3.4" style="fill:none;stroke:#263238;stroke-linecap:round;stroke-linejoin:round"></circle><circle cx="507.93" cy="207.39" r="4.07" style="fill:none;stroke:#263238;stroke-linecap:round;stroke-linejoin:round"></circle><path d="M620,137.11a5.1,5.1,0,1,1-5.09-5.1A5.09,5.09,0,0,1,620,137.11Z" style="fill:none;stroke:#263238;stroke-linecap:round;stroke-linejoin:round"></path><path d="M491,95.68A3.74,3.74,0,1,1,487.22,92,3.74,3.74,0,0,1,491,95.68Z" style="fill:none;stroke:#263238;stroke-linecap:round;stroke-linejoin:round"></path><circle cx="590.1" cy="72.25" r="5.43" style="fill:none;stroke:#263238;stroke-linecap:round;stroke-linejoin:round"></circle><path d="M549.35,56.29a3.06,3.06,0,1,1-3.05-3A3.05,3.05,0,0,1,549.35,56.29Z" style="fill:none;stroke:#263238;stroke-linecap:round;stroke-linejoin:round"></path><circle cx="474.65" cy="178.19" r="2.04" style="fill:none;stroke:#263238;stroke-linecap:round;stroke-linejoin:round"></circle><path d="M641,218.6a3.06,3.06,0,1,1-3-3.06A3.05,3.05,0,0,1,641,218.6Z" style="fill:none;stroke:#263238;stroke-linecap:round;stroke-linejoin:round"></path><path d="M275,182.27a3.4,3.4,0,1,1-3.4-3.4A3.4,3.4,0,0,1,275,182.27Z" style="fill:none;stroke:#263238;stroke-linecap:round;stroke-linejoin:round"></path><circle cx="468.54" cy="259.01" r="3.4" style="fill:none;stroke:#263238;stroke-linecap:round;stroke-linejoin:round"></circle></g><g id="freepik--virus-6--inject-152"><circle cx="546.35" cy="382.89" r="31.01" style="fill:#263238;stroke:#263238;stroke-linecap:round;stroke-linejoin:round"></circle><path d="M590.53,368.56c1.88,1.53,4.58.69,6.36-.56,5-3.51.39-13-5.39-9.78-3,1.7-3.91,6.9-3.91,6.9l-13.82,4.32s-.44,1.14,1.32,2.79c0,0,11.76-4.79,12.72-5.1S589.63,367.83,590.53,368.56Z" style="fill:#999;stroke:#263238;stroke-linecap:round;stroke-linejoin:round"></path><path d="M583,354.31c2.29.8,4.55-.91,5.79-2.7,3.49-5-4.09-12.35-8.41-7.35-2.29,2.65-1.31,7.83-1.31,7.83l-11.52,8.78s0,1.22,2.2,2.17c0,0,9.41-8.52,10.21-9.14S581.87,353.93,583,354.31Z" style="fill:#ECEFF1;stroke:#263238;stroke-linecap:round;stroke-linejoin:round"></path><path d="M571,343.51c2.42,0,4-2.41,4.52-4.52,1.56-5.89-8.07-10.2-10.42-4-1.25,3.27,1.44,7.81,1.44,7.81L558.71,355s.39,1.16,2.8,1.29c0,0,5.93-11.23,6.47-12.08S569.82,343.53,571,343.51Z" style="fill:#999;stroke:#263238;stroke-linecap:round;stroke-linejoin:round"></path><path d="M556,337.46c2.26-.86,2.89-3.62,2.7-5.79-.55-6.08-11.07-6.83-11.17-.22-.06,3.5,4,6.84,4,6.84l-3.17,14.13s.77.95,3.07.25c0,0,1.74-12.58,1.95-13.57S555,337.88,556,337.46Z" style="fill:#ECEFF1;stroke:#263238;stroke-linecap:round;stroke-linejoin:round"></path><path d="M539.91,336.89c1.83-1.58,1.48-4.39.55-6.36-2.59-5.52-12.74-2.64-10.57,3.61,1.15,3.3,6.12,5.05,6.12,5.05l1.85,14.36s1,.63,3-.81c0,0-2.67-12.42-2.81-13.42S539,337.65,539.91,336.89Z" style="fill:#fff;stroke:#263238;stroke-linecap:round;stroke-linejoin:round"></path><path d="M524.56,341.87c1.19-2.12-.11-4.63-1.65-6.17-4.33-4.3-12.87,1.88-8.7,7,2.21,2.71,7.48,2.65,7.48,2.65l6.65,12.86s1.2.24,2.52-1.78c0,0-6.76-10.75-7.23-11.64S524,342.88,524.56,341.87Z" style="fill:#ECEFF1;stroke:#263238;stroke-linecap:round;stroke-linejoin:round"></path><path d="M511.85,351.8c.39-2.4-1.69-4.32-3.67-5.24-5.54-2.56-11.45,6.17-5.78,9.56,3,1.8,7.94-.06,7.94-.06L521,365.87s1.21-.19,1.75-2.54c0,0-10-7.79-10.77-8.46S511.66,352.94,511.85,351.8Z" style="fill:#999;stroke:#263238;stroke-linecap:round;stroke-linejoin:round"></path><path d="M503.29,365.47c-.45-2.38-3.06-3.48-5.23-3.66-6.08-.52-8.65,9.71-2.16,11,3.43.66,7.44-2.78,7.44-2.78l13.36,5.58s1.07-.59.78-3c0,0-12.08-3.9-13-4.28S503.51,366.61,503.29,365.47Z" style="fill:#ECEFF1;stroke:#263238;stroke-linecap:round;stroke-linejoin:round"></path><path d="M499.93,381.25c-1.24-2.09-4.07-2.22-6.17-1.65-5.89,1.59-4.81,12.08,1.72,11,3.45-.55,6-5.15,6-5.15l14.46.68s.8-.93-.28-3.08c0,0-12.69.48-13.7.44S500.53,382.24,499.93,381.25Z" style="fill:#999;stroke:#263238;stroke-linecap:round;stroke-linejoin:round"></path><path d="M502.17,397.22c-1.88-1.53-4.58-.69-6.36.56-5,3.52-.39,13,5.38,9.78,3.06-1.7,3.92-6.9,3.92-6.9l13.82-4.32s.44-1.14-1.32-2.79c0,0-11.76,4.79-12.72,5.1S503.07,398,502.17,397.22Z" style="fill:#fff;stroke:#263238;stroke-linecap:round;stroke-linejoin:round"></path><path d="M509.74,411.47c-2.29-.8-4.55.91-5.79,2.7-3.49,5,4.08,12.35,8.41,7.35,2.29-2.65,1.31-7.83,1.31-7.83l11.51-8.78s0-1.22-2.19-2.17c0,0-9.41,8.52-10.21,9.14S510.83,411.85,509.74,411.47Z" style="fill:#ECEFF1;stroke:#263238;stroke-linecap:round;stroke-linejoin:round"></path><path d="M521.72,422.27c-2.43,0-4,2.41-4.52,4.52-1.56,5.89,8.07,10.2,10.42,4,1.25-3.27-1.44-7.81-1.44-7.81L534,410.82s-.4-1.16-2.8-1.29c0,0-5.94,11.23-6.47,12.08S522.88,422.25,521.72,422.27Z" style="fill:#999;stroke:#263238;stroke-linecap:round;stroke-linejoin:round"></path><path d="M536.67,428.32c-2.27.86-2.89,3.62-2.7,5.79.55,6.08,11.07,6.83,11.17.22.05-3.5-4-6.84-4-6.84l3.18-14.13s-.77-.95-3.07-.25c0,0-1.74,12.58-2,13.57S537.75,427.9,536.67,428.32Z" style="fill:#ECEFF1;stroke:#263238;stroke-linecap:round;stroke-linejoin:round"></path><path d="M552.79,428.89c-1.83,1.58-1.48,4.39-.55,6.36,2.59,5.52,12.73,2.64,10.57-3.61-1.15-3.3-6.13-5.05-6.13-5.05l-1.84-14.36s-1.05-.63-3,.81c0,0,2.67,12.42,2.81,13.42S553.67,428.13,552.79,428.89Z" style="fill:#fff;stroke:#263238;stroke-linecap:round;stroke-linejoin:round"></path><path d="M568.13,423.91c-1.18,2.12.12,4.63,1.66,6.17,4.33,4.3,12.87-1.88,8.7-7-2.21-2.71-7.48-2.65-7.48-2.65l-6.65-12.86s-1.2-.24-2.52,1.78c0,0,6.75,10.75,7.23,11.64S568.7,422.9,568.13,423.91Z" style="fill:#999;stroke:#263238;stroke-linecap:round;stroke-linejoin:round"></path><path d="M580.85,414c-.39,2.4,1.69,4.32,3.67,5.24,5.53,2.56,11.45-6.17,5.77-9.56-3-1.8-7.93.06-7.93.06l-10.65-9.81s-1.21.19-1.76,2.54c0,0,10,7.79,10.78,8.46S581,412.84,580.85,414Z" style="fill:#ECEFF1;stroke:#263238;stroke-linecap:round;stroke-linejoin:round"></path><path d="M589.4,400.31c.46,2.38,3.07,3.48,5.24,3.66,6.08.52,8.65-9.71,2.16-11-3.44-.66-7.44,2.78-7.44,2.78L576,390.21s-1.07.59-.78,3c0,0,12.08,3.9,13,4.28S589.19,399.17,589.4,400.31Z" style="fill:#fff;stroke:#263238;stroke-linecap:round;stroke-linejoin:round"></path><path d="M592.77,384.53c1.24,2.09,4.06,2.22,6.17,1.65,5.89-1.59,4.8-12.08-1.72-11-3.45.55-6,5.15-6,5.15l-14.46-.68s-.81.93.28,3.08c0,0,12.69-.47,13.7-.44S592.17,383.54,592.77,384.53Z" style="fill:#ECEFF1;stroke:#263238;stroke-linecap:round;stroke-linejoin:round"></path><path d="M548.44,346.54c2-1.28,2.14-4.11,1.53-6.21-1.7-5.85-12.17-4.58-11,1.93.62,3.44,5.26,5.94,5.26,5.94l-.41,14.47s.94.79,3.07-.34c0,0-.71-12.68-.69-13.69S547.45,347.15,548.44,346.54Z" style="fill:#999;stroke:#263238;stroke-linecap:round;stroke-linejoin:round"></path><path d="M528.45,351.18c1-2.19-.42-4.62-2.06-6.05-4.6-4-12.72,2.73-8.22,7.57,2.38,2.56,7.64,2.15,7.64,2.15l7.48,12.4s1.22.15,2.4-1.95c0,0-7.45-10.28-8-11.14S528,352.23,528.45,351.18Z" style="fill:#ECEFF1;stroke:#263238;stroke-linecap:round;stroke-linejoin:round"></path><path d="M514.15,365.89c-.31-2.4-2.85-3.66-5-4-6-.89-9.22,9.17-2.82,10.8,3.39.87,7.59-2.31,7.59-2.31l13,6.38s1.11-.53,1-2.93c0,0-11.82-4.63-12.74-5.06S514.29,367,514.15,365.89Z" style="fill:#fff;stroke:#263238;stroke-linecap:round;stroke-linejoin:round"></path><path d="M510.07,386c-1.56-1.86-4.37-1.54-6.36-.64-5.56,2.52-2.8,12.7,3.47,10.62,3.32-1.1,5.13-6.06,5.13-6.06l14.39-1.65s.64-1-.78-3c0,0-12.44,2.5-13.45,2.63S510.81,386.89,510.07,386Z" style="fill:#ECEFF1;stroke:#263238;stroke-linecap:round;stroke-linejoin:round"></path><path d="M517.51,405.12c-2.32-.72-4.51,1.07-5.69,2.9-3.32,5.13,4.5,12.2,8.65,7.06,2.2-2.73,1-7.87,1-7.87l11.2-9.17s0-1.23-2.26-2.1c0,0-9.12,8.84-9.89,9.49S518.61,405.46,517.51,405.12Z" style="fill:#999;stroke:#263238;stroke-linecap:round;stroke-linejoin:round"></path><path d="M534.11,417.18c-2.34.65-3.22,3.34-3.23,5.52,0,6.1,10.39,7.83,11.1,1.26.38-3.48-3.37-7.19-3.37-7.19L543.08,403s-.68-1-3-.54c0,0-2.9,12.37-3.2,13.33S535.22,416.87,534.11,417.18Z" style="fill:#fff;stroke:#263238;stroke-linecap:round;stroke-linejoin:round"></path><path d="M554.59,418.36c-1.62,1.81-.9,4.55.27,6.38,3.29,5.14,13,1,10-4.94-1.57-3.13-6.73-4.22-6.73-4.22l-3.68-14s-1.13-.49-2.85,1.19c0,0,4.25,12,4.52,12.94S555.36,417.5,554.59,418.36Z" style="fill:#ECEFF1;stroke:#263238;stroke-linecap:round;stroke-linejoin:round"></path><path d="M572.46,408.27c-.38,2.4,1.7,4.32,3.68,5.23,5.54,2.54,11.43-6.2,5.75-9.58-3-1.79-7.94.09-7.94.09l-10.67-9.79s-1.21.2-1.75,2.54c0,0,10,7.77,10.8,8.44S572.64,407.13,572.46,408.27Z" style="fill:#fff;stroke:#263238;stroke-linecap:round;stroke-linejoin:round"></path><path d="M582,390.13c1,2.22,3.76,2.71,5.92,2.4,6-.85,6.26-11.39-.34-11.16-3.5.12-6.63,4.36-6.63,4.36l-14.27-2.46s-.91.82-.1,3.08c0,0,12.65,1.11,13.65,1.27S581.57,389.07,582,390.13Z" style="fill:#ECEFF1;stroke:#263238;stroke-linecap:round;stroke-linejoin:round"></path><path d="M580.28,369.69c2,1.34,4.63.24,6.28-1.18,4.63-4-.89-13-6.32-9.21-2.87,2-3.22,7.25-3.22,7.25l-13.33,5.64s-.32,1.19,1.59,2.65c0,0,11.23-5.91,12.16-6.31S579.32,369.05,580.28,369.69Z" style="fill:#fff;stroke:#263238;stroke-linecap:round;stroke-linejoin:round"></path><path d="M567.76,353.44c2.42,0,4-2.3,4.64-4.39,1.74-5.85-7.76-10.44-10.29-4.33-1.34,3.23,1.21,7.84,1.21,7.84l-8.16,12s.36,1.17,2.76,1.37c0,0,6.26-11.05,6.82-11.89S566.6,353.42,567.76,353.44Z" style="fill:#ECEFF1;stroke:#263238;stroke-linecap:round;stroke-linejoin:round"></path><path d="M541.27,377.84a5.11,5.11,0,1,1-5.1-5.1A5.11,5.11,0,0,1,541.27,377.84Z" style="fill:#fff;stroke:#263238;stroke-linecap:round;stroke-linejoin:round"></path><path d="M547.83,392.94a5.11,5.11,0,1,1-5.11-5.1A5.1,5.1,0,0,1,547.83,392.94Z" style="fill:#ECEFF1;stroke:#263238;stroke-linecap:round;stroke-linejoin:round"></path><path d="M562.61,387.32a5.1,5.1,0,1,1-5.1-5.1A5.1,5.1,0,0,1,562.61,387.32Z" style="fill:#fff;stroke:#263238;stroke-linecap:round;stroke-linejoin:round"></path><path d="M555.63,370.76a5.1,5.1,0,1,1-5.1-5.1A5.1,5.1,0,0,1,555.63,370.76Z" style="fill:#ECEFF1;stroke:#263238;stroke-linecap:round;stroke-linejoin:round"></path></g><g id="freepik--virus-5--inject-152"><path d="M473.56,294.83l-.44.06a.48.48,0,0,1-.52-.48.5.5,0,0,1,.4-.58l.43,0a15.85,15.85,0,0,1,2-9.32l-.37-.21a.5.5,0,0,1-.13-.71.52.52,0,0,1,.69-.21l.35.23a16.06,16.06,0,0,1,1.31-1.76,17.45,17.45,0,0,1,4-3.43,12.21,12.21,0,0,1,1.9-1l-.17-.39a.53.53,0,0,1,.33-.65.49.49,0,0,1,.67.24l.15.41a20.34,20.34,0,0,1,2.08-.6,27.09,27.09,0,0,1,7-.56l0-.43a.46.46,0,0,1,.5-.44.47.47,0,0,1,.46.49l0,.42c.67,0,1.34.08,2,.14,2.25.21,4.45.53,6.62.89l.07-.42a.46.46,0,0,1,.53-.38.45.45,0,0,1,.38.53l-.07.42,1.91.33c2.16.38,4.29.77,6.42,1.13l.07-.4a.46.46,0,0,1,.53-.38.45.45,0,0,1,.36.53l-.06.4,1.87.32c2.12.34,4.24.62,6.34.82l0-.41a.45.45,0,0,1,.48-.42.44.44,0,0,1,.4.49l0,.42L524,280a46.32,46.32,0,0,0,6.24-.07l0-.4a.45.45,0,0,1,.38-.5.44.44,0,0,1,.47.41l0,.41c.61-.06,1.21-.13,1.8-.23a27.3,27.3,0,0,0,5.83-1.59l-.15-.38a.44.44,0,0,1,.2-.58.45.45,0,0,1,.57.27l.16.36c.53-.24,1.07-.48,1.59-.76a22.4,22.4,0,0,0,4.81-3.51l-.28-.3a.41.41,0,0,1,0-.6.44.44,0,0,1,.62.05l.28.27c.41-.42.82-.84,1.19-1.29a20.4,20.4,0,0,0,1.75-2.47.45.45,0,0,1-.2-.3l-.07-.39c-1.35.25-2.7.46-4.06.62-1.52.18-3,.32-4.57.41l0,.41a.48.48,0,0,1-.95,0l0-.4c-1.37.07-2.74.1-4.11.07-1.53,0-3.07-.11-4.6-.25l0,.4a.46.46,0,0,1-.52.42.47.47,0,0,1-.43-.5l0-.41c-1.37-.15-2.74-.32-4.1-.56-1.52-.26-3-.59-4.53-1l-.1.4a.46.46,0,0,1-.59.31.48.48,0,0,1-.34-.58l.11-.39c-1.33-.37-2.66-.79-4-1.29a43.13,43.13,0,0,1-4.29-1.91l-.18.36a.48.48,0,0,1-.65.19.48.48,0,0,1-.21-.64l.2-.37a37.08,37.08,0,0,1-3.61-2.21,29.63,29.63,0,0,1-3.68-3.05l-.28.29a.46.46,0,0,1-.68,0,.49.49,0,0,1,0-.69l.28-.27a28.11,28.11,0,0,1-2.73-3.33l-.72-1.06c-.22-.36-.42-.75-.64-1.12a19.85,19.85,0,0,1-1-2.13l-.37.15a.49.49,0,0,1-.63-.32.53.53,0,0,1,.27-.67l.38-.13a17.36,17.36,0,0,1-.91-4.43,16.74,16.74,0,0,1,.52-5.09l-.4-.11a.48.48,0,0,1-.28-.64.49.49,0,0,1,.6-.38l.39.13a18.19,18.19,0,0,1,2-4,20.91,20.91,0,0,1,3.13-3.79l-.29-.29a.49.49,0,0,1,.05-.69.48.48,0,0,1,.69,0l.27.3a28.68,28.68,0,0,1,3.41-2.63,31.42,31.42,0,0,1,4.17-2.3l-.17-.38a.47.47,0,0,1,.26-.62.49.49,0,0,1,.64.23l.16.37a37.81,37.81,0,0,1,4-1.44,34.5,34.5,0,0,1,4.61-1l-.06-.4a.47.47,0,0,1,.42-.53.47.47,0,0,1,.55.38l.06.42a39.37,39.37,0,0,1,4.21-.33,31,31,0,0,1,4.78.31l.06-.4a.5.5,0,0,1,.59-.38.48.48,0,0,1,.44.54l-.08.41a24.24,24.24,0,0,1,4.2,1.27,27.21,27.21,0,0,1,4.26,2.29l.22-.34a.5.5,0,0,1,.84.55l-.25.35a33.08,33.08,0,0,1,3.33,2.65,35.18,35.18,0,0,1,3.26,3.43l.32-.27a.47.47,0,0,1,.66.09.48.48,0,0,1,0,.68l-.33.25a41.07,41.07,0,0,1,2.46,3.42,43.12,43.12,0,0,1,2.29,4.09l.36-.17a.49.49,0,0,1,.43.87l-.39.18a38.61,38.61,0,0,1,1.58,3.89,37.16,37.16,0,0,1,1.25,4.54l.4-.08a.47.47,0,0,1,.55.39.49.49,0,0,1-.37.58l-.4.07a34.83,34.83,0,0,1,.52,4.21,31.7,31.7,0,0,1-.11,4.77l.41,0a.5.5,0,0,1-.11,1l-.42-.06c-.06.45-.12.9-.21,1.35,1.1-.33,2.19-.69,3.28-1.08l-.14-.39a.44.44,0,1,1,.83-.3l.14.38c.59-.21,1.17-.43,1.75-.66a62.42,62.42,0,0,0,5.78-2.62l-.19-.36a.47.47,0,0,1,.18-.62.46.46,0,0,1,.61.21l.19.37,1.65-.87c1.84-1,3.65-2.15,5.41-3.33l-.23-.33a.48.48,0,0,1,.1-.64.44.44,0,0,1,.62.13l.24.34c.51-.35,1-.71,1.53-1.08,1.7-1.25,3.36-2.57,5-4l-.27-.32a.43.43,0,0,1,0-.63.46.46,0,0,1,.64.05l.27.31c.46-.42.93-.84,1.38-1.27s1.11-1,1.64-1.57l1.56-1.68,1.23-1.32-.31-.28a.46.46,0,0,1,0-.64.47.47,0,0,1,.65,0l.31.28,1.28-1.38,2.86-3.58,1.12-1.41-.33-.25a.43.43,0,0,1-.1-.62.45.45,0,0,1,.63-.1l.34.25,1.06-1.55c.86-1.26,1.75-2.5,2.58-3.79l.92-1.55-.35-.22a.45.45,0,1,1,.45-.77l.36.22,1-1.62c.82-1.29,1.45-2.69,2.17-4l.83-1.61-.38-.18a.44.44,0,0,1-.21-.6.47.47,0,0,1,.62-.2l.36.18c.28-.57.55-1.13.79-1.71.61-1.41,1.27-2.79,1.85-4.21l.65-1.69-.39-.15a.48.48,0,0,1-.28-.59.46.46,0,0,1,.6-.25l.39.15.68-1.76c.51-1.44,1-2.91,1.46-4.36.19-.57.35-1.15.52-1.73l-.4-.12a.47.47,0,0,1-.32-.56.45.45,0,0,1,.57-.3l.4.11c.17-.6.34-1.21.52-1.81.56-2.06,1-4.15,1.47-6.24l-.39-.08a.44.44,0,1,1,.18-.87l.4.08c.12-.62.26-1.23.38-1.85.37-2.09.69-4.22.93-6.31l-.41-.05a.44.44,0,0,1-.41-.48.45.45,0,0,1,.5-.4l.41,0h0a1.9,1.9,0,0,1,2-1.71h.35a1.93,1.93,0,0,1,1.82,2.11c-.09.87-.19,1.74-.31,2.6l.4,0a.47.47,0,0,1,.4.53.46.46,0,0,1-.52.4l-.41-.05c-.19,1.34-.4,2.67-.64,4s-.59,3-.92,4.46l.4.09a.45.45,0,0,1,.34.56.48.48,0,0,1-.56.35l-.4-.1c-.31,1.32-.62,2.64-1,3.94-.43,1.45-.8,2.92-1.27,4.36l.39.12a.47.47,0,0,1,.29.59.47.47,0,0,1-.59.3l-.38-.12c-.42,1.28-.84,2.57-1.29,3.85l-1.63,4.24.37.15a.48.48,0,0,1,.26.61.45.45,0,0,1-.6.26l-.39-.16c-.53,1.25-1.09,2.48-1.64,3.72-.58,1.4-1.29,2.74-2,4.09l.36.18a.47.47,0,1,1-.43.83l-.35-.18c-.62,1.2-1.22,2.42-1.94,3.57l-2.33,3.92.34.21a.49.49,0,0,1,.15.65.46.46,0,0,1-.65.14l-.35-.22c-.75,1.13-1.53,2.24-2.29,3.36l-1.36,2-1.35,1.7.32.25a.46.46,0,0,1,.07.65.47.47,0,0,1-.66.08l-.31-.25-2.55,3.18-3.1,3.35.29.27a.47.47,0,0,1,0,.66.44.44,0,0,1-.65,0l-.29-.28-1.15,1.23c-.56.57-1.16,1.11-1.73,1.66-1.11,1.06-2.26,2.07-3.43,3.05l.26.31a.48.48,0,0,1-.07.66.46.46,0,0,1-.66-.06l-.26-.32c-1.06.86-2.14,1.7-3.24,2.51s-2.5,1.77-3.78,2.59l.21.34a.47.47,0,0,1-.79.51l-.22-.35c-1.16.72-2.33,1.42-3.52,2.1q-2,1.08-4.08,2.09l.17.36a.46.46,0,0,1-.23.62.48.48,0,0,1-.63-.22l-.16-.36c-1.24.58-2.49,1.13-3.77,1.62s-2.85,1.09-4.3,1.58l.12.38a.45.45,0,0,1-.3.58.47.47,0,0,1-.6-.29l-.12-.39c-1.15.37-2.3.71-3.47,1a26.65,26.65,0,0,1-1.19,2.68l.35.19a.48.48,0,0,1,.17.67.5.5,0,0,1-.66.22l-.34-.2a24.46,24.46,0,0,1-2.48,3.57,27,27,0,0,1-3.43,3.41l.26.31a.48.48,0,0,1-.11.67.49.49,0,0,1-.69-.05l-.24-.31a27,27,0,0,1-3.62,2.35,27.88,27.88,0,0,1-4.43,1.9l.13.38a.49.49,0,0,1-.34.6.48.48,0,0,1-.61-.29l-.12-.4a31.34,31.34,0,0,1-4.14.94,41.41,41.41,0,0,1-4.68.46v.4a.48.48,0,0,1-.47.48.44.44,0,0,1-.49-.44v-.42q-2.08,0-4.14-.06c-1.54-.08-3.06-.22-4.57-.39l0,.4a.47.47,0,0,1-.93-.11l0-.4q-2-.26-4-.57c-1.49-.23-3-.49-4.44-.75l-.07.39a.46.46,0,0,1-.53.38.46.46,0,0,1-.37-.54l.07-.39-3.92-.71c-1.46-.25-2.91-.5-4.36-.72l-.06.39a.45.45,0,0,1-.51.4.46.46,0,0,1-.37-.53l.06-.39c-1.29-.18-2.58-.35-3.85-.46a40.62,40.62,0,0,0-4.24-.2v.4a.45.45,0,0,1-.41.47.43.43,0,0,1-.43-.44l0-.4a20.86,20.86,0,0,0-3.58.45,11.74,11.74,0,0,0-3.53,1.37l.2.34a.41.41,0,0,1-.06.57.47.47,0,0,1-.57-.19l-.21-.31a14.07,14.07,0,0,0-2.59,2.28,12.4,12.4,0,0,0-2,3.23l.36.16a.42.42,0,0,1,.29.51.44.44,0,0,1-.56.19l-.37-.13a11.84,11.84,0,0,0-.23,7.09l.38-.1a.43.43,0,0,1,.54.24.44.44,0,0,1-.33.49l-.37.12a12.56,12.56,0,0,0,1.5,3.08,13.73,13.73,0,0,0,2.57,2.87l.25-.3a.39.39,0,1,1,.61.47l-.24.32a14.23,14.23,0,0,0,3,1.75,17.53,17.53,0,0,0,3.8,1.13l.08-.39a.42.42,0,0,1,.46-.38.43.43,0,0,1,.33.51l-.05.38a23.06,23.06,0,0,0,3.63.21c.71,0,1.47-.09,2.22-.15s1.35-.11,2-.2l-.05-.38a.47.47,0,0,1,.38-.53.45.45,0,0,1,.49.39l.05.4c1.27-.19,2.54-.36,3.79-.66,1.41-.27,2.81-.62,4.2-1l-.11-.39a.43.43,0,0,1,.3-.55.46.46,0,0,1,.55.32l.11.37c1.23-.37,2.46-.77,3.67-1.2s2.7-1,4-1.59l-.16-.37a.46.46,0,0,1,.22-.6.45.45,0,0,1,.59.24l.16.37c1.18-.53,2.35-1.08,3.5-1.67s2.55-1.36,3.79-2.1l-.2-.34a.44.44,0,1,1,.75-.46l.21.34,1.55-1a2.07,2.07,0,0,1,2.8.48h0a2.08,2.08,0,0,1-.53,3c-1.29.85-2.59,1.63-3.91,2.37l.21.37a.46.46,0,0,1-.19.64.48.48,0,0,1-.64-.18l-.2-.37-1.74.93c-2,1-4,2-6.1,2.79l.16.39a.49.49,0,0,1-.27.61.47.47,0,0,1-.61-.25l-.16-.41c-.61.24-1.23.48-1.85.7-2.11.75-4.25,1.42-6.43,2l.11.41a.48.48,0,0,1-.35.57.45.45,0,0,1-.57-.33l-.1-.42c-.65.15-1.29.3-1.94.43-1.57.37-3.18.56-4.78.81-.63.09-1.27.13-1.9.19l0,.41a.48.48,0,0,1-1,.09l0-.42a18.75,18.75,0,0,1-2,.12,24.5,24.5,0,0,1-7.05-.78l-.1.41a.49.49,0,0,1-.63.31.47.47,0,0,1-.37-.58l.13-.42a19.32,19.32,0,0,1-2-.74,18.38,18.38,0,0,1-6-4.12l-.31.3a.5.5,0,0,1-.71-.08.48.48,0,0,1,0-.7l.33-.29a18.88,18.88,0,0,1-1.33-1.73A17,17,0,0,1,473.56,294.83Zm78.05-45.3-.4.1a.45.45,0,0,1-.55-.29.44.44,0,0,1,.32-.53l.4-.11c-.17-.58-.34-1.17-.54-1.74a36.76,36.76,0,0,0-2.49-5.64l-.35.19a.47.47,0,0,1-.62-.15.46.46,0,0,1,.2-.6l.35-.2c-.3-.53-.6-1.05-.93-1.56a35,35,0,0,0-3.75-4.89l-.3.28a.42.42,0,0,1-.62,0,.44.44,0,0,1,0-.62l.29-.28c-.41-.44-.84-.86-1.28-1.27a26.67,26.67,0,0,0-4.88-3.55l-.2.35a.43.43,0,0,1-.58.2.44.44,0,0,1-.13-.6l.18-.36c-.52-.27-1-.53-1.58-.76a18,18,0,0,0-4-1.14c-.35-.05-.68-.12-1-.15l-.62-.05,0,.42a.43.43,0,0,1-.44.43.46.46,0,0,1-.4-.49l0-.41c-.59,0-1.2,0-1.79,0a33.59,33.59,0,0,0-6.08.68l.08.41a.43.43,0,0,1-.32.53.45.45,0,0,1-.51-.35l-.09-.4c-.59.14-1.18.28-1.75.45a32.43,32.43,0,0,0-5.66,2.3l.19.35a.48.48,0,0,1-.15.62.44.44,0,0,1-.58-.2l-.21-.36c-.51.29-1,.59-1.53.92a22.39,22.39,0,0,0-3.36,2.67c-.41.38-.79.79-1.16,1.2l.32.27a.44.44,0,0,1,.08.6.42.42,0,0,1-.6,0l-.33-.26a14.64,14.64,0,0,0-1,1.38,13.79,13.79,0,0,0-1.7,3.68,13.54,13.54,0,0,0-.31,1.54l.4.06a.38.38,0,1,1-.08.74l-.41,0a12.64,12.64,0,0,0,0,1.63,13.83,13.83,0,0,0,.89,3.92c.23.49.42,1,.68,1.48l.37-.19a.45.45,0,0,1,.6.13.43.43,0,0,1-.21.57l-.36.21c.11.2.21.4.33.59l.6.88a23.82,23.82,0,0,0,4,4.43l.27-.31a.42.42,0,1,1,.64.53l-.26.33c.46.37.93.74,1.42,1.08a34.59,34.59,0,0,0,5.34,3l.17-.37a.45.45,0,0,1,.57-.25.44.44,0,0,1,.21.59l-.16.38c.56.24,1.12.48,1.69.7a43.63,43.63,0,0,0,6,1.78l.1-.4a.43.43,0,0,1,.52-.35.45.45,0,0,1,.32.55l-.08.39c.6.13,1.21.25,1.82.36a59.16,59.16,0,0,0,6.25.71l0-.4a.46.46,0,0,1,.46-.44.44.44,0,0,1,.42.48l0,.41c.62,0,1.24.06,1.86.07a60.49,60.49,0,0,0,6.31-.23l0-.4a.45.45,0,0,1,.4-.5.45.45,0,0,1,.48.42l0,.41c.62-.06,1.24-.12,1.85-.2a63.24,63.24,0,0,0,6.25-1.07l-.09-.41a.44.44,0,0,1,.33-.54.46.46,0,0,1,.53.35l.09.4h.07a24.25,24.25,0,0,0,.82-5.44h-.41a.44.44,0,0,1-.44-.43.46.46,0,0,1,.48-.41h.39c0-.59,0-1.19,0-1.79A30.3,30.3,0,0,0,551.61,249.53Z" style="fill:#ECEFF1;stroke:#263238;stroke-linecap:round;stroke-linejoin:round"></path><path d="M556.29,262.43a31.35,31.35,0,0,1-1.27,4.69" style="fill:none;stroke:#263238;stroke-linecap:round;stroke-linejoin:round"></path><path d="M551.69,263.65s-1,3.76-2.27,5.47" style="fill:none;stroke:#263238;stroke-linecap:round;stroke-linejoin:round"></path></g><g id="freepik--virus-4--inject-152"><path d="M571.89,130.86s1.68-1.32,7.16-1.66,9,1.06,12.08,2.13,4.16-2,4.24-4.23-.87-3.94-4.31-2-11.51,2.22-14.87,1.92a35.43,35.43,0,0,1-5.27-.8S569.53,129.69,571.89,130.86Z" style="fill:#ECEFF1;stroke:#263238;stroke-linecap:round;stroke-linejoin:round"></path><path d="M540.63,98.23s-1.66-1.34-3.18-6.62-.93-9-.55-12.25-2.88-3.63-5.06-3.22-3.66,1.71-1,4.65,4.68,10.75,5.11,14.09a36.77,36.77,0,0,1,.38,5.32S540,100.79,540.63,98.23Z" style="fill:#ECEFF1;stroke:#263238;stroke-linecap:round;stroke-linejoin:round"></path><path d="M559,153.36s2,.76,5.1,5.3,3.7,8.25,4.35,11.46,3.87,2.54,5.82,1.47,2.93-2.77-.48-4.74-7.81-8.75-9.26-11.78a37,37,0,0,1-2-4.93S558.81,150.73,559,153.36Z" style="fill:#ECEFF1;stroke:#263238;stroke-linecap:round;stroke-linejoin:round"></path><path d="M516.21,137.37s-1.15,1.79-6.23,3.89-8.84,1.92-12.11,1.9-3.29,3.26-2.64,5.39,2.11,3.44,4.74.51,10.16-5.83,13.44-6.64a36.05,36.05,0,0,1,5.24-.95S518.83,137.71,516.21,137.37Z" style="fill:#ECEFF1;stroke:#263238;stroke-linecap:round;stroke-linejoin:round"></path><circle cx="543.55" cy="127.09" r="35.96" style="fill:#999;stroke:#263238;stroke-linecap:round;stroke-linejoin:round"></circle><path d="M513.63,79.87s-.8-4-2-5.23-2.81.41-4.82,1.61-3,2.61-1.21,4.62a38.33,38.33,0,0,0,5.83,4.63l9.85,14.07s1.4.2,2.81-2.21c0,0-8.44-12.06-9-13.07A25.06,25.06,0,0,1,513.63,79.87Z" style="fill:#ECEFF1;stroke:#263238;stroke-linecap:round;stroke-linejoin:round"></path><path d="M488,121s-3.65-1.88-5.34-1.68-1.44,2.45-1.75,4.77.16,4,2.86,3.82a38.12,38.12,0,0,0,7.25-1.67l17.14,1.07s1-1,0-3.58c0,0-14.69-.92-15.85-1.07A26.1,26.1,0,0,1,488,121Z" style="fill:#ECEFF1;stroke:#263238;stroke-linecap:round;stroke-linejoin:round"></path><path d="M504.17,166.77s-3.74,1.68-4.65,3.12,1,2.66,2.64,4.35,3.22,2.36,4.78.15a38.13,38.13,0,0,0,3.21-6.72l11.53-12.73s-.12-1.42-2.79-2.25c0,0-9.88,10.91-10.72,11.72A25.36,25.36,0,0,1,504.17,166.77Z" style="fill:#ECEFF1;stroke:#263238;stroke-linecap:round;stroke-linejoin:round"></path><path d="M550,182.62s-1,4-.46,5.58,2.71.86,5.05.64,3.85-1,3.09-3.64a38.28,38.28,0,0,0-3.25-6.69l-2.76-16.95s-1.18-.79-3.5.77c0,0,2.37,14.53,2.48,15.69A25.55,25.55,0,0,1,550,182.62Z" style="fill:#ECEFF1;stroke:#263238;stroke-linecap:round;stroke-linejoin:round"></path><path d="M591,156.65s2.47,3.28,4.08,3.84,2.36-1.58,3.65-3.54,1.58-3.66-.92-4.69a38,38,0,0,0-7.26-1.64l-15-8.4s-1.35.43-1.58,3.21c0,0,12.84,7.21,13.82,7.85A25.57,25.57,0,0,1,591,156.65Z" style="fill:#ECEFF1;stroke:#263238;stroke-linecap:round;stroke-linejoin:round"></path><path d="M596.25,108.43s4.09.11,5.54-.8.23-2.83-.5-5.06-1.87-3.52-4.23-2.2a37.48,37.48,0,0,0-5.81,4.65l-15.91,6.47s-.51,1.33,1.53,3.24c0,0,13.64-5.55,14.75-5.92A26.06,26.06,0,0,1,596.25,108.43Z" style="fill:#ECEFF1;stroke:#263238;stroke-linecap:round;stroke-linejoin:round"></path><path d="M561.81,74.25s2.65-3.13,2.84-4.82-2.07-2-4.27-2.77-3.92-.73-4.36,1.94A37.56,37.56,0,0,0,556,76l-4.86,16.47s.72,1.22,3.48.82c0,0,4.16-14.12,4.57-15.22A25.72,25.72,0,0,1,561.81,74.25Z" style="fill:#ECEFF1;stroke:#263238;stroke-linecap:round;stroke-linejoin:round"></path><path d="M525.09,134.94s0,1.51-3.27,1.76-7.06-1-6.55,1.26,2.26,5,3.52,4,4.54-3.78,6.05-3.78S528.37,136,525.09,134.94Z" style="fill:#ECEFF1;stroke:#263238;stroke-linecap:round;stroke-linejoin:round"></path><path d="M557,129.9s0,1.51,3.28,1.76,7-1,6.55,1.26-2.27,5-3.53,4-4.53-3.78-6-3.78S553.77,130.91,557,129.9Z" style="fill:#ECEFF1;stroke:#263238;stroke-linecap:round;stroke-linejoin:round"></path><path d="M537,152.66s1.1,1.83.73,7.31-2.19,8.78-3.66,11.71,1.47,4.38,3.66,4.75,4-.37,2.56-4-.73-11.7,0-15a36.18,36.18,0,0,1,1.46-5.11S538.42,150.47,537,152.66Z" style="fill:#ECEFF1;stroke:#263238;stroke-linecap:round;stroke-linejoin:round"></path><path d="M562.81,107.83s.13-2.13,3.54-6.45,6.78-6,9.64-7.57,1.28-4.45-.33-6-3.52-2-4.38,1.87-6,10.06-8.49,12.36a38.36,38.36,0,0,1-4.1,3.39S560.36,108.81,562.81,107.83Z" style="fill:#ECEFF1;stroke:#263238;stroke-linecap:round;stroke-linejoin:round"></path><path d="M524.41,109.11s-2.13,0-6.65-3.11-6.42-6.37-8.19-9.13-4.52-1-5.95.71-1.75,3.65,2.14,4.26,10.43,5.36,12.89,7.67a37.12,37.12,0,0,1,3.65,3.87S525.55,111.49,524.41,109.11Z" style="fill:#ECEFF1;stroke:#263238;stroke-linecap:round;stroke-linejoin:round"></path><ellipse cx="543.61" cy="110.12" rx="3.65" ry="3.91" style="fill:#ECEFF1;stroke:#263238;stroke-linecap:round;stroke-linejoin:round"></ellipse><path d="M548.78,140.61a3.16,3.16,0,1,1-3.15-2.9A3,3,0,0,1,548.78,140.61Z" style="fill:#ECEFF1;stroke:#263238;stroke-linecap:round;stroke-linejoin:round"></path><path d="M530.89,123.73a3.15,3.15,0,1,1-3.15-3.15A3.15,3.15,0,0,1,530.89,123.73Z" style="fill:#ECEFF1;stroke:#263238;stroke-linecap:round;stroke-linejoin:round"></path><path d="M563.14,119.07a2,2,0,1,1-2-2A2,2,0,0,1,563.14,119.07Z" style="fill:#ECEFF1;stroke:#263238;stroke-linecap:round;stroke-linejoin:round"></path></g><g id="freepik--virus-3--inject-152"><path d="M206.14,354.06a2.47,2.47,0,1,1-1.27-3.25A2.47,2.47,0,0,1,206.14,354.06Z" style="fill:#fff;stroke:#263238;stroke-linecap:round;stroke-linejoin:round"></path><path d="M207.74,350.38a2.47,2.47,0,1,1-1.27-3.24A2.46,2.46,0,0,1,207.74,350.38Z" style="fill:#fff;stroke:#263238;stroke-linecap:round;stroke-linejoin:round"></path><path d="M209.35,346.71a2.47,2.47,0,1,1-1.28-3.25A2.46,2.46,0,0,1,209.35,346.71Z" style="fill:#fff;stroke:#263238;stroke-linecap:round;stroke-linejoin:round"></path><path d="M211,343a2.47,2.47,0,0,1-4.52-2,2.47,2.47,0,0,1,4.52,2Z" style="fill:#fff;stroke:#263238;stroke-linecap:round;stroke-linejoin:round"></path><path d="M212.55,339.36a2.47,2.47,0,1,1-1.27-3.25A2.47,2.47,0,0,1,212.55,339.36Z" style="fill:#fff;stroke:#263238;stroke-linecap:round;stroke-linejoin:round"></path><path d="M214.15,335.69a2.47,2.47,0,0,1-4.52-2,2.47,2.47,0,1,1,4.52,2Z" style="fill:#fff;stroke:#263238;stroke-linecap:round;stroke-linejoin:round"></path><path d="M215.76,332a2.47,2.47,0,1,1-1.28-3.24A2.48,2.48,0,0,1,215.76,332Z" style="fill:#fff;stroke:#263238;stroke-linecap:round;stroke-linejoin:round"></path><path d="M217.36,328.34a2.47,2.47,0,1,1-1.28-3.25A2.48,2.48,0,0,1,217.36,328.34Z" style="fill:#fff;stroke:#263238;stroke-linecap:round;stroke-linejoin:round"></path><path d="M219,324.67a2.47,2.47,0,1,1-1.27-3.25A2.46,2.46,0,0,1,219,324.67Z" style="fill:#fff;stroke:#263238;stroke-linecap:round;stroke-linejoin:round"></path><path d="M216.3,316.19l-2,1.18a5.06,5.06,0,0,0,8.69,3.79c-.24-1.06-.27-1.22-.51-2.28Z" style="fill:#ECEFF1;stroke:#263238;stroke-linecap:round;stroke-linejoin:round"></path><path d="M202.17,405.27a2.47,2.47,0,1,1,3.43.6A2.47,2.47,0,0,1,202.17,405.27Z" style="fill:#fff;stroke:#263238;stroke-linecap:round;stroke-linejoin:round"></path><path d="M204.47,408.55a2.47,2.47,0,1,1,3.44.6A2.48,2.48,0,0,1,204.47,408.55Z" style="fill:#fff;stroke:#263238;stroke-linecap:round;stroke-linejoin:round"></path><path d="M206.78,411.83a2.47,2.47,0,1,1,3.43.6A2.46,2.46,0,0,1,206.78,411.83Z" style="fill:#fff;stroke:#263238;stroke-linecap:round;stroke-linejoin:round"></path><path d="M209.08,415.11a2.47,2.47,0,1,1,3.44.6A2.48,2.48,0,0,1,209.08,415.11Z" style="fill:#fff;stroke:#263238;stroke-linecap:round;stroke-linejoin:round"></path><path d="M211.39,418.39a2.47,2.47,0,1,1,3.43.6A2.46,2.46,0,0,1,211.39,418.39Z" style="fill:#fff;stroke:#263238;stroke-linecap:round;stroke-linejoin:round"></path><path d="M213.69,421.67a2.47,2.47,0,1,1,3.44.6A2.47,2.47,0,0,1,213.69,421.67Z" style="fill:#fff;stroke:#263238;stroke-linecap:round;stroke-linejoin:round"></path><path d="M216,425a2.47,2.47,0,1,1,3.44.6A2.48,2.48,0,0,1,216,425Z" style="fill:#fff;stroke:#263238;stroke-linecap:round;stroke-linejoin:round"></path><path d="M218.3,428.23a2.47,2.47,0,1,1,3.43.6A2.46,2.46,0,0,1,218.3,428.23Z" style="fill:#fff;stroke:#263238;stroke-linecap:round;stroke-linejoin:round"></path><path d="M220.6,431.5a2.47,2.47,0,1,1,3.44.6A2.47,2.47,0,0,1,220.6,431.5Z" style="fill:#fff;stroke:#263238;stroke-linecap:round;stroke-linejoin:round"></path><path d="M229.23,433.64c0-1.09,0-1.25,0-2.34a5.06,5.06,0,0,0-7.76,5.45l2.21.76Z" style="fill:#ECEFF1;stroke:#263238;stroke-linecap:round;stroke-linejoin:round"></path><circle cx="160.81" cy="378.56" r="2.47" style="fill:#fff;stroke:#263238;stroke-linecap:round;stroke-linejoin:round"></circle><path d="M156.87,376a2.47,2.47,0,1,1-2.54,2.4A2.47,2.47,0,0,1,156.87,376Z" style="fill:#fff;stroke:#263238;stroke-linecap:round;stroke-linejoin:round"></path><path d="M152.86,375.89a2.47,2.47,0,1,1-2.53,2.4A2.46,2.46,0,0,1,152.86,375.89Z" style="fill:#fff;stroke:#263238;stroke-linecap:round;stroke-linejoin:round"></path><path d="M148.85,375.78a2.47,2.47,0,1,1-2.53,2.4A2.47,2.47,0,0,1,148.85,375.78Z" style="fill:#fff;stroke:#263238;stroke-linecap:round;stroke-linejoin:round"></path><path d="M144.85,375.67a2.47,2.47,0,1,1-2.53,2.4A2.47,2.47,0,0,1,144.85,375.67Z" style="fill:#fff;stroke:#263238;stroke-linecap:round;stroke-linejoin:round"></path><path d="M140.84,375.57a2.47,2.47,0,1,1-2.53,2.4A2.46,2.46,0,0,1,140.84,375.57Z" style="fill:#fff;stroke:#263238;stroke-linecap:round;stroke-linejoin:round"></path><path d="M136.83,375.46a2.47,2.47,0,1,1-2.53,2.4A2.47,2.47,0,0,1,136.83,375.46Z" style="fill:#fff;stroke:#263238;stroke-linecap:round;stroke-linejoin:round"></path><path d="M132.83,375.35a2.47,2.47,0,1,1-2.53,2.4A2.47,2.47,0,0,1,132.83,375.35Z" style="fill:#fff;stroke:#263238;stroke-linecap:round;stroke-linejoin:round"></path><path d="M128.82,375.25a2.47,2.47,0,1,1-2.53,2.4A2.46,2.46,0,0,1,128.82,375.25Z" style="fill:#fff;stroke:#263238;stroke-linecap:round;stroke-linejoin:round"></path><path d="M122,380.89l1.85,1.43a5,5,0,0,0,.26-9.47l-1.93,1.32Z" style="fill:#ECEFF1;stroke:#263238;stroke-linecap:round;stroke-linejoin:round"></path><path d="M248.32,369.91l1.66-1.64a5.06,5.06,0,0,1,1.4,9.38l-2.07-1.09Z" style="fill:#ECEFF1;stroke:#263238;stroke-linecap:round;stroke-linejoin:round"></path><path d="M247.82,376A2.47,2.47,0,1,0,245,374,2.48,2.48,0,0,0,247.82,376Z" style="fill:#fff;stroke:#263238;stroke-linecap:round;stroke-linejoin:round"></path><path d="M243.85,376.62a2.47,2.47,0,1,0-2.8-2.08A2.47,2.47,0,0,0,243.85,376.62Z" style="fill:#fff;stroke:#263238;stroke-linecap:round;stroke-linejoin:round"></path><path d="M239.89,377.21a2.47,2.47,0,1,0-2.8-2.07A2.45,2.45,0,0,0,239.89,377.21Z" style="fill:#fff;stroke:#263238;stroke-linecap:round;stroke-linejoin:round"></path><circle cx="235.56" cy="375.36" r="2.47" transform="translate(-186.61 510.13) rotate(-75.59)" style="fill:#fff;stroke:#263238;stroke-linecap:round;stroke-linejoin:round"></circle><circle cx="231.6" cy="375.96" r="2.47" transform="translate(-176.52 544.54) rotate(-80.81)" style="fill:#fff;stroke:#263238;stroke-linecap:round;stroke-linejoin:round"></circle><path d="M228,379a2.47,2.47,0,1,0-2.81-2.08A2.47,2.47,0,0,0,228,379Z" style="fill:#fff;stroke:#263238;stroke-linecap:round;stroke-linejoin:round"></path><path d="M224,379.58a2.47,2.47,0,1,0-2.8-2.07A2.47,2.47,0,0,0,224,379.58Z" style="fill:#fff;stroke:#263238;stroke-linecap:round;stroke-linejoin:round"></path><path d="M220.07,380.17a2.46,2.46,0,1,0-2.8-2.07A2.45,2.45,0,0,0,220.07,380.17Z" style="fill:#fff;stroke:#263238;stroke-linecap:round;stroke-linejoin:round"></path><path d="M216.11,380.77a2.47,2.47,0,1,0-2.81-2.08A2.47,2.47,0,0,0,216.11,380.77Z" style="fill:#fff;stroke:#263238;stroke-linecap:round;stroke-linejoin:round"></path><path d="M158.13,329.32l-2.11-1a5.05,5.05,0,0,1,8.33-4.52c-.14,1.08-.16,1.23-.31,2.32Z" style="fill:#ECEFF1;stroke:#263238;stroke-linecap:round;stroke-linejoin:round"></path><path d="M164.05,327.7a2.47,2.47,0,1,0-1,3.35A2.48,2.48,0,0,0,164.05,327.7Z" style="fill:#fff;stroke:#263238;stroke-linecap:round;stroke-linejoin:round"></path><path d="M166,331.23a2.47,2.47,0,1,0-1,3.34A2.48,2.48,0,0,0,166,331.23Z" style="fill:#fff;stroke:#263238;stroke-linecap:round;stroke-linejoin:round"></path><path d="M167.87,334.75a2.47,2.47,0,1,0-1,3.34A2.47,2.47,0,0,0,167.87,334.75Z" style="fill:#fff;stroke:#263238;stroke-linecap:round;stroke-linejoin:round"></path><path d="M169.78,338.27a2.47,2.47,0,1,0-1,3.35A2.48,2.48,0,0,0,169.78,338.27Z" style="fill:#fff;stroke:#263238;stroke-linecap:round;stroke-linejoin:round"></path><path d="M171.69,341.8a2.47,2.47,0,1,0-1,3.34A2.48,2.48,0,0,0,171.69,341.8Z" style="fill:#fff;stroke:#263238;stroke-linecap:round;stroke-linejoin:round"></path><path d="M173.6,345.32a2.47,2.47,0,1,0-1,3.35A2.47,2.47,0,0,0,173.6,345.32Z" style="fill:#fff;stroke:#263238;stroke-linecap:round;stroke-linejoin:round"></path><path d="M175.51,348.84a2.47,2.47,0,1,0-1,3.35A2.48,2.48,0,0,0,175.51,348.84Z" style="fill:#fff;stroke:#263238;stroke-linecap:round;stroke-linejoin:round"></path><path d="M177.42,352.37a2.47,2.47,0,1,0-1,3.34A2.47,2.47,0,0,0,177.42,352.37Z" style="fill:#fff;stroke:#263238;stroke-linecap:round;stroke-linejoin:round"></path><path d="M179.33,355.89a2.47,2.47,0,1,0-1,3.35A2.47,2.47,0,0,0,179.33,355.89Z" style="fill:#fff;stroke:#263238;stroke-linecap:round;stroke-linejoin:round"></path><path d="M168,432.7l.6,2.26a5.06,5.06,0,0,1-8.85-3.39l2-1.27Z" style="fill:#ECEFF1;stroke:#263238;stroke-linecap:round;stroke-linejoin:round"></path><path d="M163,429.26a2.47,2.47,0,1,0,3.19-1.42A2.47,2.47,0,0,0,163,429.26Z" style="fill:#fff;stroke:#263238;stroke-linecap:round;stroke-linejoin:round"></path><path d="M164.39,425.52a2.46,2.46,0,1,0,3.18-1.42A2.46,2.46,0,0,0,164.39,425.52Z" style="fill:#fff;stroke:#263238;stroke-linecap:round;stroke-linejoin:round"></path><path d="M165.82,421.78a2.47,2.47,0,1,0,3.19-1.42A2.46,2.46,0,0,0,165.82,421.78Z" style="fill:#fff;stroke:#263238;stroke-linecap:round;stroke-linejoin:round"></path><path d="M167.26,418a2.46,2.46,0,1,0,3.18-1.42A2.46,2.46,0,0,0,167.26,418Z" style="fill:#fff;stroke:#263238;stroke-linecap:round;stroke-linejoin:round"></path><path d="M168.69,414.29a2.47,2.47,0,1,0,3.19-1.42A2.47,2.47,0,0,0,168.69,414.29Z" style="fill:#fff;stroke:#263238;stroke-linecap:round;stroke-linejoin:round"></path><path d="M170.13,410.55a2.46,2.46,0,1,0,3.18-1.42A2.46,2.46,0,0,0,170.13,410.55Z" style="fill:#fff;stroke:#263238;stroke-linecap:round;stroke-linejoin:round"></path><path d="M171.56,406.81a2.47,2.47,0,1,0,3.19-1.42A2.46,2.46,0,0,0,171.56,406.81Z" style="fill:#fff;stroke:#263238;stroke-linecap:round;stroke-linejoin:round"></path><path d="M173,403.07a2.46,2.46,0,1,0,3.18-1.42A2.45,2.45,0,0,0,173,403.07Z" style="fill:#fff;stroke:#263238;stroke-linecap:round;stroke-linejoin:round"></path><path d="M174.43,399.32a2.47,2.47,0,1,0,3.19-1.42A2.47,2.47,0,0,0,174.43,399.32Z" style="fill:#fff;stroke:#263238;stroke-linecap:round;stroke-linejoin:round"></path><path d="M180.12,352.55a5.45,5.45,0,1,0-5.45,5.45A5.46,5.46,0,0,0,180.12,352.55Z" style="fill:#ECEFF1;stroke:#263238;stroke-linecap:round;stroke-linejoin:round"></path><path d="M223.57,377.75a5.46,5.46,0,1,0-5.46,5.45A5.45,5.45,0,0,0,223.57,377.75Z" style="fill:#ECEFF1;stroke:#263238;stroke-linecap:round;stroke-linejoin:round"></path><path d="M180.12,404.46a5.45,5.45,0,1,0-5.45,5.45A5.45,5.45,0,0,0,180.12,404.46Z" style="fill:#ECEFF1;stroke:#263238;stroke-linecap:round;stroke-linejoin:round"></path><circle cx="204.2" cy="403.89" r="5.45" style="fill:#ECEFF1;stroke:#263238;stroke-linecap:round;stroke-linejoin:round"></circle><polygon points="220.21 378.02 204.93 351.66 174.46 351.72 159.28 378.13 174.56 404.49 205.02 404.43 220.21 378.02" style="fill:#999;stroke:#263238;stroke-linecap:round;stroke-linejoin:round"></polygon><circle cx="204.92" cy="351.66" r="5.45" style="fill:#ECEFF1;stroke:#263238;stroke-linecap:round;stroke-linejoin:round"></circle><path d="M165.24,378.56a5.46,5.46,0,1,0-5.45,5.45A5.46,5.46,0,0,0,165.24,378.56Z" style="fill:#ECEFF1;stroke:#263238;stroke-linecap:round;stroke-linejoin:round"></path><path d="M186.65,396.53A5.46,5.46,0,1,0,181.2,402,5.46,5.46,0,0,0,186.65,396.53Z" style="fill:#ECEFF1;stroke:#263238;stroke-linecap:round;stroke-linejoin:round"></path><circle cx="209.22" cy="381.19" r="5.45" style="fill:#ECEFF1;stroke:#263238;stroke-linecap:round;stroke-linejoin:round"></circle><circle cx="184.23" cy="369.37" r="5.45" style="fill:#ECEFF1;stroke:#263238;stroke-linecap:round;stroke-linejoin:round"></circle><path d="M183.82,365.76a2.46,2.46,0,1,1-3.43.64A2.47,2.47,0,0,1,183.82,365.76Z" style="fill:#fff;stroke:#263238;stroke-linecap:round;stroke-linejoin:round"></path><path d="M180.51,363.5a2.46,2.46,0,1,1-3.43.64A2.47,2.47,0,0,1,180.51,363.5Z" style="fill:#fff;stroke:#263238;stroke-linecap:round;stroke-linejoin:round"></path><path d="M177.2,361.24a2.46,2.46,0,1,1-3.43.64A2.47,2.47,0,0,1,177.2,361.24Z" style="fill:#fff;stroke:#263238;stroke-linecap:round;stroke-linejoin:round"></path><path d="M173.89,359a2.46,2.46,0,1,1-3.43.64A2.46,2.46,0,0,1,173.89,359Z" style="fill:#fff;stroke:#263238;stroke-linecap:round;stroke-linejoin:round"></path><path d="M170.58,356.72a2.46,2.46,0,1,1-3.43.64A2.45,2.45,0,0,1,170.58,356.72Z" style="fill:#fff;stroke:#263238;stroke-linecap:round;stroke-linejoin:round"></path><path d="M167.27,354.46a2.46,2.46,0,1,1-2.78,4.07,2.46,2.46,0,1,1,2.78-4.07Z" style="fill:#fff;stroke:#263238;stroke-linecap:round;stroke-linejoin:round"></path><path d="M164,352.2a2.46,2.46,0,1,1-2.78,4.07A2.46,2.46,0,1,1,164,352.2Z" style="fill:#fff;stroke:#263238;stroke-linecap:round;stroke-linejoin:round"></path><path d="M160.65,349.94a2.46,2.46,0,1,1-2.78,4.07,2.46,2.46,0,1,1,2.78-4.07Z" style="fill:#fff;stroke:#263238;stroke-linecap:round;stroke-linejoin:round"></path><path d="M158.52,346a4.55,4.55,0,1,1-6.33,1.19A4.55,4.55,0,0,1,158.52,346Z" style="fill:#ECEFF1;stroke:#263238;stroke-linecap:round;stroke-linejoin:round"></path><path d="M211.84,380.2a2.47,2.47,0,1,0,1,3.34A2.47,2.47,0,0,0,211.84,380.2Z" style="fill:#fff;stroke:#263238;stroke-linecap:round;stroke-linejoin:round"></path><path d="M215.36,382.11a2.47,2.47,0,1,0,1,3.34A2.46,2.46,0,0,0,215.36,382.11Z" style="fill:#fff;stroke:#263238;stroke-linecap:round;stroke-linejoin:round"></path><path d="M218.89,384a2.47,2.47,0,1,0,1,3.34A2.46,2.46,0,0,0,218.89,384Z" style="fill:#fff;stroke:#263238;stroke-linecap:round;stroke-linejoin:round"></path><path d="M222.41,385.92a2.47,2.47,0,1,0,1,3.34A2.47,2.47,0,0,0,222.41,385.92Z" style="fill:#fff;stroke:#263238;stroke-linecap:round;stroke-linejoin:round"></path><path d="M225.94,387.82a2.47,2.47,0,1,0,1,3.35A2.47,2.47,0,0,0,225.94,387.82Z" style="fill:#fff;stroke:#263238;stroke-linecap:round;stroke-linejoin:round"></path><path d="M229.47,389.73a2.47,2.47,0,1,0,1,3.34A2.47,2.47,0,0,0,229.47,389.73Z" style="fill:#fff;stroke:#263238;stroke-linecap:round;stroke-linejoin:round"></path><path d="M233,391.63a2.47,2.47,0,1,0,1,3.35A2.47,2.47,0,0,0,233,391.63Z" style="fill:#fff;stroke:#263238;stroke-linecap:round;stroke-linejoin:round"></path><path d="M236.52,393.54a2.47,2.47,0,1,0,1,3.34A2.47,2.47,0,0,0,236.52,393.54Z" style="fill:#fff;stroke:#263238;stroke-linecap:round;stroke-linejoin:round"></path><path d="M241,393.61a4.56,4.56,0,1,0,1.84,6.17A4.56,4.56,0,0,0,241,393.61Z" style="fill:#ECEFF1;stroke:#263238;stroke-linecap:round;stroke-linejoin:round"></path><path d="M183.67,396.54a2.47,2.47,0,1,0-2.81,2.07A2.47,2.47,0,0,0,183.67,396.54Z" style="fill:#fff;stroke:#263238;stroke-linecap:round;stroke-linejoin:round"></path><path d="M183.08,400.5a2.47,2.47,0,1,0-2.81,2.07A2.46,2.46,0,0,0,183.08,400.5Z" style="fill:#fff;stroke:#263238;stroke-linecap:round;stroke-linejoin:round"></path><path d="M182.48,404.46a2.47,2.47,0,1,0-2.8,2.08A2.47,2.47,0,0,0,182.48,404.46Z" style="fill:#fff;stroke:#263238;stroke-linecap:round;stroke-linejoin:round"></path><path d="M181.89,408.43a2.47,2.47,0,1,0-2.81,2.07A2.47,2.47,0,0,0,181.89,408.43Z" style="fill:#fff;stroke:#263238;stroke-linecap:round;stroke-linejoin:round"></path><path d="M181.29,412.39a2.47,2.47,0,1,0-2.8,2.07A2.46,2.46,0,0,0,181.29,412.39Z" style="fill:#fff;stroke:#263238;stroke-linecap:round;stroke-linejoin:round"></path><path d="M180.7,416.35a2.47,2.47,0,1,0-2.81,2.08A2.47,2.47,0,0,0,180.7,416.35Z" style="fill:#fff;stroke:#263238;stroke-linecap:round;stroke-linejoin:round"></path><path d="M180.1,420.32a2.47,2.47,0,1,0-2.8,2.07A2.48,2.48,0,0,0,180.1,420.32Z" style="fill:#fff;stroke:#263238;stroke-linecap:round;stroke-linejoin:round"></path><path d="M179.51,424.28a2.47,2.47,0,1,0-2.81,2.07A2.46,2.46,0,0,0,179.51,424.28Z" style="fill:#fff;stroke:#263238;stroke-linecap:round;stroke-linejoin:round"></path><path d="M181,428.56a4.56,4.56,0,1,0-5.18,3.82A4.56,4.56,0,0,0,181,428.56Z" style="fill:#ECEFF1;stroke:#263238;stroke-linecap:round;stroke-linejoin:round"></path><line x1="166.12" y1="375.84" x2="176.82" y2="371.12" style="fill:none;stroke:#263238;stroke-linecap:round;stroke-linejoin:round"></line><line x1="190.66" y1="363.89" x2="201.35" y2="359.17" style="fill:none;stroke:#263238;stroke-linecap:round;stroke-linejoin:round"></line><line x1="205.13" y1="361.37" x2="207.96" y2="372.38" style="fill:none;stroke:#263238;stroke-linecap:round;stroke-linejoin:round"></line><line x1="189.72" y1="394.71" x2="203.56" y2="387.79" style="fill:none;stroke:#263238;stroke-linecap:round;stroke-linejoin:round"></line><line x1="182.17" y1="377.41" x2="181.2" y2="391.07" style="fill:none;stroke:#263238;stroke-linecap:round;stroke-linejoin:round"></line><line x1="175.25" y1="353.54" x2="178.33" y2="359.24" style="fill:none;stroke:#263238;stroke-linecap:round;stroke-linejoin:round"></line></g><g id="freepik--virus-2--inject-152"><circle cx="191.8" cy="255.28" r="45.11" style="fill:#fff;stroke:#263238;stroke-linecap:round;stroke-linejoin:round"></circle><path d="M171,207.23s-3.13,2.74-3.13,4.89,3.53,3.53,5.68,3.53,6.26-2.74,6.26-4.9a4.52,4.52,0,0,0-4.3-4.69A6.45,6.45,0,0,0,171,207.23Z" style="fill:#ECEFF1;stroke:#263238;stroke-linecap:round;stroke-linejoin:round"></path><path d="M173.51,215.65l1,2.15a3.31,3.31,0,0,0,3.52-1.37l-1-2.15S174.88,216,173.51,215.65Z" style="fill:#263238;stroke:#263238;stroke-linecap:round;stroke-linejoin:round"></path><path d="M154.16,218.86s-1.84,3.73-1,5.72,4.61,1.9,6.59,1.08,4.74-4.93,3.92-6.92a4.54,4.54,0,0,0-5.78-2.69A6.51,6.51,0,0,0,154.16,218.86Z" style="fill:#ECEFF1;stroke:#263238;stroke-linecap:round;stroke-linejoin:round"></path><path d="M159.73,225.66l1.73,1.61a3.28,3.28,0,0,0,2.73-2.61l-1.73-1.61S161.15,225.5,159.73,225.66Z" style="fill:#263238;stroke:#263238;stroke-linecap:round;stroke-linejoin:round"></path><path d="M143.09,236s-.27,4.15,1.25,5.68,5,0,6.5-1.53,2.49-6.36,1-7.88a4.52,4.52,0,0,0-6.36-.28A6.45,6.45,0,0,0,143.09,236Z" style="fill:#ECEFF1;stroke:#263238;stroke-linecap:round;stroke-linejoin:round"></path><path d="M150.84,240.18l2.22.83a3.29,3.29,0,0,0,1.52-3.45l-2.22-.83S152.09,239.49,150.84,240.18Z" style="fill:#263238;stroke:#263238;stroke-linecap:round;stroke-linejoin:round"></path><path d="M139.44,256.14s1.33,3.94,3.32,4.76,4.6-1.91,5.42-3.89-.13-6.84-2.12-7.66a4.53,4.53,0,0,0-6,2.18A6.44,6.44,0,0,0,139.44,256.14Z" style="fill:#ECEFF1;stroke:#263238;stroke-linecap:round;stroke-linejoin:round"></path><path d="M148.18,257l2.37-.08a3.3,3.3,0,0,0,.08-3.78l-2.36.08S149.07,255.89,148.18,257Z" style="fill:#263238;stroke:#263238;stroke-linecap:round;stroke-linejoin:round"></path><path d="M143.75,276.11s2.74,3.13,4.89,3.13,3.53-3.52,3.53-5.68-2.74-6.26-4.9-6.26a4.52,4.52,0,0,0-4.69,4.31A6.44,6.44,0,0,0,143.75,276.11Z" style="fill:#ECEFF1;stroke:#263238;stroke-linecap:round;stroke-linejoin:round"></path><path d="M152.17,273.56l2.15-1a3.33,3.33,0,0,0-1.37-3.53l-2.15,1S152.56,272.19,152.17,273.56Z" style="fill:#263238;stroke:#263238;stroke-linecap:round;stroke-linejoin:round"></path><path d="M155.38,292.91s3.73,1.84,5.72,1,1.9-4.6,1.08-6.59-4.93-4.74-6.91-3.91a4.52,4.52,0,0,0-2.7,5.77A6.46,6.46,0,0,0,155.38,292.91Z" style="fill:#ECEFF1;stroke:#263238;stroke-linecap:round;stroke-linejoin:round"></path><path d="M162.18,287.34l1.62-1.73a3.31,3.31,0,0,0-2.62-2.73l-1.61,1.73S162,285.92,162.18,287.34Z" style="fill:#263238;stroke:#263238;stroke-linecap:round;stroke-linejoin:round"></path><path d="M172.55,304s4.15.28,5.68-1.25,0-5-1.53-6.5-6.36-2.49-7.88-1a4.53,4.53,0,0,0-.28,6.37A6.46,6.46,0,0,0,172.55,304Z" style="fill:#ECEFF1;stroke:#263238;stroke-linecap:round;stroke-linejoin:round"></path><path d="M176.7,296.23l.83-2.21a3.28,3.28,0,0,0-3.45-1.52l-.83,2.21S176,295,176.7,296.23Z" style="fill:#263238;stroke:#263238;stroke-linecap:round;stroke-linejoin:round"></path><path d="M192.66,307.64s3.94-1.34,4.76-3.33-1.91-4.6-3.89-5.42-6.84.13-7.66,2.12a4.53,4.53,0,0,0,2.18,6A6.49,6.49,0,0,0,192.66,307.64Z" style="fill:#ECEFF1;stroke:#263238;stroke-linecap:round;stroke-linejoin:round"></path><path d="M193.53,298.89l-.08-2.36a3.32,3.32,0,0,0-3.78-.09l.08,2.37S192.41,298,193.53,298.89Z" style="fill:#263238;stroke:#263238;stroke-linecap:round;stroke-linejoin:round"></path><path d="M212.63,303.32s3.13-2.74,3.13-4.89-3.52-3.52-5.68-3.52-6.26,2.74-6.26,4.89a4.53,4.53,0,0,0,4.31,4.7A6.47,6.47,0,0,0,212.63,303.32Z" style="fill:#ECEFF1;stroke:#263238;stroke-linecap:round;stroke-linejoin:round"></path><path d="M210.08,294.91l-1-2.16a3.33,3.33,0,0,0-3.53,1.37l1,2.16S208.71,294.52,210.08,294.91Z" style="fill:#263238;stroke:#263238;stroke-linecap:round;stroke-linejoin:round"></path><path d="M229.43,291.69s1.84-3.73,1-5.72-4.6-1.9-6.59-1.08-4.74,4.93-3.91,6.92a4.52,4.52,0,0,0,5.77,2.69A6.42,6.42,0,0,0,229.43,291.69Z" style="fill:#ECEFF1;stroke:#263238;stroke-linecap:round;stroke-linejoin:round"></path><path d="M223.86,284.89l-1.73-1.61a3.29,3.29,0,0,0-2.73,2.61l1.73,1.62S222.44,285.05,223.86,284.89Z" style="fill:#263238;stroke:#263238;stroke-linecap:round;stroke-linejoin:round"></path><path d="M240.5,274.52s.28-4.15-1.25-5.67-5,0-6.5,1.52-2.49,6.36-1,7.88a4.52,4.52,0,0,0,6.37.28A6.46,6.46,0,0,0,240.5,274.52Z" style="fill:#ECEFF1;stroke:#263238;stroke-linecap:round;stroke-linejoin:round"></path><path d="M232.75,270.37l-2.21-.83A3.29,3.29,0,0,0,229,273l2.21.83S231.51,271.06,232.75,270.37Z" style="fill:#263238;stroke:#263238;stroke-linecap:round;stroke-linejoin:round"></path><path d="M244.16,254.42s-1.34-3.94-3.33-4.77-4.6,1.91-5.42,3.9.13,6.83,2.12,7.65a4.52,4.52,0,0,0,6-2.18A6.46,6.46,0,0,0,244.16,254.42Z" style="fill:#ECEFF1;stroke:#263238;stroke-linecap:round;stroke-linejoin:round"></path><path d="M235.41,253.55l-2.36.08a3.3,3.3,0,0,0-.09,3.77l2.37-.08S234.52,254.66,235.41,253.55Z" style="fill:#263238;stroke:#263238;stroke-linecap:round;stroke-linejoin:round"></path><path d="M239.84,234.44s-2.74-3.13-4.89-3.13-3.52,3.53-3.52,5.68,2.74,6.26,4.89,6.26a4.53,4.53,0,0,0,4.7-4.31A6.47,6.47,0,0,0,239.84,234.44Z" style="fill:#ECEFF1;stroke:#263238;stroke-linecap:round;stroke-linejoin:round"></path><path d="M231.43,237l-2.16,1a3.31,3.31,0,0,0,1.37,3.52l2.16-1S231,238.36,231.43,237Z" style="fill:#263238;stroke:#263238;stroke-linecap:round;stroke-linejoin:round"></path><path d="M228.21,217.64s-3.73-1.84-5.72-1-1.9,4.61-1.08,6.59,4.93,4.74,6.92,3.92a4.53,4.53,0,0,0,2.69-5.78A6.47,6.47,0,0,0,228.21,217.64Z" style="fill:#ECEFF1;stroke:#263238;stroke-linecap:round;stroke-linejoin:round"></path><path d="M221.41,223.21l-1.61,1.73a3.28,3.28,0,0,0,2.61,2.73l1.62-1.73S221.57,224.63,221.41,223.21Z" style="fill:#263238;stroke:#263238;stroke-linecap:round;stroke-linejoin:round"></path><path d="M211,206.57s-4.15-.27-5.67,1.25,0,5,1.52,6.5,6.36,2.49,7.88,1a4.51,4.51,0,0,0,.28-6.36A6.45,6.45,0,0,0,211,206.57Z" style="fill:#ECEFF1;stroke:#263238;stroke-linecap:round;stroke-linejoin:round"></path><path d="M206.89,214.32l-.83,2.22a3.3,3.3,0,0,0,3.46,1.52l.83-2.22S207.58,215.57,206.89,214.32Z" style="fill:#263238;stroke:#263238;stroke-linecap:round;stroke-linejoin:round"></path><path d="M190.94,202.92s-3.94,1.33-4.77,3.32,1.91,4.6,3.9,5.42,6.83-.13,7.65-2.12a4.52,4.52,0,0,0-2.18-6A6.42,6.42,0,0,0,190.94,202.92Z" style="fill:#ECEFF1;stroke:#263238;stroke-linecap:round;stroke-linejoin:round"></path><path d="M190.07,211.66l.08,2.37a3.29,3.29,0,0,0,3.77.08l-.08-2.36S191.18,212.55,190.07,211.66Z" style="fill:#263238;stroke:#263238;stroke-linecap:round;stroke-linejoin:round"></path><path d="M191.69,218s-3.94,1.33-4.77,3.32,1.91,4.6,3.9,5.42,6.83-.13,7.65-2.12a4.52,4.52,0,0,0-2.18-6A6.42,6.42,0,0,0,191.69,218Z" style="fill:#ECEFF1;stroke:#263238;stroke-linecap:round;stroke-linejoin:round"></path><path d="M190.82,226.75l.08,2.37a3.3,3.3,0,0,0,3.78.08l-.08-2.36S191.93,227.64,190.82,226.75Z" style="fill:#fff;stroke:#263238;stroke-linecap:round;stroke-linejoin:round"></path><path d="M188.42,232.94s-4.16-.08-5.61,1.51.24,5,1.83,6.43,6.48,2.18,7.92.59a4.52,4.52,0,0,0,0-6.37A6.44,6.44,0,0,0,188.42,232.94Z" style="fill:#ECEFF1;stroke:#263238;stroke-linecap:round;stroke-linejoin:round"></path><path d="M184.64,240.88l-.72,2.25a3.3,3.3,0,0,0,3.52,1.36l.73-2.26S185.39,242.09,184.64,240.88Z" style="fill:#263238;stroke:#263238;stroke-linecap:round;stroke-linejoin:round"></path><path d="M193.78,252.16s-3.59-.07-4.84,1.3.21,4.29,1.58,5.54,5.59,1.89,6.84.51a3.89,3.89,0,0,0,0-5.49A5.54,5.54,0,0,0,193.78,252.16Z" style="fill:#ECEFF1;stroke:#263238;stroke-linecap:round;stroke-linejoin:round"></path><path d="M190.52,259l-.62,1.94a2.83,2.83,0,0,0,3,1.17l.62-1.94S191.17,260.05,190.52,259Z" style="fill:#263238;stroke:#263238;stroke-linecap:round;stroke-linejoin:round"></path><path d="M169.41,253.81s-1.36,3.93-.29,5.8,4.8,1.32,6.67.25,4.08-5.48,3-7.35a4.52,4.52,0,0,0-6.06-1.95A6.46,6.46,0,0,0,169.41,253.81Z" style="fill:#ECEFF1;stroke:#263238;stroke-linecap:round;stroke-linejoin:round"></path><path d="M175.79,259.86l1.92,1.39a3.31,3.31,0,0,0,2.38-2.94l-1.92-1.38S177.17,259.52,175.79,259.86Z" style="fill:#263238;stroke:#263238;stroke-linecap:round;stroke-linejoin:round"></path><path d="M183.38,278.34s3.32,2.51,5.43,2.08,2.73-4.17,2.3-6.28-4-5.57-6.06-5.13a4.52,4.52,0,0,0-3.73,5.17A6.45,6.45,0,0,0,183.38,278.34Z" style="fill:#ECEFF1;stroke:#263238;stroke-linecap:round;stroke-linejoin:round"></path><path d="M191.11,274.14l1.91-1.39a3.31,3.31,0,0,0-2.06-3.17L189.05,271S191.21,272.72,191.11,274.14Z" style="fill:#263238;stroke:#263238;stroke-linecap:round;stroke-linejoin:round"></path><path d="M211,272.63s3.41-2.38,3.65-4.52-3.11-3.88-5.25-4.12-6.53,2-6.76,4.18a4.52,4.52,0,0,0,3.76,5.14A6.44,6.44,0,0,0,211,272.63Z" style="fill:#ECEFF1;stroke:#263238;stroke-linecap:round;stroke-linejoin:round"></path><path d="M209.43,264l-.74-2.25a3.3,3.3,0,0,0-3.65,1l.73,2.25S208.11,263.45,209.43,264Z" style="fill:#263238;stroke:#263238;stroke-linecap:round;stroke-linejoin:round"></path><path d="M214.15,244.57s-1.21-4-3.18-4.86-4.65,1.76-5.54,3.72-.08,6.84,1.88,7.72a4.52,4.52,0,0,0,6.05-2A6.46,6.46,0,0,0,214.15,244.57Z" style="fill:#ECEFF1;stroke:#263238;stroke-linecap:round;stroke-linejoin:round"></path><path d="M205.43,243.43h-2.36a3.28,3.28,0,0,0-.2,3.77h2.36S204.51,244.52,205.43,243.43Z" style="fill:#263238;stroke:#263238;stroke-linecap:round;stroke-linejoin:round"></path><path d="M169.67,226s-2.4,3.4-1.9,5.49,4.25,2.6,6.34,2.1,5.45-4.13,4.95-6.22a4.53,4.53,0,0,0-5.29-3.56A6.41,6.41,0,0,0,169.67,226Z" style="fill:#ECEFF1;stroke:#263238;stroke-linecap:round;stroke-linejoin:round"></path><path d="M174.11,233.59l1.45,1.86a3.3,3.3,0,0,0,3.11-2.15l-1.45-1.87S175.53,233.65,174.11,233.59Z" style="fill:#263238;stroke:#263238;stroke-linecap:round;stroke-linejoin:round"></path><path d="M156.56,245.41s.05,4.16,1.69,5.56,5-.4,6.36-2,2-6.54.35-7.94a4.53,4.53,0,0,0-6.37.22A6.49,6.49,0,0,0,156.56,245.41Z" style="fill:#ECEFF1;stroke:#263238;stroke-linecap:round;stroke-linejoin:round"></path><path d="M164.61,248.94l2.27.65a3.31,3.31,0,0,0,1.25-3.57l-2.27-.65S165.8,248.15,164.61,248.94Z" style="fill:#263238;stroke:#263238;stroke-linecap:round;stroke-linejoin:round"></path><path d="M157.36,268.81s2.49,3.34,4.63,3.51,3.79-3.24,4-5.38-2.24-6.46-4.39-6.63a4.53,4.53,0,0,0-5,3.93A6.43,6.43,0,0,0,157.36,268.81Z" style="fill:#ECEFF1;stroke:#263238;stroke-linecap:round;stroke-linejoin:round"></path><path d="M166,266.94l2.22-.81a3.3,3.3,0,0,0-1.09-3.62l-2.22.81S166.45,265.6,166,266.94Z" style="fill:#263238;stroke:#263238;stroke-linecap:round;stroke-linejoin:round"></path><path d="M171.77,287.28s4,1.24,5.8.11,1.17-4.84,0-6.67-5.6-3.91-7.44-2.79a4.52,4.52,0,0,0-1.75,6.13A6.42,6.42,0,0,0,171.77,287.28Z" style="fill:#ECEFF1;stroke:#263238;stroke-linecap:round;stroke-linejoin:round"></path><path d="M177.61,280.72l1.33-2a3.31,3.31,0,0,0-3-2.29l-1.33,2S177.23,279.34,177.61,280.72Z" style="fill:#263238;stroke:#263238;stroke-linecap:round;stroke-linejoin:round"></path><path d="M194.28,293.75s3.94-1.33,4.76-3.32-1.91-4.6-3.89-5.42-6.84.13-7.66,2.12a4.53,4.53,0,0,0,2.18,6A6.44,6.44,0,0,0,194.28,293.75Z" style="fill:#ECEFF1;stroke:#263238;stroke-linecap:round;stroke-linejoin:round"></path><path d="M195.15,285l-.08-2.37a3.3,3.3,0,0,0-3.78-.08l.08,2.36S194,284.12,195.15,285Z" style="fill:#263238;stroke:#263238;stroke-linecap:round;stroke-linejoin:round"></path><path d="M216.29,285.76s2.41-3.4,1.9-5.49-4.24-2.6-6.34-2.1-5.45,4.13-4.94,6.22a4.52,4.52,0,0,0,5.28,3.56A6.41,6.41,0,0,0,216.29,285.76Z" style="fill:#ECEFF1;stroke:#263238;stroke-linecap:round;stroke-linejoin:round"></path><path d="M211.85,278.17l-1.45-1.86a3.3,3.3,0,0,0-3.11,2.15l1.46,1.87S210.43,278.11,211.85,278.17Z" style="fill:#263238;stroke:#263238;stroke-linecap:round;stroke-linejoin:round"></path><path d="M229.4,266.35s-.05-4.16-1.68-5.56-5,.39-6.37,2-2,6.54-.35,7.94a4.53,4.53,0,0,0,6.37-.22A6.43,6.43,0,0,0,229.4,266.35Z" style="fill:#ECEFF1;stroke:#263238;stroke-linecap:round;stroke-linejoin:round"></path><path d="M221.35,262.82l-2.27-.65a3.31,3.31,0,0,0-1.25,3.57l2.28.65S220.16,263.61,221.35,262.82Z" style="fill:#263238;stroke:#263238;stroke-linecap:round;stroke-linejoin:round"></path><path d="M228.6,242.94s-2.48-3.33-4.63-3.5-3.79,3.23-4,5.38,2.24,6.46,4.39,6.63a4.53,4.53,0,0,0,5-3.93A6.47,6.47,0,0,0,228.6,242.94Z" style="fill:#ECEFF1;stroke:#263238;stroke-linecap:round;stroke-linejoin:round"></path><path d="M220,244.82l-2.22.81a3.3,3.3,0,0,0,1.09,3.62l2.22-.81S219.52,246.16,220,244.82Z" style="fill:#263238;stroke:#263238;stroke-linecap:round;stroke-linejoin:round"></path><path d="M214.2,224.48s-4-1.24-5.81-.12-1.16,4.85,0,6.68,5.61,3.91,7.44,2.79a4.53,4.53,0,0,0,1.76-6.13A6.46,6.46,0,0,0,214.2,224.48Z" style="fill:#ECEFF1;stroke:#263238;stroke-linecap:round;stroke-linejoin:round"></path><path d="M208.35,231,207,233a3.29,3.29,0,0,0,3,2.29l1.33-2S208.73,232.42,208.35,231Z" style="fill:#263238;stroke:#263238;stroke-linecap:round;stroke-linejoin:round"></path></g><g id="freepik--virus-1--inject-152"><polyline points="143.01 172.11 165.3 133.6 186.93 175.94 150.55 141.04 135.8 172.11" style="fill:none;stroke:#263238;stroke-linecap:round;stroke-linejoin:round"></polyline><polyline points="155.47 176.97 165.96 146.87 186.93 175.94" style="fill:none;stroke:#263238;stroke-linecap:round;stroke-linejoin:round"></polyline><polyline points="246.72 172.11 224.43 133.6 202.79 175.94 239.18 141.04 253.93 172.11" style="fill:none;stroke:#263238;stroke-linecap:round;stroke-linejoin:round"></polyline><polyline points="234.26 176.97 223.77 146.87 202.79 175.94" style="fill:none;stroke:#263238;stroke-linecap:round;stroke-linejoin:round"></polyline><polygon points="188.78 184.28 191.12 179.17 186.44 179.17 188.78 184.28" style="fill:#263238;stroke:#263238;stroke-linecap:round;stroke-linejoin:round"></polygon><polygon points="193.12 184.28 195.46 179.17 190.78 179.17 193.12 184.28" style="fill:#263238;stroke:#263238;stroke-linecap:round;stroke-linejoin:round"></polygon><polygon points="197.46 184.28 199.8 179.17 195.12 179.17 197.46 184.28" style="fill:#263238;stroke:#263238;stroke-linecap:round;stroke-linejoin:round"></polygon><polygon points="201.8 184.28 204.14 179.17 199.46 179.17 201.8 184.28" style="fill:#263238;stroke:#263238;stroke-linecap:round;stroke-linejoin:round"></polygon><rect x="187.13" y="111.25" width="16.08" height="65.82" style="fill:#ECEFF1;stroke:#263238;stroke-linecap:round;stroke-linejoin:round"></rect><polygon points="218.18 62.83 195.12 49.4 171.97 62.65 171.87 89.33 194.92 102.76 218.08 89.5 218.18 62.83" style="fill:#999;stroke:#263238;stroke-linecap:round;stroke-linejoin:round"></polygon><polygon points="194.92 102.76 171.97 62.65 218.18 62.65 194.92 102.76" style="fill:none;stroke:#263238;stroke-linecap:round;stroke-linejoin:round"></polygon><polyline points="171.87 89.33 183.5 82.75 206.24 82.75 218.08 89.5" style="fill:none;stroke:#263238;stroke-linecap:round;stroke-linejoin:round"></polyline><polyline points="183.5 82.75 195.02 63.04 206.24 82.75" style="fill:none;stroke:#263238;stroke-linecap:round;stroke-linejoin:round"></polyline><line x1="195.02" y1="63.04" x2="195.02" y2="49.4" style="fill:none;stroke:#263238;stroke-linecap:round;stroke-linejoin:round"></line><rect x="191.69" y="101.24" width="6.97" height="7.58" style="fill:#263238;stroke:#263238;stroke-linecap:round;stroke-linejoin:round"></rect><line x1="194.71" y1="111.39" x2="187.26" y2="118.85" style="fill:#fff;stroke:#263238;stroke-linecap:round;stroke-linejoin:round"></line><line x1="201.02" y1="111.51" x2="187.26" y2="125.27" style="fill:#fff;stroke:#263238;stroke-linecap:round;stroke-linejoin:round"></line><line x1="203.1" y1="115.85" x2="187.26" y2="131.69" style="fill:#fff;stroke:#263238;stroke-linecap:round;stroke-linejoin:round"></line><line x1="203.27" y1="122.1" x2="187.26" y2="138.12" style="fill:#fff;stroke:#263238;stroke-linecap:round;stroke-linejoin:round"></line><line x1="203.09" y1="128.7" x2="187.26" y2="144.54" style="fill:#fff;stroke:#263238;stroke-linecap:round;stroke-linejoin:round"></line><line x1="203.21" y1="135.01" x2="187.26" y2="150.96" style="fill:#fff;stroke:#263238;stroke-linecap:round;stroke-linejoin:round"></line><line x1="203.08" y1="141.55" x2="187.26" y2="157.38" style="fill:#fff;stroke:#263238;stroke-linecap:round;stroke-linejoin:round"></line><line x1="203.05" y1="148.01" x2="187.26" y2="163.8" style="fill:#fff;stroke:#263238;stroke-linecap:round;stroke-linejoin:round"></line><line x1="203.27" y1="154.21" x2="187.26" y2="170.23" style="fill:#fff;stroke:#263238;stroke-linecap:round;stroke-linejoin:round"></line><line x1="203.19" y1="160.71" x2="187.26" y2="176.65" style="fill:#fff;stroke:#263238;stroke-linecap:round;stroke-linejoin:round"></line><line x1="203.12" y1="167.21" x2="194.23" y2="176.09" style="fill:#fff;stroke:#263238;stroke-linecap:round;stroke-linejoin:round"></line><path d="M202.39,111.7H188a1.9,1.9,0,0,1-1.9-1.89h0a1.9,1.9,0,0,1,1.9-1.9h14.43a1.9,1.9,0,0,1,1.9,1.9h0A1.9,1.9,0,0,1,202.39,111.7Z" style="fill:#fff;stroke:#263238;stroke-linecap:round;stroke-linejoin:round"></path><path d="M203.91,180H186.43a2,2,0,0,1-2-2h0a2,2,0,0,1,2-2h17.48a2,2,0,0,1,2,2h0A2,2,0,0,1,203.91,180Z" style="fill:#fff;stroke:#263238;stroke-linecap:round;stroke-linejoin:round"></path></g></svg>