<svg xmlns="http://www.w3.org/2000/svg" viewBox="0 0 750 500"><g id="freepik--background-simple--inject-26"><path d="M687.83,133.59C647.34,74.63,580.21,31.86,510,21.94l-1.57-.22c-103.69-13.93-203,96.6-233.73,113.13S87.49,161,51.47,214.92-4.77,357.64,55,423.78s219.68,7.84,288.22,18.28c51.89,7.91,105.5,14.26,158.52,16.59,47,2.07,101.59,5.84,142.06-22.72,35.57-25.1,41.78-62.27,57-99.87,9.77-24.17,24.53-46.36,25.84-72.87C728.88,217,713.93,171.61,687.83,133.59Z" style="fill:#CFD8DC"></path><path d="M687.83,133.59C647.34,74.63,580.21,31.86,510,21.94l-1.57-.22c-103.69-13.93-203,96.6-233.73,113.13S87.49,161,51.47,214.92-4.77,357.64,55,423.78s219.68,7.84,288.22,18.28c51.89,7.91,105.5,14.26,158.52,16.59,47,2.07,101.59,5.84,142.06-22.72,35.57-25.1,41.78-62.27,57-99.87,9.77-24.17,24.53-46.36,25.84-72.87C728.88,217,713.93,171.61,687.83,133.59Z" style="fill:#fff;opacity:0.7000000000000001"></path></g></svg>
