<svg xmlns="http://www.w3.org/2000/svg" viewBox="0 0 500 500"><g id="freepik--background-complete--inject-370"><rect y="382.4" width="500" height="0.25" style="fill:#ebebeb"></rect><rect x="416.78" y="398.49" width="33.12" height="0.25" style="fill:#ebebeb"></rect><rect x="322.53" y="401.21" width="8.69" height="0.25" style="fill:#ebebeb"></rect><rect x="396.59" y="389.21" width="19.19" height="0.25" style="fill:#ebebeb"></rect><rect x="52.46" y="390.89" width="43.19" height="0.25" style="fill:#ebebeb"></rect><rect x="104.56" y="390.89" width="6.33" height="0.25" style="fill:#ebebeb"></rect><rect x="131.47" y="395.11" width="93.68" height="0.25" style="fill:#ebebeb"></rect><path d="M237,337.8H43.91a5.71,5.71,0,0,1-5.7-5.71V60.66A5.71,5.71,0,0,1,43.91,55H237a5.71,5.71,0,0,1,5.71,5.71V332.09A5.71,5.71,0,0,1,237,337.8ZM43.91,55.2a5.46,5.46,0,0,0-5.45,5.46V332.09a5.46,5.46,0,0,0,5.45,5.46H237a5.47,5.47,0,0,0,5.46-5.46V60.66A5.47,5.47,0,0,0,237,55.2Z" style="fill:#ebebeb"></path><path d="M453.31,337.8H260.21a5.72,5.72,0,0,1-5.71-5.71V60.66A5.72,5.72,0,0,1,260.21,55h193.1A5.71,5.71,0,0,1,459,60.66V332.09A5.71,5.71,0,0,1,453.31,337.8ZM260.21,55.2a5.47,5.47,0,0,0-5.46,5.46V332.09a5.47,5.47,0,0,0,5.46,5.46h193.1a5.47,5.47,0,0,0,5.46-5.46V60.66a5.47,5.47,0,0,0-5.46-5.46Z" style="fill:#ebebeb"></path><rect x="57.39" y="102.33" width="153.38" height="280.07" style="fill:#ebebeb"></rect><rect x="79.88" y="68.09" width="108.4" height="18.58" style="fill:#fafafa"></rect><rect x="65.28" y="109.13" width="137.6" height="273.27" style="fill:#fff"></rect><path d="M196.29,231.49H168.9a2.64,2.64,0,0,0-2.65,2.65h0a2.65,2.65,0,0,0,2.65,2.65h27.39a2.65,2.65,0,0,0,2.65-2.65h0A2.65,2.65,0,0,0,196.29,231.49Z" style="fill:#ebebeb"></path><rect x="85.85" y="124.27" width="31.88" height="230.76" style="fill:#ebebeb"></rect><polygon points="117.73 156.9 85.85 172.84 85.85 211.93 117.73 195.99 117.73 156.9" style="fill:#f5f5f5"></polygon><polygon points="117.73 203.97 85.85 219.91 85.85 234.88 117.73 218.94 117.73 203.97" style="fill:#f5f5f5"></polygon><polygon points="117.73 285.31 85.85 301.24 85.85 316.21 117.73 300.27 117.73 285.31" style="fill:#f5f5f5"></polygon><rect x="233.68" y="86.67" width="208.93" height="221.67" transform="translate(676.3 395) rotate(180)" style="fill:#ebebeb"></rect><rect x="235.3" y="88.38" width="205.69" height="218.23" transform="translate(676.3 395) rotate(180)" style="fill:#fff"></rect><rect x="260.22" y="200.49" width="67.36" height="52.84" transform="translate(575.88 468.47) rotate(-177.08)" style="fill:#f0f0f0"></rect><rect x="331.8" y="139.68" width="67.36" height="52.84" transform="translate(747.78 288.62) rotate(173.33)" style="fill:#f0f0f0"></rect><rect x="285.5" y="81.2" width="105.3" height="16.77" rx="7.43" transform="translate(676.3 179.18) rotate(180)" style="fill:#e6e6e6"></rect><rect x="288.97" y="87.39" width="98.36" height="9.07" rx="4.39" transform="translate(676.3 183.85) rotate(-180)" style="fill:#fff"></rect><rect x="253.43" y="114.01" width="88.29" height="69.26" transform="translate(595.14 297.28) rotate(180)" style="fill:#e6e6e6"></rect><path d="M265.23,122.22c-5.66-.19-6.26,3.13-4.05,5.14s23.74,14.07,24.48,17.62,2.13,8.84,4.31,4.32,6.28-3.31,7.71-7.13c1-2.76-9.35-3-12.39-5.16C276.36,130.73,268.55,122.34,265.23,122.22Z" style="fill:#fff"></path><path d="M326.42,175.05c2.54.68,3-.57.78-2.57s-20-12.21-21.21-20.18c-.55-3.59-2.13-8.85-4.32-4.33s-6.27,3.32-7.7,7.14c-1,2.75,9.35,3,12.39,5.15C315.29,166.55,323.21,174.2,326.42,175.05Z" style="fill:#fff"></path><path d="M299.29,149.32c1.89-2.09-.73-5.1-4.64-3.34S294.2,155,299.29,149.32Z" style="fill:#fff"></path><path d="M304.94,149.62c6.22,7.42,23.63,19.63,26.09,20.52s4.49,5-2.75.24S306,154.23,304.94,152.31,304.94,149.62,304.94,149.62Z" style="fill:#fff"></path><rect x="330.5" y="204.74" width="88.29" height="69.26" transform="translate(749.29 478.74) rotate(180)" style="fill:#e6e6e6"></rect><path d="M383.42,215c-7.63-.21-3.78,18.62-2.34,29.15s3.59,23,15.08,22.5,14.18-8.15,11.84-18.45C404.41,232.34,390.27,215.16,383.42,215Z" style="fill:#fff"></path><path d="M365.87,215c7.62-.21,3.77,18.62,2.34,29.15s-3.59,23-15.08,22.5-14.18-8.15-11.84-18.45C344.87,232.34,359,215.16,365.87,215Z" style="fill:#fff"></path><path d="M382.54,230.15a2.19,2.19,0,0,1-1.05-.27c-.37-.21-9-5.19-9-17.44a2.16,2.16,0,0,1,4.31,0c0,9.65,6.53,13.53,6.81,13.69a2.15,2.15,0,0,1-1.07,4Z" style="fill:#fff"></path><path d="M366.75,230.15a2.15,2.15,0,0,1-1.07-4c.31-.18,6.81-4.06,6.81-13.69a2.16,2.16,0,0,1,4.31,0c0,12.25-8.63,17.23-9,17.44A2.11,2.11,0,0,1,366.75,230.15Z" style="fill:#fff"></path><path d="M391.4,255.16a5.51,5.51,0,1,0,5.5-5.5A5.51,5.51,0,0,0,391.4,255.16Z" style="fill:#f5f5f5"></path><path d="M361.86,233.7c-.93,2.9-.51,5.62.94,6.09s3.37-1.51,4.3-4.4.51-5.62-.94-6.09S362.79,230.81,361.86,233.7Z" style="fill:#f5f5f5"></path></g><g id="freepik--Shadow--inject-370"><ellipse id="freepik--path--inject-370" cx="250" cy="416.24" rx="193.89" ry="11.32" style="fill:#f5f5f5"></ellipse></g><g id="freepik--Flower--inject-370"><path d="M88.44,353.25h0a.44.44,0,0,1-.44-.44c.15-16.78-5.23-80.63-18.2-99.59a.44.44,0,0,1,.11-.61.45.45,0,0,1,.62.11C83.81,272.14,89,335.38,88.88,352.81A.44.44,0,0,1,88.44,353.25Z" style="fill:#2E4B8C"></path><path d="M93.15,348.61H83.73c-7.45,20.39-4.25,64.24,0,64.24h9.42C97.4,412.85,100.6,369,93.15,348.61Z" style="fill:#263238"></path><path d="M73.54,261.55c2,1.41,2.24,3,1.43,4.13s-2.35,1.5-4.38.09-3.53-5.59-3.53-5.59S71.51,260.14,73.54,261.55Z" style="fill:#2E4B8C"></path><path d="M85.54,280.55c-.67,2.38-2.07,3.09-3.44,2.7s-2.19-1.73-1.52-4.1S84.72,274,84.72,274,86.21,278.18,85.54,280.55Z" style="fill:#2E4B8C"></path><path d="M82.27,296.38c1.69,1.79,1.59,3.36.56,4.33s-2.6,1-4.3-.79-2.32-6.2-2.32-6.2S80.57,294.59,82.27,296.38Z" style="fill:#2E4B8C"></path><path d="M91.94,324.8c-1,2.27-2.45,2.8-3.76,2.24s-1.94-2-1-4.27S92,318.18,92,318.18,92.91,322.54,91.94,324.8Z" style="fill:#2E4B8C"></path><path d="M66.54,248.23c-1.63-1.54,2-6,4.51-5.89,1.3.08,1,1.92,1.08,3.45s-.18,2.94-2.21,3.32S67.32,249,66.54,248.23Z" style="fill:#2E4B8C"></path><path d="M66.54,248.23c-1.63-1.54,2-6,4.51-5.89,1.3.08,1,1.92,1.08,3.45s-.18,2.94-2.21,3.32S67.32,249,66.54,248.23Z" style="opacity:0.2"></path><path d="M70.48,246.37c-.15-2.24-6-2.28-7.41-.28-.77,1.06,1.68,1.29,2.42,2.64s1.93,2.13,3.52.81S70.55,247.44,70.48,246.37Z" style="fill:#2E4B8C"></path><path d="M72.28,248.08c-.2-3-7.85-3-9.78-.37-1,1.39,1.09,2.66,2.6,4s3.14,2.29,5.24.55S72.37,249.49,72.28,248.08Z" style="fill:#2E4B8C"></path><path d="M72.28,248.08c-.2-3-7.85-3-9.78-.37-1,1.39,1.09,2.66,2.6,4s3.14,2.29,5.24.55S72.37,249.49,72.28,248.08Z" style="opacity:0.2"></path><path d="M67.08,250.53c-2.15-2,2.68-8,6-7.77,1.71.1-.1,2.79.64,4.67s.55,3.76-2.13,4.26S68.11,251.49,67.08,250.53Z" style="fill:#2E4B8C"></path><path d="M72.28,248.08c-.2-3-7.85-3-9.78-.37-1,1.39,1.09,2.66,2.6,4s3.14,2.29,5.24.55S72.37,249.49,72.28,248.08Z" style="fill:#2E4B8C"></path><path d="M72.28,248.08c-.2-3-7.85-3-9.78-.37-1,1.39,1.09,2.66,2.6,4s3.14,2.29,5.24.55S72.37,249.49,72.28,248.08Z" style="opacity:0.2"></path><path d="M67.08,250.53c-2.15-2,2.68-8,6-7.77,1.71.1-.1,2.79.64,4.67s.55,3.76-2.13,4.26S68.11,251.49,67.08,250.53Z" style="fill:#2E4B8C"></path><path d="M67.64,253.91c-2.48-2.34,3.08-9.17,6.84-8.94,2,.12,1.56,2.91,1.64,5.24s-.27,4.46-3.35,5S68.81,255,67.64,253.91Z" style="fill:#2E4B8C"></path><path d="M67.64,253.91c-2.48-2.34,3.08-9.17,6.84-8.94,2,.12,1.56,2.91,1.64,5.24s-.27,4.46-3.35,5S68.81,255,67.64,253.91Z" style="opacity:0.2"></path><path d="M73.61,251.1c-.22-3.4-9-3.47-11.25-.43-1.16,1.6,2.55,2,3.67,4s2.94,3.24,5.35,1.23S73.72,252.71,73.61,251.1Z" style="fill:#2E4B8C"></path></g><g id="freepik--approved-icon--inject-370"><circle cx="234.75" cy="80.02" r="31.71" transform="translate(102.94 290.11) rotate(-76.72)" style="fill:#2E4B8C"></circle><polygon points="211.98 99.41 198.79 113.75 227.28 107.89 211.98 99.41" style="fill:#2E4B8C"></polygon><circle cx="234.75" cy="80.02" r="28.25" style="fill:#fff"></circle><path d="M213.83,82.41l1.95,12a2.1,2.1,0,0,0,2.41,1.73l9.93-1.62.31,0,14.2-.22a2.51,2.51,0,0,0,.61-.1l6.87-2.19a3.94,3.94,0,0,0,2.73-3.53l.63-12a5,5,0,0,0-5.34-5.25l-7.41.54a2.1,2.1,0,0,1-2.26-2.08l0-4.4a9.16,9.16,0,0,0-2-5.66h0a2.12,2.12,0,0,0-2-.77h0a2.1,2.1,0,0,0-1.74,2.31l.41,3.66a2.16,2.16,0,0,1-.21,1.2l-5.19,10.16a2.11,2.11,0,0,1-1.36,1.08l-11,2.79A2.11,2.11,0,0,0,213.83,82.41Z" style="fill:#2E4B8C"></path><polygon points="256.83 49.65 260.1 41 261.02 44.07 256.83 49.65" style="fill:#2E4B8C"></polygon><polygon points="199.36 61.04 187.73 62.67 190.02 59.15 199.36 61.04" style="fill:#2E4B8C"></polygon><polygon points="203.51 58.92 195.72 55.62 198.44 54.3 203.51 58.92" style="fill:#2E4B8C"></polygon><polygon points="259.92 50.32 264.28 46.5 263.95 48.91 259.92 50.32" style="fill:#2E4B8C"></polygon></g><g id="freepik--character-1--inject-370"><path d="M151.25,131.56c-7.66,8.46-20,29.29-1.34,45.44-5.45-23,9.51-28.26,5-43.42C152,130.85,151.25,131.56,151.25,131.56Z" style="fill:#263238"></path><path d="M153.94,124.27c-1,5.35-4.75,6.92-2.48,9.23s4.31.68,4.57-1,3-4.63,3-4.63A4,4,0,0,0,153.94,124.27Z" style="fill:#2E4B8C"></path><path d="M147.81,384.53l-11.05.81c1.53,8.8,3,22.68,3,22.68h8.76S147.49,390.55,147.81,384.53Z" style="fill:#ffc3bd"></path><path d="M202.69,384.68l-11,.32c2.07,8.9,4.37,22.9,4.37,22.9l8.75.39S202.74,390.71,202.69,384.68Z" style="fill:#ffc3bd"></path><path d="M158,416.71c-7.61,0-7.07-.12-11.36-.26-3.67-.13-4.51.33-7.46.26-2.46,0-2.54-2.41-2-5.11.21-1,.53-2.26.84-3.75a1.81,1.81,0,0,1,1.8-1.47h8.91a2.08,2.08,0,0,1,1.68.85,12.87,12.87,0,0,0,8.85,5C163.39,412.75,161,416.71,158,416.71Z" style="fill:#263238"></path><path d="M217.27,414.35c-7.55.95-7.05.77-11.35,1.17-3.69.34-4.38.89-7.32,1.19-2.46.26-3.31-2-3.63-4.7-.12-1-.2-2.24-.38-3.73a1.41,1.41,0,0,1,1.31-1.64l8.84-1.12a2.61,2.61,0,0,1,1.95.61,16.32,16.32,0,0,0,10.39,3.7C221.36,409.84,220.28,414,217.27,414.35Z" style="fill:#263238"></path><path d="M193.89,212.75s6.92,53.84,6.32,88c2.62,32.09,3.78,93.7,3.78,93.7-.2,1.64-8.82.6-10.31-.45,0,0-16.77-41.19-13.54-93.25-22-54.3-20.71-88-20.71-88Z" style="fill:#2E4B8C"></path><path d="M165.57,256.23c1.7,7,3.9,14.79,6.71,23.25.81-17.05,5.42-39.86,5.58-40.64Z" style="opacity:0.2"></path><path d="M184.51,212.75s-15.74,60.77-22,90.61c-6.55,31.33-15.73,70.09-13.91,90.91-1.75,1-8,1.1-11.56,0,0,0-13.48-59.36,3.66-89.53-6.2-74.23,13.43-92,13.43-92Z" style="fill:#2E4B8C"></path><path d="M149.37,389.93a30.14,30.14,0,0,0,.53,4.28.87.87,0,0,1-.72,1.05c-4.21.68-10.37-.31-12.32-.66a.9.9,0,0,1-.74-.73l-.74-4a.86.86,0,0,1,.86-1l12.24.24A.91.91,0,0,1,149.37,389.93Z" style="fill:#e0e0e0"></path><path d="M205,390c.07,1.12.19,3.12.34,4.59a.86.86,0,0,1-.78,1,62.7,62.7,0,0,1-11.38-.63.93.93,0,0,1-.77-.72l-.89-4a.87.87,0,0,1,.85-1.06l11.72.06A.91.91,0,0,1,205,390Z" style="fill:#e0e0e0"></path><path d="M239.68,162.77l-2.92,1a3.6,3.6,0,0,0-2.29,2.33l-1.59,5.15a6.64,6.64,0,0,0,1.07,6l.81,1.06c4.93-1.27,9.34-6.27,9.34-6.27l1.41-1.29a3,3,0,0,0,.3-4.21l-2.51-2.83A3.42,3.42,0,0,0,239.68,162.77Z" style="fill:#ffc3bd"></path><path d="M196,161s0,.16.07.26l.12.39.27.82c.18.56.42,1.12.65,1.68.47,1.12,1,2.24,1.55,3.33a40.76,40.76,0,0,0,3.94,6.21,33.06,33.06,0,0,0,10.71,9.23c.51.27,1,.54,1.56.77l.4.18.26.11h0a2.26,2.26,0,0,0,1-.21,11.82,11.82,0,0,0,2.39-1.25,27.92,27.92,0,0,0,2.67-2.09,46.19,46.19,0,0,0,5.13-5.45c.82-1,1.59-2,2.35-3.08.37-.53.74-1.06,1.09-1.6s.72-1.12.95-1.55l11.72,8.44c-.59.7-1.06,1.2-1.58,1.79l-1.54,1.67c-1,1.11-2.08,2.19-3.14,3.27a78.85,78.85,0,0,1-6.91,6.24,40.51,40.51,0,0,1-4.09,2.88,24,24,0,0,1-5.13,2.44,14.42,14.42,0,0,1-7.27.58,11,11,0,0,1-2.06-.6c-.4-.15-.48-.2-.7-.29l-.56-.25c-.75-.33-1.48-.7-2.21-1.07a49.45,49.45,0,0,1-14.87-12.14,65.12,65.12,0,0,1-5.53-7.65c-.83-1.34-1.6-2.7-2.33-4.11-.37-.71-.71-1.42-1.06-2.15l-.52-1.13L183,166c-.1-.22-.16-.37-.29-.72Z" style="fill:#2E4B8C"></path><path d="M196,161s0,.16.07.26l.12.39.27.82c.18.56.42,1.12.65,1.68.47,1.12,1,2.24,1.55,3.33a40.76,40.76,0,0,0,3.94,6.21,33.06,33.06,0,0,0,10.71,9.23c.51.27,1,.54,1.56.77l.4.18.26.11h0a2.26,2.26,0,0,0,1-.21,11.82,11.82,0,0,0,2.39-1.25,27.92,27.92,0,0,0,2.67-2.09,46.19,46.19,0,0,0,5.13-5.45c.82-1,1.59-2,2.35-3.08.37-.53.74-1.06,1.09-1.6s.72-1.12.95-1.55l11.72,8.44c-.59.7-1.06,1.2-1.58,1.79l-1.54,1.67c-1,1.11-2.08,2.19-3.14,3.27a78.85,78.85,0,0,1-6.91,6.24,40.51,40.51,0,0,1-4.09,2.88,24,24,0,0,1-5.13,2.44,14.42,14.42,0,0,1-7.27.58,11,11,0,0,1-2.06-.6c-.4-.15-.48-.2-.7-.29l-.56-.25c-.75-.33-1.48-.7-2.21-1.07a49.45,49.45,0,0,1-14.87-12.14,65.12,65.12,0,0,1-5.53-7.65c-.83-1.34-1.6-2.7-2.33-4.11-.37-.71-.71-1.42-1.06-2.15l-.52-1.13L183,166c-.1-.22-.16-.37-.29-.72Z" style="fill:#fff;opacity:0.7000000000000001"></path><path d="M197.58,167.21a165.26,165.26,0,0,1-.27,17.68c-.32,7.68-2,15.75-4.09,28.18-4.2,2.46-25.46,1.44-39.07-.32.83-10.89-.52-23.33-7.9-47.84-1.71-5.68,2.11-11.13,8.2-11.71,1.63-.16,3.35-.29,5.13-.37a139.86,139.86,0,0,1,18.66,0c2,.17,4.13.41,6.14.68C191.63,154.45,197.35,160.4,197.58,167.21Z" style="fill:#fff"></path><path d="M194,215.69a184.23,184.23,0,0,1-41.26-.09.94.94,0,0,1-.72-1.31c.34-.79.67-1.58,1-2.37a.88.88,0,0,1,.89-.55,180.81,180.81,0,0,0,39.67,0,.89.89,0,0,1,1,.83c.09.82.17,1.64.25,2.46A.93.93,0,0,1,194,215.69Z" style="fill:#263238"></path><path d="M175.16,160.73c-2.5.86-4.48,5.42-4,8.14C165,165.23,159.32,155,159.32,155l2.58-2Z" style="fill:#2E4B8C;opacity:0.2"></path><path d="M175.75,160.73c3,.86,5.6,5.86,5.78,7.41,5.84-4.26.41-13.44.41-13.44l-3-1.13Z" style="fill:#2E4B8C;opacity:0.2"></path><path d="M160.88,131.84c1.63,6,3.62,17-.28,21,0,0,5.15,5.79,15.5,8.74,7.28-4.17,3.16-8.74,3.16-8.74-6.81-1.6-7-6.57-6.19-11.23Z" style="fill:#ffc3bd"></path><path d="M160.17,151.91s7.07,6.28,9.17,21.41c4,28.89-3.77,140.38-3.77,140.38S141.44,312.1,132,304c-.44-8.09,15.2-82.65,13.82-104.06s-4-40-1.26-44.07S160.17,151.91,160.17,151.91Z" style="fill:#2E4B8C"></path><path d="M160.17,151.91s7.07,6.28,9.17,21.41c4,28.89-3.77,140.38-3.77,140.38S141.44,312.1,132,304c-.44-8.09,15.2-82.65,13.82-104.06s-4-40-1.26-44.07S160.17,151.91,160.17,151.91Z" style="fill:#fff;opacity:0.8"></path><path d="M178.75,152.51c10.76,13.82,10.68,95.37,7.57,159.8,9.55-1.15,19.76-12.31,19.76-12.31s-10.38-68.35-8.38-97.34,1.72-39.09-2.94-44.44S178.75,152.51,178.75,152.51Z" style="fill:#2E4B8C"></path><path d="M178.75,152.51c10.76,13.82,10.68,95.37,7.57,159.8,9.55-1.15,19.76-12.31,19.76-12.31s-10.38-68.35-8.38-97.34,1.72-39.09-2.94-44.44S178.75,152.51,178.75,152.51Z" style="fill:#fff;opacity:0.8"></path><path d="M161.08,151.4c1.87,1.58,10.69,9.57,9.49,42.33-.89-3.72-4.93-21.3-9.28-29.67a5.6,5.6,0,0,1,3-1,6.12,6.12,0,0,0-3.79-.67c-1.22-2.45-3.71-7.59-6.12-10.35C157,150.42,161.08,151.4,161.08,151.4Z" style="fill:#2E4B8C"></path><path d="M186.63,193.73s-1.92-30.51-8.25-41.39a9.89,9.89,0,0,1,7.19,1.13c1.33,1.59,3.05,7.71,3.05,9a4.39,4.39,0,0,0-3,.33,10.23,10.23,0,0,1,3.12,1.17C189.13,166.2,189.32,177.72,186.63,193.73Z" style="fill:#2E4B8C"></path><path d="M165.85,135.83l7.21,5.78a19.87,19.87,0,0,0-.33,3.32c-2.58-.37-6.3-3.18-6.77-5.86A8.91,8.91,0,0,1,165.85,135.83Z" style="opacity:0.2"></path><path d="M155.76,119.79c1.82,9.69,2.39,13.82,7.92,18.47,8.32,7,19.75,3.3,20.84-6.59,1-8.89-2.16-23.25-12.15-26.45A12.63,12.63,0,0,0,155.76,119.79Z" style="fill:#ffc3bd"></path><path d="M159.32,126.49c3-6.06,6.06-11.7,4.59-13.75s-8.65-5.17-12.11-1.8c-5.21,5.07-.49,15.47,2.58,16.37A5.28,5.28,0,0,0,159.32,126.49Z" style="fill:#263238"></path><path d="M161.72,111.76c7.62,4.48,14.38-5.79,16.74-2.5,3.53-3.8-3.3-6.58-10.54-6.58-10.09,0-21.69,5.31-15.55,8.67S161.72,111.76,161.72,111.76Z" style="fill:#263238"></path><path d="M156.34,126a.25.25,0,0,1-.06-.49l9.41-2.32h1.55a.25.25,0,1,1,0,.49h-1.49L156.4,126Z" style="fill:#fff"></path><path d="M171.12,121.4c.11.82.63,1.46,1.16,1.42s.86-.74.74-1.56-.64-1.45-1.17-1.41S171,120.58,171.12,121.4Z" style="fill:#263238"></path><path d="M181,120.82c.12.82.64,1.45,1.16,1.41s.86-.73.74-1.55-.64-1.46-1.16-1.42S180.9,120,181,120.82Z" style="fill:#263238"></path><path d="M181.53,119.33l1.85-.71S182.61,120.23,181.53,119.33Z" style="fill:#263238"></path><path d="M179.11,123.43a23.89,23.89,0,0,0,2.75,5.54c-1.08.93-2.87.3-2.87.3Z" style="fill:#ed847e"></path><path d="M169.51,126.26a2.48,2.48,0,0,1-1.84-.77,2.54,2.54,0,0,1-.67-2.09,3.46,3.46,0,0,1,3.16-3.05l5.32-.24a2.51,2.51,0,0,1,2,.76,2.63,2.63,0,0,1,.67,2.09A3.47,3.47,0,0,1,175,126l-5.31.24Zm6.1-5.67h-.11l-5.32.24a3,3,0,0,0-2.7,2.61,2.15,2.15,0,0,0,.55,1.71,2,2,0,0,0,1.59.61l5.31-.24h0a3,3,0,0,0,2.7-2.61,2.11,2.11,0,0,0-.54-1.71A2,2,0,0,0,175.61,120.59Z" style="fill:#fff"></path><path d="M182.61,125.66a2.51,2.51,0,0,1-1.84-.76,2.65,2.65,0,0,1-.67-2.1,3.46,3.46,0,0,1,3.17-3l2.3-.11a2.56,2.56,0,0,1,2,.77,2.61,2.61,0,0,1,.68,2.09,3.49,3.49,0,0,1-3.17,3.06l-2.3.1Zm2.42-.35h0Zm.67-5.18h-.11l-2.3.1a3,3,0,0,0-2.7,2.61,2.11,2.11,0,0,0,.54,1.71,2,2,0,0,0,1.59.61l2.3-.11a3,3,0,0,0,2.7-2.61,2.12,2.12,0,0,0-.54-1.7A2,2,0,0,0,185.7,120.13Z" style="fill:#fff"></path><path d="M177.89,123a.22.22,0,0,1-.22-.15.23.23,0,0,1,.13-.32c.37-.16,2.25-.89,2.79,0a.25.25,0,0,1-.08.34.24.24,0,0,1-.34-.08c-.24-.38-1.44-.1-2.18.21A.2.2,0,0,1,177.89,123Z" style="fill:#fff"></path><path d="M175.1,131.52a6.9,6.9,0,0,0,1.37,0,.22.22,0,0,0,.2-.26.26.26,0,0,0-.27-.22,6.87,6.87,0,0,1-5.56-2.16.24.24,0,0,0-.33,0,.25.25,0,0,0,0,.34A7.27,7.27,0,0,0,175.1,131.52Z" style="fill:#263238"></path><path d="M154.79,129.6a6.77,6.77,0,0,0,4.53,3.08c2.31.32,3-2.36,1.91-4.84-1-2.22-3.31-5.07-5.43-4.25S153.38,127.48,154.79,129.6Z" style="fill:#ffc3bd"></path><path d="M167.89,117.75a.43.43,0,0,0,.29-.22,3.55,3.55,0,0,1,2.8-1.87.43.43,0,0,0,.43-.48.53.53,0,0,0-.53-.47,4.47,4.47,0,0,0-3.56,2.33.49.49,0,0,0,.21.65A.51.51,0,0,0,167.89,117.75Z" style="fill:#263238"></path><path d="M184.05,116.24a.51.51,0,0,0,.33-.11.48.48,0,0,0,0-.68,5.08,5.08,0,0,0-4.1-1.83.44.44,0,0,0-.38.53.52.52,0,0,0,.56.43,4.05,4.05,0,0,1,3.23,1.48A.5.5,0,0,0,184.05,116.24Z" style="fill:#263238"></path><path d="M184,239.72l-23.39-7.43a.73.73,0,0,1-.43-1.06l8.46-16.18.05-.11,6.1-16.93a.93.93,0,0,1,1.14-.56l23.4,7.43a.73.73,0,0,1,.45,1l-14.66,33.32A.93.93,0,0,1,184,239.72Z" style="fill:#fff"></path><path d="M185.8,243.08l-24.64-7.83a1.6,1.6,0,0,1-1-2.22l14.57-33.13a2.08,2.08,0,0,1,2.46-1.12l24.64,7.83a1.6,1.6,0,0,1,1,2.22L188.27,242A2.08,2.08,0,0,1,185.8,243.08Z" style="fill:#2E4B8C"></path><path d="M185.8,243.08l-24.64-7.83a1.6,1.6,0,0,1-1-2.22l14.57-33.13a2.08,2.08,0,0,1,2.46-1.12l24.64,7.83a1.6,1.6,0,0,1,1,2.22L188.27,242A2.08,2.08,0,0,1,185.8,243.08Z" style="opacity:0.30000000000000004"></path><path d="M171.63,119.91l1.85-.71S172.71,120.81,171.63,119.91Z" style="fill:#263238"></path><path d="M173.2,216l-1.48-2.68a3.55,3.55,0,0,0-2.71-1.83l-5.35-.63a6.65,6.65,0,0,0-5.71,2.16l-.9,1c2.15,4.62,7.88,8,7.88,8l1.52,1.16a3,3,0,0,0,4.19-.48l2.33-3A3.43,3.43,0,0,0,173.2,216Z" style="fill:#ffc3bd"></path><path d="M154.72,165.55l-.31.24-.38.32-.78.69c-.52.47-1,1-1.54,1.48-1,1-2,2.09-3,3.18a52.73,52.73,0,0,0-5.08,7A41.34,41.34,0,0,0,140,186a33.32,33.32,0,0,0-1.18,3.93,34,34,0,0,0-.64,4l0,.25V194c0-.07,0-.08,0,0a4,4,0,0,0,.34.67,14.09,14.09,0,0,0,2.15,2.46,43.7,43.7,0,0,0,6.76,5,87.56,87.56,0,0,0,7.94,4.35c1.37.68,2.77,1.3,4.17,1.91l2.11.9c.69.28,1.45.57,2.06.78l-5.9,13.18c-.85-.44-1.54-.84-2.29-1.26l-2.2-1.22c-1.46-.83-2.89-1.69-4.34-2.55-2.88-1.73-5.74-3.51-8.56-5.48A63.41,63.41,0,0,1,132,206a25.84,25.84,0,0,1-4-4.9,16,16,0,0,1-1.67-3.68,12,12,0,0,1-.45-2.4,11.83,11.83,0,0,1,0-1.34l0-.34v-.25l0-.35a53.32,53.32,0,0,1,6.77-20.65,76.84,76.84,0,0,1,5.76-8.86c1-1.4,2.13-2.78,3.28-4.12.57-.67,1.17-1.33,1.77-2l.93-1,.49-.5.58-.58Z" style="fill:#2E4B8C"></path><path d="M154.72,165.55l-.31.24-.38.32-.78.69c-.52.47-1,1-1.54,1.48-1,1-2,2.09-3,3.18a52.73,52.73,0,0,0-5.08,7A41.34,41.34,0,0,0,140,186a33.32,33.32,0,0,0-1.18,3.93,34,34,0,0,0-.64,4l0,.25V194c0-.07,0-.08,0,0a4,4,0,0,0,.34.67,14.09,14.09,0,0,0,2.15,2.46,43.7,43.7,0,0,0,6.76,5,87.56,87.56,0,0,0,7.94,4.35c1.37.68,2.77,1.3,4.17,1.91l2.11.9c.69.28,1.45.57,2.06.78l-5.9,13.18c-.85-.44-1.54-.84-2.29-1.26l-2.2-1.22c-1.46-.83-2.89-1.69-4.34-2.55-2.88-1.73-5.74-3.51-8.56-5.48A63.41,63.41,0,0,1,132,206a25.84,25.84,0,0,1-4-4.9,16,16,0,0,1-1.67-3.68,12,12,0,0,1-.45-2.4,11.83,11.83,0,0,1,0-1.34l0-.34v-.25l0-.35a53.32,53.32,0,0,1,6.77-20.65,76.84,76.84,0,0,1,5.76-8.86c1-1.4,2.13-2.78,3.28-4.12.57-.67,1.17-1.33,1.77-2l.93-1,.49-.5.58-.58Z" style="fill:#fff;opacity:0.8"></path></g><g id="freepik--character-2--inject-370"><path d="M300.53,145l-2.88,3.1-2.9,3.21c-1.9,2.16-3.78,4.34-5.55,6.55s-3.45,4.44-5,6.67a37.93,37.93,0,0,0-3.6,6.47,6.86,6.86,0,0,0-.26.7,5.81,5.81,0,0,0-.2.65,5.9,5.9,0,0,0-.25,1.17,20,20,0,0,0,0,3.4,70.44,70.44,0,0,0,1.17,8.15c1.08,5.62,2.59,11.42,4,17.13l0,.1a3.68,3.68,0,0,1-6.72,2.8c-1.66-2.72-3.09-5.43-4.46-8.25s-2.61-5.68-3.73-8.67a61.61,61.61,0,0,1-2.77-9.5,28.82,28.82,0,0,1-.62-5.61,17.86,17.86,0,0,1,.28-3.32c.08-.55.19-1.06.31-1.56s.25-1,.39-1.45a44.83,44.83,0,0,1,4.41-9.71,86.57,86.57,0,0,1,5.43-8.14q2.88-3.84,6-7.39c1-1.19,2.09-2.36,3.17-3.5s2.15-2.24,3.38-3.44a7.36,7.36,0,0,1,10.55,10.27Z" style="fill:#ff8b7b"></path><polygon points="306.84 378.91 311.52 402.32 300.36 404.67 295.67 381.25 306.84 378.91" style="fill:#ff8b7b"></polygon><path d="M299.58,402l12.52-2.69a.8.8,0,0,1,.94.52l3,8.73a1.68,1.68,0,0,1-1.25,2.14c-4,.77-5.27.73-10.25,1.79-5.82,1.24-7.77,4-14.74,4.23-4.22.15-5.11-4.08-3.33-4.55,5.65-1.49,8.81-5.92,10.78-8.86A3.63,3.63,0,0,1,299.58,402Z" style="fill:#263238"></path><polygon points="306.84 378.91 309.26 390.98 298.09 393.33 295.67 381.26 306.84 378.91" style="opacity:0.2"></polygon><path d="M298.72,297.71c13.2-38.83,23.66-90.44,23.66-90.44l-37.66-2.38s-7.65,65.46-9.45,93c-.85,13.06,18.72,91.08,18.72,91.08l17-3.33S304.68,324.7,298.72,297.71Z" style="fill:#263238"></path><path d="M305.21,235.23a195.62,195.62,0,0,0,.94,38.52c2.75-9.64,5.28-19.29,7.47-28.13Z" style="opacity:0.2"></path><path d="M295.14,391.05l15.69-2.82a1.29,1.29,0,0,0,1.06-1.35l-.34-5.3a1.28,1.28,0,0,0-1.49-1.19l-17.14,2.81a1.29,1.29,0,0,0-1,1.68l1.78,5.31A1.3,1.3,0,0,0,295.14,391.05Z" style="fill:#2E4B8C"></path><path d="M295.14,391.05l15.69-2.82a1.29,1.29,0,0,0,1.06-1.35l-.34-5.3a1.28,1.28,0,0,0-1.49-1.19l-17.14,2.81a1.29,1.29,0,0,0-1,1.68l1.78,5.31A1.3,1.3,0,0,0,295.14,391.05Z" style="fill:#fff;opacity:0.2"></path><polygon points="341.08 386.03 341.78 409.9 330.36 409.74 329.66 385.86 341.08 386.03" style="fill:#ff8b7b"></polygon><path d="M330.09,404.84l12.14.18a.78.78,0,0,1,.79.71l1,9.18a1.68,1.68,0,0,1-1.69,1.81c-4-.13-5.31-.46-10.4-.54-5.94-.1-7.23.65-14.21.54-4.22-.07-4.89-4.34-3.08-4.71a27.83,27.83,0,0,0,12.9-6.41A3.68,3.68,0,0,1,330.09,404.84Z" style="fill:#263238"></path><polygon points="341.09 386.03 341.44 398.34 330.02 398.18 329.66 385.87 341.09 386.03" style="opacity:0.2"></polygon><path d="M338.24,296.93c-.78-39.22-.5-68.71-5.25-89l-34.27-2.13s10.64,65.85,16.52,93S327.42,392,327.42,392l16.85.21S346.33,328.8,338.24,296.93Z" style="fill:#263238"></path><path d="M327.47,395l15.93.25a1.29,1.29,0,0,0,1.31-1.21l.35-5.26a1.3,1.3,0,0,0-1.25-1.38l-17.35-.53a1.28,1.28,0,0,0-1.3,1.53l1.06,5.55A1.3,1.3,0,0,0,327.47,395Z" style="fill:#2E4B8C"></path><path d="M327.47,395l15.93.25a1.29,1.29,0,0,0,1.31-1.21l.35-5.26a1.3,1.3,0,0,0-1.25-1.38l-17.35-.53a1.28,1.28,0,0,0-1.3,1.53l1.06,5.55A1.3,1.3,0,0,0,327.47,395Z" style="fill:#fff;opacity:0.2"></path><path d="M327.11,131a139.39,139.39,0,0,0-23-2.07,20.44,20.44,0,0,0-20.16,18.12c-1.78,15.41-1.57,32.61.72,58.76,9,6.66,30.75,4.5,48.36,2.13,1.79-12.38,1.33-29.92,7.18-57.8A16.07,16.07,0,0,0,327.11,131Z" style="fill:#ff8b7b"></path><path d="M288.47,199.58l-3.86-.45a4.38,4.38,0,0,0-3.58,1.21l-1.16,1.12a4.35,4.35,0,0,0-.81,5.23,22.8,22.8,0,0,0,4.15,4.93,3.57,3.57,0,0,0,5.74-1.26l2.4-5.91A3.56,3.56,0,0,0,288.47,199.58Z" style="fill:#ff8b7b"></path><path d="M300.46,198.81c-.11.64-.5,1.11-.88,1.05s-.58-.64-.47-1.28.51-1.11.88-1.05S300.58,198.17,300.46,198.81Z" style="opacity:0.2"></path><path d="M321.59,159.87a.77.77,0,0,1-.78.74.85.85,0,1,1,.78-.74Z" style="opacity:0.2"></path><path d="M292,158.46a.77.77,0,0,1-.79.74.78.78,0,0,1-.57-.92.7.7,0,1,1,1.36.18Z" style="opacity:0.2"></path><path d="M324.39,110.37,309,118.49c1.09,5.2,1,10.5-6.66,11.11a2.65,2.65,0,0,0-1.91,1c-2.06,2.62-2.67,6.78,5.41,8A24.81,24.81,0,0,0,323,135.36a2.32,2.32,0,0,0,.81-3.25C320.57,126.16,322.63,116.06,324.39,110.37Z" style="fill:#ff8b7b"></path><path d="M318.12,113.68l-9.12,4.8a20.48,20.48,0,0,1,.48,3.8c3.3.2,8-2.08,8.56-5A8.74,8.74,0,0,0,318.12,113.68Z" style="opacity:0.2"></path><path d="M299.28,108.8c.6-2.78.71-8.74,3.1-9.07S300.36,112.08,299.28,108.8Z" style="fill:#263238"></path><path d="M327.74,99.1c-2.73,8.55-2.78,13.38-7.69,17.52-7.39,6.23-18.05,1.08-19.39-8-1.22-8.2,1.16-21.33,10.21-24S330.47,90.56,327.74,99.1Z" style="fill:#ff8b7b"></path><path d="M300.47,107c-2.76,1.65-2.35,10.51.87,12.32s8.4,2.56,16.18.57c6.45-1.65,4.82-9.12,5.92-11.76s1.88-7.18-.78-6.48-3.32,8.06-5.61,6.71a21.47,21.47,0,0,0-8.75-2.53C305.19,105.64,301.64,106.35,300.47,107Z" style="fill:#263238"></path><path d="M328.71,107.56a8.41,8.41,0,0,1-5,3.62c-2.63.58-3.51-2.05-2.42-4.66,1-2.35,3.53-5.48,6-4.88S330.21,105.28,328.71,107.56Z" style="fill:#ff8b7b"></path><path d="M313.52,98.57c0,.76-.35,1.39-.84,1.4s-.93-.59-1-1.35.35-1.38.85-1.4S313.49,97.81,313.52,98.57Z" style="fill:#263238"></path><path d="M304.89,98.2c0,.76-.35,1.38-.85,1.4s-.92-.59-1-1.35.35-1.38.85-1.4S304.86,97.44,304.89,98.2Z" style="fill:#263238"></path><path d="M308,98.7s-1.56,4.43-3.38,6.6c1.4,1.21,3.66.57,3.66.57Z" style="fill:#ff5652"></path><path d="M308.65,110.22a6.22,6.22,0,0,0,4.84-1,.22.22,0,0,0-.28-.35,5.94,5.94,0,0,1-5.38.7.23.23,0,0,0-.14.43A8,8,0,0,0,308.65,110.22Z" style="fill:#ff8b7b"></path><path d="M317.09,96.35a.46.46,0,0,0,.22-.06.45.45,0,0,0,.15-.61A4.45,4.45,0,0,0,314,93.44a.44.44,0,0,0-.46.42.46.46,0,0,0,.43.47h0a3.57,3.57,0,0,1,2.69,1.8A.45.45,0,0,0,317.09,96.35Z" style="fill:#263238"></path><path d="M301.16,94.58a.43.43,0,0,0,.39-.15,3.51,3.51,0,0,1,3-1.23.44.44,0,0,0,.51-.37.46.46,0,0,0-.38-.51,4.39,4.39,0,0,0-3.76,1.51.44.44,0,0,0,0,.63A.46.46,0,0,0,301.16,94.58Z" style="fill:#263238"></path><path d="M335.2,134.45c.71.66,1.26,1.2,1.86,1.8s1.16,1.18,1.73,1.78c1.14,1.19,2.24,2.4,3.32,3.64,2.18,2.47,4.23,5.05,6.21,7.73a70.4,70.4,0,0,1,10,18.15,34.66,34.66,0,0,1,1.43,5.55c.18,1,.28,2,.37,3a16.74,16.74,0,0,1,0,1.88c-.05.59-.08,1.22-.17,1.76a26.24,26.24,0,0,1-1.68,5.87,37.61,37.61,0,0,1-2.4,4.84,61.75,61.75,0,0,1-5.76,8.28q-1.56,1.92-3.23,3.71c-1.12,1.21-2.25,2.34-3.51,3.51a3.68,3.68,0,0,1-5.76-4.43l.08-.15a138.51,138.51,0,0,0,7.63-16c.46-1.31.88-2.6,1.18-3.8a13.64,13.64,0,0,0,.46-3.22,5.06,5.06,0,0,0,0-.57c0-.18-.05-.24-.08-.46-.1-.52-.18-1-.34-1.6a23.89,23.89,0,0,0-1.18-3.41,45.55,45.55,0,0,0-3.8-7.11,82.84,82.84,0,0,0-5-7c-1.77-2.31-3.67-4.55-5.62-6.77-1-1.1-2-2.2-3-3.28l-1.51-1.61-1.45-1.5-.17-.17a7.36,7.36,0,0,1,10.35-10.47Z" style="fill:#ff8b7b"></path><path d="M338.31,199.85l-7.09,1.55,5.26,9.64s5.44-1.91,6.83-5.09a2.94,2.94,0,0,0-.41-3l-1.57-2A3,3,0,0,0,338.31,199.85Z" style="fill:#ff8b7b"></path><path d="M326,209.37l2.41,3.06a3.18,3.18,0,0,0,4,.82l4-2.21-5.26-9.64-4.61,3.47A3.18,3.18,0,0,0,326,209.37Z" style="fill:#ff8b7b"></path><path d="M417.85,201.4h-.94V187.19a11.71,11.71,0,0,0-3.46-8.33l.67-.67a12.63,12.63,0,0,1,3.73,9Z" style="fill:#2E4B8C"></path><rect x="416.91" y="208.19" width="0.94" height="5.45" style="fill:#2E4B8C"></rect><path d="M405.13,177.77h0a9.41,9.41,0,0,0-9.41,9.42V416.73h18.83V187.19A9.42,9.42,0,0,0,405.13,177.77Z" style="fill:#2E4B8C"></path><path d="M412.16,187.19a7,7,0,1,1-7-7A7,7,0,0,1,412.16,187.19Z" style="fill:#fff"></path><path d="M408.59,190.09h0a5.08,5.08,0,0,0-.61-7.15l-32.51-27.39v13.26l26,21.89A5.07,5.07,0,0,0,408.59,190.09Z" style="fill:#2E4B8C"></path><polygon points="380.48 159.78 375.47 155.55 375.47 168.81 381.9 174.23 380.48 159.78" style="fill:#263238"></polygon><polygon points="371.78 220.83 239.11 220.83 244.94 138.94 377.61 138.94 371.78 220.83" style="fill:#263238;opacity:0.7000000000000001"></polygon><path d="M371.9,142.87a1.31,1.31,0,0,1,1.38,1.49l-5,70.49a2.31,2.31,0,0,1-2.19,2.05H244.81a1.34,1.34,0,0,1-1-.41,1.41,1.41,0,0,1-.35-1.08l5-70.49a2.3,2.3,0,0,1,2.19-2H371.9m0-3.93H250.64a6.22,6.22,0,0,0-6.11,5.7l-5,70.49a5.23,5.23,0,0,0,5.29,5.7H366.08a6.21,6.21,0,0,0,6.1-5.7l5-70.49a5.24,5.24,0,0,0-5.3-5.7Z" style="fill:#fff"></path><path d="M371.64,222.79H239a1.8,1.8,0,0,1-1.82-2L243,138.94a2.13,2.13,0,0,1,2.1-2H377.74a1.8,1.8,0,0,1,1.83,2l-5.83,81.89A2.14,2.14,0,0,1,371.64,222.79Zm-130.43-3.93H370l5.55-78H246.76Z" style="fill:#2E4B8C"></path><path d="M306.15,144.84a2.72,2.72,0,0,0-1.76,2c-3,12.28-7.56,57.85-1,61.76,2.57,1.54,1.53-26.29,4.67-42,2.08-10.44,3.25-15.63,3.9-18.39a2.89,2.89,0,0,0-2.23-3.61A8.61,8.61,0,0,0,306.15,144.84Z" style="fill:#fff"></path><path d="M330.52,145c-3.52-1.16-9.49,5.38-20,2.33a24.58,24.58,0,0,1-.82,5.08C327,154.15,334,146.16,330.52,145Z" style="fill:#fff"></path><path d="M332.73,154c-4.22-1.05-11.4,4.86-24,2.11a16.89,16.89,0,0,1-1,4.59C328.51,162.25,337,155,332.73,154Z" style="fill:#fff"></path><path d="M330.05,165.3c-3.79-1.6-11.25,4.2-22.58-.13a22.71,22.71,0,0,1-1.53,5C325,174,333.84,166.9,330.05,165.3Z" style="fill:#fff"></path><path d="M326.71,175.19c-3.47-1.41-10.33,3.81-20.68,0a19.63,19.63,0,0,1-1.42,4.46C322.06,183,330.17,176.61,326.71,175.19Z" style="fill:#fff"></path><path d="M291,145.15c2.93-1.16,6,5.33,14.68,2.31a30.82,30.82,0,0,0-.48,5C291.73,154.21,288.11,146.3,291,145.15Z" style="fill:#fff"></path><path d="M287.7,154c3.46-1,7.5,4.82,17.73,2.09a20.71,20.71,0,0,0-.35,4.56C288.92,162.24,284.23,155.09,287.7,154Z" style="fill:#fff"></path><path d="M287.73,165.28c3.2-1.59,7.71,4.17,17.21-.13a25,25,0,0,0,.16,4.94C289.8,173.91,284.52,166.86,287.73,165.28Z" style="fill:#fff"></path><path d="M288.57,175.1c2.94-1.4,7,3.77,15.74,0a22,22,0,0,0,.13,4.42C290.43,182.85,285.63,176.5,288.57,175.1Z" style="fill:#fff"></path><path d="M291,214.12a4.44,4.44,0,0,1-4.11-4.5c.08-6.08-.81-12.1,4.37-10.15,6.36,2.4,8.35,6.44,20.28,2.95s20.22-2.62,20.44,4.47a23.62,23.62,0,0,1-.13,3.68,4.4,4.4,0,0,1-4.28,3.81C320.74,214.54,301.73,214.9,291,214.12Z" style="fill:#fff"></path><path d="M341.28,147.6c5.27,5.14,17.22,24.12,13.85,27.17-1.93,1.74-11.89-16.33-15.6-21.53S337.51,143.94,341.28,147.6Z" style="fill:#fff"></path><path d="M283.54,147.25c-4.6,5-14.7,23.11-11.48,25.79,1.84,1.54,10.16-15.65,13.32-20.63S286.82,143.69,283.54,147.25Z" style="fill:#fff"></path><path d="M355.58,181.71c-1.72,5.75-11.12,22.45-14.76,21.92-2.09-.3,7.43-15.34,9.83-20.17S356.81,177.59,355.58,181.71Z" style="fill:#fff"></path><path d="M274.71,178.24c2.83,4.87,8.79,22.4,6.59,24.87-1.26,1.41-6.09-15.18-8-20S272.69,174.75,274.71,178.24Z" style="fill:#fff"></path></g></svg>